solid OpenSCAD_Model
  facet normal 0 0 -1
    outer loop
      vertex -3.9 0 0
      vertex -3.81478 0.810856 0
      vertex -3.81478 -0.810856 0
    endloop
  endfacet
  facet normal 0 0 -1
    outer loop
      vertex -3.81478 -0.810856 0
      vertex -3.81478 0.810856 0
      vertex -3.56283 1.58627 0
    endloop
  endfacet
  facet normal 0 0 -1
    outer loop
      vertex -3.81478 -0.810856 0
      vertex -3.56283 1.58627 0
      vertex -3.15517 2.29236 0
    endloop
  endfacet
  facet normal 0 0 -1
    outer loop
      vertex -3.81478 -0.810856 0
      vertex -3.15517 2.29236 0
      vertex -2.60961 2.89826 0
    endloop
  endfacet
  facet normal 0 0 -1
    outer loop
      vertex -3.81478 -0.810856 0
      vertex -2.60961 2.89826 0
      vertex -1.95 3.3775 0
    endloop
  endfacet
  facet normal 0 0 -1
    outer loop
      vertex -3.81478 -0.810856 0
      vertex -1.95 3.3775 0
      vertex -1.20517 3.70912 0
    endloop
  endfacet
  facet normal 0 0 -1
    outer loop
      vertex -3.81478 -0.810856 0
      vertex -1.20517 3.70912 0
      vertex -0.407661 3.87863 0
    endloop
  endfacet
  facet normal 0 0 -1
    outer loop
      vertex -3.81478 -0.810856 0
      vertex -0.407661 3.87863 0
      vertex 0.407661 3.87863 0
    endloop
  endfacet
  facet normal 0 0 -1
    outer loop
      vertex -3.81478 -0.810856 0
      vertex 0.407661 3.87863 0
      vertex 1.20517 3.70912 0
    endloop
  endfacet
  facet normal 0 0 -1
    outer loop
      vertex -3.81478 -0.810856 0
      vertex 1.20517 3.70912 0
      vertex 1.95 3.3775 0
    endloop
  endfacet
  facet normal 0 0 -1
    outer loop
      vertex -0.463525 1.42658 0
      vertex 1.95 3.3775 0
      vertex 2.60961 2.89826 0
    endloop
  endfacet
  facet normal 0 0 -1
    outer loop
      vertex 0.463525 1.42658 0
      vertex 2.60961 2.89826 0
      vertex 3.15517 2.29236 0
    endloop
  endfacet
  facet normal 0 0 -1
    outer loop
      vertex 1.21352 0.881678 0
      vertex 3.15517 2.29236 0
      vertex 3.56283 1.58627 0
    endloop
  endfacet
  facet normal 0 0 -1
    outer loop
      vertex 1.5 0 0
      vertex 3.81478 0.810856 0
      vertex 3.9 0 0
    endloop
  endfacet
  facet normal 0 0 -1
    outer loop
      vertex 1.21352 -0.881678 0
      vertex 3.81478 -0.810856 0
      vertex 3.56283 -1.58627 0
    endloop
  endfacet
  facet normal 0 0 -1
    outer loop
      vertex -0.463525 -1.42658 0
      vertex 3.56283 -1.58627 0
      vertex 3.15517 -2.29236 0
    endloop
  endfacet
  facet normal 0 0 -1
    outer loop
      vertex -3.81478 -0.810856 0
      vertex 3.15517 -2.29236 0
      vertex 2.60961 -2.89826 0
    endloop
  endfacet
  facet normal 0 0 -1
    outer loop
      vertex -3.81478 -0.810856 0
      vertex 2.60961 -2.89826 0
      vertex 1.95 -3.3775 0
    endloop
  endfacet
  facet normal 0 0 -1
    outer loop
      vertex -3.81478 -0.810856 0
      vertex 1.95 -3.3775 0
      vertex 1.20517 -3.70912 0
    endloop
  endfacet
  facet normal 0 0 -1
    outer loop
      vertex -3.81478 -0.810856 0
      vertex 1.20517 -3.70912 0
      vertex 0.407661 -3.87863 0
    endloop
  endfacet
  facet normal 0 0 -1
    outer loop
      vertex -3.81478 -0.810856 0
      vertex 0.407661 -3.87863 0
      vertex -0.407661 -3.87863 0
    endloop
  endfacet
  facet normal 0 0 -1
    outer loop
      vertex -3.81478 -0.810856 0
      vertex -0.407661 -3.87863 0
      vertex -1.20517 -3.70912 0
    endloop
  endfacet
  facet normal 0 0 -1
    outer loop
      vertex -3.81478 -0.810856 0
      vertex -1.20517 -3.70912 0
      vertex -1.95 -3.3775 0
    endloop
  endfacet
  facet normal 0 0 -1
    outer loop
      vertex -3.81478 -0.810856 0
      vertex -1.95 -3.3775 0
      vertex -2.60961 -2.89826 0
    endloop
  endfacet
  facet normal 0 0 -1
    outer loop
      vertex -3.81478 -0.810856 0
      vertex -2.60961 -2.89826 0
      vertex -3.15517 -2.29236 0
    endloop
  endfacet
  facet normal 0 0 -1
    outer loop
      vertex -3.81478 -0.810856 0
      vertex -3.15517 -2.29236 0
      vertex -3.56283 -1.58627 0
    endloop
  endfacet
  facet normal 0 0 -1
    outer loop
      vertex -1.21352 -0.881678 0
      vertex -3.81478 -0.810856 0
      vertex -1.5 0 0
    endloop
  endfacet
  facet normal 0 0 -1
    outer loop
      vertex -0.463525 -1.42658 0
      vertex -3.81478 -0.810856 0
      vertex -1.21352 -0.881678 0
    endloop
  endfacet
  facet normal 0 0 -1
    outer loop
      vertex 0.463525 -1.42658 0
      vertex 3.56283 -1.58627 0
      vertex -0.463525 -1.42658 0
    endloop
  endfacet
  facet normal 0 0 -1
    outer loop
      vertex -3.81478 -0.810856 0
      vertex -0.463525 -1.42658 0
      vertex 3.15517 -2.29236 0
    endloop
  endfacet
  facet normal 0 0 -1
    outer loop
      vertex 1.21352 -0.881678 0
      vertex 3.56283 -1.58627 0
      vertex 0.463525 -1.42658 0
    endloop
  endfacet
  facet normal 0 0 -1
    outer loop
      vertex 1.5 0 0
      vertex 3.81478 -0.810856 0
      vertex 1.21352 -0.881678 0
    endloop
  endfacet
  facet normal 0 0 -1
    outer loop
      vertex 0.463525 1.42658 0
      vertex 3.15517 2.29236 0
      vertex 1.21352 0.881678 0
    endloop
  endfacet
  facet normal 0 0 -1
    outer loop
      vertex -3.81478 -0.810856 0
      vertex 1.95 3.3775 0
      vertex -0.463525 1.42658 0
    endloop
  endfacet
  facet normal 0 0 -1
    outer loop
      vertex -3.81478 -0.810856 0
      vertex -0.463525 1.42658 0
      vertex -1.21352 0.881678 0
    endloop
  endfacet
  facet normal 0 0 -1
    outer loop
      vertex 1.5 0 0
      vertex 3.9 0 0
      vertex 3.81478 -0.810856 0
    endloop
  endfacet
  facet normal 0 0 -1
    outer loop
      vertex -1.5 0 0
      vertex -3.81478 -0.810856 0
      vertex -1.21352 0.881678 0
    endloop
  endfacet
  facet normal 0 0 -1
    outer loop
      vertex -0.463525 1.42658 0
      vertex 2.60961 2.89826 0
      vertex 0.463525 1.42658 0
    endloop
  endfacet
  facet normal 0 0 -1
    outer loop
      vertex 1.21352 0.881678 0
      vertex 3.56283 1.58627 0
      vertex 3.81478 0.810856 0
    endloop
  endfacet
  facet normal 0 0 -1
    outer loop
      vertex 1.21352 0.881678 0
      vertex 3.81478 0.810856 0
      vertex 1.5 0 0
    endloop
  endfacet
  facet normal -0.994522 0.104528 0
    outer loop
      vertex -3.9 0 0
      vertex -3.9 0 10
      vertex -3.81478 0.810856 0
    endloop
  endfacet
  facet normal -0.994522 0.104528 0
    outer loop
      vertex -3.81478 0.810856 0
      vertex -3.9 0 10
      vertex -3.81478 0.810856 10
    endloop
  endfacet
  facet normal -0.994522 -0.104528 0
    outer loop
      vertex -3.9 0 0
      vertex -3.81478 -0.810856 0
      vertex -3.9 0 10
    endloop
  endfacet
  facet normal -0.994522 -0.104528 0
    outer loop
      vertex -3.9 0 10
      vertex -3.81478 -0.810856 0
      vertex -3.81478 -0.810856 10
    endloop
  endfacet
  facet normal -0.951056 -0.309018 0
    outer loop
      vertex -3.81478 -0.810856 0
      vertex -3.56283 -1.58627 0
      vertex -3.81478 -0.810856 10
    endloop
  endfacet
  facet normal -0.951056 -0.309018 0
    outer loop
      vertex -3.81478 -0.810856 10
      vertex -3.56283 -1.58627 0
      vertex -3.56283 -1.58627 10
    endloop
  endfacet
  facet normal -0.866025 -0.5 0
    outer loop
      vertex -3.56283 -1.58627 0
      vertex -3.15517 -2.29236 0
      vertex -3.56283 -1.58627 10
    endloop
  endfacet
  facet normal -0.866025 -0.5 0
    outer loop
      vertex -3.56283 -1.58627 10
      vertex -3.15517 -2.29236 0
      vertex -3.15517 -2.29236 10
    endloop
  endfacet
  facet normal -0.743145 -0.66913 0
    outer loop
      vertex -3.15517 -2.29236 0
      vertex -2.60961 -2.89826 0
      vertex -3.15517 -2.29236 10
    endloop
  endfacet
  facet normal -0.743145 -0.66913 0
    outer loop
      vertex -3.15517 -2.29236 10
      vertex -2.60961 -2.89826 0
      vertex -2.60961 -2.89826 10
    endloop
  endfacet
  facet normal -0.587785 -0.809017 0
    outer loop
      vertex -2.60961 -2.89826 10
      vertex -2.60961 -2.89826 0
      vertex -1.95 -3.3775 0
    endloop
  endfacet
  facet normal -0.587785 -0.809017 0
    outer loop
      vertex -1.95 -3.3775 10
      vertex -2.60961 -2.89826 10
      vertex -1.95 -3.3775 0
    endloop
  endfacet
  facet normal -0.406736 -0.913546 0
    outer loop
      vertex -1.95 -3.3775 10
      vertex -1.95 -3.3775 0
      vertex -1.20517 -3.70912 0
    endloop
  endfacet
  facet normal -0.406736 -0.913546 0
    outer loop
      vertex -1.20517 -3.70912 10
      vertex -1.95 -3.3775 10
      vertex -1.20517 -3.70912 0
    endloop
  endfacet
  facet normal -0.207912 -0.978148 0
    outer loop
      vertex -1.20517 -3.70912 10
      vertex -1.20517 -3.70912 0
      vertex -0.407661 -3.87863 0
    endloop
  endfacet
  facet normal -0.207912 -0.978148 0
    outer loop
      vertex -0.407661 -3.87863 10
      vertex -1.20517 -3.70912 10
      vertex -0.407661 -3.87863 0
    endloop
  endfacet
  facet normal 0 -1 0
    outer loop
      vertex -0.407661 -3.87863 10
      vertex -0.407661 -3.87863 0
      vertex 0.407661 -3.87863 0
    endloop
  endfacet
  facet normal 0 -1 0
    outer loop
      vertex 0.407661 -3.87863 10
      vertex -0.407661 -3.87863 10
      vertex 0.407661 -3.87863 0
    endloop
  endfacet
  facet normal 0.207912 -0.978148 0
    outer loop
      vertex 0.407661 -3.87863 10
      vertex 0.407661 -3.87863 0
      vertex 1.20517 -3.70912 0
    endloop
  endfacet
  facet normal 0.207912 -0.978148 0
    outer loop
      vertex 1.20517 -3.70912 10
      vertex 0.407661 -3.87863 10
      vertex 1.20517 -3.70912 0
    endloop
  endfacet
  facet normal 0.406736 -0.913546 0
    outer loop
      vertex 1.20517 -3.70912 10
      vertex 1.20517 -3.70912 0
      vertex 1.95 -3.3775 0
    endloop
  endfacet
  facet normal 0.406736 -0.913546 0
    outer loop
      vertex 1.95 -3.3775 10
      vertex 1.20517 -3.70912 10
      vertex 1.95 -3.3775 0
    endloop
  endfacet
  facet normal 0.587785 -0.809017 0
    outer loop
      vertex 1.95 -3.3775 10
      vertex 1.95 -3.3775 0
      vertex 2.60961 -2.89826 0
    endloop
  endfacet
  facet normal 0.587785 -0.809017 0
    outer loop
      vertex 2.60961 -2.89826 10
      vertex 1.95 -3.3775 10
      vertex 2.60961 -2.89826 0
    endloop
  endfacet
  facet normal 0.743145 -0.66913 0
    outer loop
      vertex 2.60961 -2.89826 10
      vertex 2.60961 -2.89826 0
      vertex 3.15517 -2.29236 0
    endloop
  endfacet
  facet normal 0.743145 -0.66913 0
    outer loop
      vertex 3.15517 -2.29236 10
      vertex 2.60961 -2.89826 10
      vertex 3.15517 -2.29236 0
    endloop
  endfacet
  facet normal 0.866025 -0.5 0
    outer loop
      vertex 3.15517 -2.29236 10
      vertex 3.15517 -2.29236 0
      vertex 3.56283 -1.58627 0
    endloop
  endfacet
  facet normal 0.866025 -0.5 0
    outer loop
      vertex 3.56283 -1.58627 10
      vertex 3.15517 -2.29236 10
      vertex 3.56283 -1.58627 0
    endloop
  endfacet
  facet normal 0.951056 -0.309018 0
    outer loop
      vertex 3.56283 -1.58627 10
      vertex 3.56283 -1.58627 0
      vertex 3.81478 -0.810856 0
    endloop
  endfacet
  facet normal 0.951056 -0.309018 0
    outer loop
      vertex 3.81478 -0.810856 10
      vertex 3.56283 -1.58627 10
      vertex 3.81478 -0.810856 0
    endloop
  endfacet
  facet normal 0.994522 -0.104528 0
    outer loop
      vertex 3.81478 -0.810856 10
      vertex 3.81478 -0.810856 0
      vertex 3.9 0 0
    endloop
  endfacet
  facet normal 0.994522 -0.104528 0
    outer loop
      vertex 3.9 0 10
      vertex 3.81478 -0.810856 10
      vertex 3.9 0 0
    endloop
  endfacet
  facet normal 0.994522 0.104528 0
    outer loop
      vertex 3.9 0 0
      vertex 3.81478 0.810856 0
      vertex 3.81478 0.810856 10
    endloop
  endfacet
  facet normal 0.994522 0.104528 0
    outer loop
      vertex 3.9 0 10
      vertex 3.9 0 0
      vertex 3.81478 0.810856 10
    endloop
  endfacet
  facet normal 0.951056 0.309018 0
    outer loop
      vertex 3.81478 0.810856 0
      vertex 3.56283 1.58627 0
      vertex 3.56283 1.58627 10
    endloop
  endfacet
  facet normal 0.951056 0.309018 0
    outer loop
      vertex 3.81478 0.810856 10
      vertex 3.81478 0.810856 0
      vertex 3.56283 1.58627 10
    endloop
  endfacet
  facet normal 0.866025 0.5 0
    outer loop
      vertex 3.56283 1.58627 0
      vertex 3.15517 2.29236 0
      vertex 3.15517 2.29236 10
    endloop
  endfacet
  facet normal 0.866025 0.5 0
    outer loop
      vertex 3.56283 1.58627 10
      vertex 3.56283 1.58627 0
      vertex 3.15517 2.29236 10
    endloop
  endfacet
  facet normal 0.743145 0.66913 0
    outer loop
      vertex 3.15517 2.29236 0
      vertex 2.60961 2.89826 0
      vertex 2.60961 2.89826 10
    endloop
  endfacet
  facet normal 0.743145 0.66913 0
    outer loop
      vertex 3.15517 2.29236 10
      vertex 3.15517 2.29236 0
      vertex 2.60961 2.89826 10
    endloop
  endfacet
  facet normal 0.587785 0.809017 0
    outer loop
      vertex 1.95 3.3775 0
      vertex 1.95 3.3775 10
      vertex 2.60961 2.89826 0
    endloop
  endfacet
  facet normal 0.587785 0.809017 0
    outer loop
      vertex 2.60961 2.89826 0
      vertex 1.95 3.3775 10
      vertex 2.60961 2.89826 10
    endloop
  endfacet
  facet normal 0.406736 0.913546 0
    outer loop
      vertex 1.20517 3.70912 0
      vertex 1.20517 3.70912 10
      vertex 1.95 3.3775 0
    endloop
  endfacet
  facet normal 0.406736 0.913546 0
    outer loop
      vertex 1.95 3.3775 0
      vertex 1.20517 3.70912 10
      vertex 1.95 3.3775 10
    endloop
  endfacet
  facet normal 0.207912 0.978148 0
    outer loop
      vertex 0.407661 3.87863 0
      vertex 0.407661 3.87863 10
      vertex 1.20517 3.70912 0
    endloop
  endfacet
  facet normal 0.207912 0.978148 0
    outer loop
      vertex 1.20517 3.70912 0
      vertex 0.407661 3.87863 10
      vertex 1.20517 3.70912 10
    endloop
  endfacet
  facet normal 0 1 0
    outer loop
      vertex -0.407661 3.87863 0
      vertex -0.407661 3.87863 10
      vertex 0.407661 3.87863 0
    endloop
  endfacet
  facet normal 0 1 0
    outer loop
      vertex 0.407661 3.87863 0
      vertex -0.407661 3.87863 10
      vertex 0.407661 3.87863 10
    endloop
  endfacet
  facet normal -0.207912 0.978148 0
    outer loop
      vertex -1.20517 3.70912 0
      vertex -1.20517 3.70912 10
      vertex -0.407661 3.87863 0
    endloop
  endfacet
  facet normal -0.207912 0.978148 0
    outer loop
      vertex -0.407661 3.87863 0
      vertex -1.20517 3.70912 10
      vertex -0.407661 3.87863 10
    endloop
  endfacet
  facet normal -0.406736 0.913546 0
    outer loop
      vertex -1.95 3.3775 0
      vertex -1.95 3.3775 10
      vertex -1.20517 3.70912 0
    endloop
  endfacet
  facet normal -0.406736 0.913546 0
    outer loop
      vertex -1.20517 3.70912 0
      vertex -1.95 3.3775 10
      vertex -1.20517 3.70912 10
    endloop
  endfacet
  facet normal -0.587785 0.809017 0
    outer loop
      vertex -2.60961 2.89826 0
      vertex -2.60961 2.89826 10
      vertex -1.95 3.3775 0
    endloop
  endfacet
  facet normal -0.587785 0.809017 0
    outer loop
      vertex -1.95 3.3775 0
      vertex -2.60961 2.89826 10
      vertex -1.95 3.3775 10
    endloop
  endfacet
  facet normal -0.743145 0.66913 0
    outer loop
      vertex -3.15517 2.29236 0
      vertex -3.15517 2.29236 10
      vertex -2.60961 2.89826 0
    endloop
  endfacet
  facet normal -0.743145 0.66913 0
    outer loop
      vertex -2.60961 2.89826 0
      vertex -3.15517 2.29236 10
      vertex -2.60961 2.89826 10
    endloop
  endfacet
  facet normal -0.866025 0.5 0
    outer loop
      vertex -3.56283 1.58627 0
      vertex -3.56283 1.58627 10
      vertex -3.15517 2.29236 0
    endloop
  endfacet
  facet normal -0.866025 0.5 0
    outer loop
      vertex -3.15517 2.29236 0
      vertex -3.56283 1.58627 10
      vertex -3.15517 2.29236 10
    endloop
  endfacet
  facet normal -0.951056 0.309018 0
    outer loop
      vertex -3.81478 0.810856 0
      vertex -3.81478 0.810856 10
      vertex -3.56283 1.58627 0
    endloop
  endfacet
  facet normal -0.951056 0.309018 0
    outer loop
      vertex -3.56283 1.58627 0
      vertex -3.81478 0.810856 10
      vertex -3.56283 1.58627 10
    endloop
  endfacet
  facet normal 0.951056 0.309017 0
    outer loop
      vertex -1.5 0 10
      vertex -1.21352 -0.881678 10
      vertex -1.21352 -0.881678 0
    endloop
  endfacet
  facet normal 0.951056 0.309017 0
    outer loop
      vertex -1.5 0 0
      vertex -1.5 0 10
      vertex -1.21352 -0.881678 0
    endloop
  endfacet
  facet normal 0.951056 -0.309017 0
    outer loop
      vertex -1.21352 0.881678 0
      vertex -1.21352 0.881678 10
      vertex -1.5 0 10
    endloop
  endfacet
  facet normal 0.951056 -0.309017 0
    outer loop
      vertex -1.5 0 0
      vertex -1.21352 0.881678 0
      vertex -1.5 0 10
    endloop
  endfacet
  facet normal 0.587785 -0.809017 0
    outer loop
      vertex -0.463525 1.42658 0
      vertex -0.463525 1.42658 10
      vertex -1.21352 0.881678 10
    endloop
  endfacet
  facet normal 0.587785 -0.809017 0
    outer loop
      vertex -1.21352 0.881678 0
      vertex -0.463525 1.42658 0
      vertex -1.21352 0.881678 10
    endloop
  endfacet
  facet normal 0 -1 0
    outer loop
      vertex 0.463525 1.42658 0
      vertex 0.463525 1.42658 10
      vertex -0.463525 1.42658 10
    endloop
  endfacet
  facet normal 0 -1 0
    outer loop
      vertex -0.463525 1.42658 0
      vertex 0.463525 1.42658 0
      vertex -0.463525 1.42658 10
    endloop
  endfacet
  facet normal -0.587785 -0.809017 0
    outer loop
      vertex 1.21352 0.881678 0
      vertex 1.21352 0.881678 10
      vertex 0.463525 1.42658 10
    endloop
  endfacet
  facet normal -0.587785 -0.809017 0
    outer loop
      vertex 0.463525 1.42658 0
      vertex 1.21352 0.881678 0
      vertex 0.463525 1.42658 10
    endloop
  endfacet
  facet normal -0.951056 -0.309017 0
    outer loop
      vertex 1.5 0 10
      vertex 1.21352 0.881678 10
      vertex 1.5 0 0
    endloop
  endfacet
  facet normal -0.951056 -0.309017 0
    outer loop
      vertex 1.5 0 0
      vertex 1.21352 0.881678 10
      vertex 1.21352 0.881678 0
    endloop
  endfacet
  facet normal -0.951056 0.309017 0
    outer loop
      vertex 1.5 0 10
      vertex 1.5 0 0
      vertex 1.21352 -0.881678 10
    endloop
  endfacet
  facet normal -0.951056 0.309017 0
    outer loop
      vertex 1.21352 -0.881678 10
      vertex 1.5 0 0
      vertex 1.21352 -0.881678 0
    endloop
  endfacet
  facet normal -0.587785 0.809017 0
    outer loop
      vertex 1.21352 -0.881678 10
      vertex 1.21352 -0.881678 0
      vertex 0.463525 -1.42658 10
    endloop
  endfacet
  facet normal -0.587785 0.809017 0
    outer loop
      vertex 0.463525 -1.42658 10
      vertex 1.21352 -0.881678 0
      vertex 0.463525 -1.42658 0
    endloop
  endfacet
  facet normal 0 1 0
    outer loop
      vertex 0.463525 -1.42658 10
      vertex 0.463525 -1.42658 0
      vertex -0.463525 -1.42658 10
    endloop
  endfacet
  facet normal 0 1 0
    outer loop
      vertex -0.463525 -1.42658 10
      vertex 0.463525 -1.42658 0
      vertex -0.463525 -1.42658 0
    endloop
  endfacet
  facet normal 0.587785 0.809017 0
    outer loop
      vertex -0.463525 -1.42658 10
      vertex -0.463525 -1.42658 0
      vertex -1.21352 -0.881678 10
    endloop
  endfacet
  facet normal 0.587785 0.809017 0
    outer loop
      vertex -1.21352 -0.881678 10
      vertex -0.463525 -1.42658 0
      vertex -1.21352 -0.881678 0
    endloop
  endfacet
  facet normal 0 0 1
    outer loop
      vertex -3.81478 0.810856 10
      vertex -3.9 0 10
      vertex -3.81478 -0.810856 10
    endloop
  endfacet
  facet normal 0 0 1
    outer loop
      vertex -3.15517 -2.29236 10
      vertex -3.81478 0.810856 10
      vertex -3.56283 -1.58627 10
    endloop
  endfacet
  facet normal 0 0 1
    outer loop
      vertex -3.56283 -1.58627 10
      vertex -3.81478 0.810856 10
      vertex -3.81478 -0.810856 10
    endloop
  endfacet
  facet normal 0 0 1
    outer loop
      vertex -2.60961 -2.89826 10
      vertex -3.81478 0.810856 10
      vertex -3.15517 -2.29236 10
    endloop
  endfacet
  facet normal 0 0 1
    outer loop
      vertex -1.95 -3.3775 10
      vertex -3.81478 0.810856 10
      vertex -2.60961 -2.89826 10
    endloop
  endfacet
  facet normal 0 0 1
    outer loop
      vertex -1.20517 -3.70912 10
      vertex -3.81478 0.810856 10
      vertex -1.95 -3.3775 10
    endloop
  endfacet
  facet normal 0 0 1
    outer loop
      vertex -0.407661 -3.87863 10
      vertex -3.81478 0.810856 10
      vertex -1.20517 -3.70912 10
    endloop
  endfacet
  facet normal 0 0 1
    outer loop
      vertex 0.407661 -3.87863 10
      vertex -3.81478 0.810856 10
      vertex -0.407661 -3.87863 10
    endloop
  endfacet
  facet normal 0 0 1
    outer loop
      vertex 1.20517 -3.70912 10
      vertex -3.81478 0.810856 10
      vertex 0.407661 -3.87863 10
    endloop
  endfacet
  facet normal 0 0 1
    outer loop
      vertex 1.95 -3.3775 10
      vertex -3.81478 0.810856 10
      vertex 1.20517 -3.70912 10
    endloop
  endfacet
  facet normal 0 0 1
    outer loop
      vertex -1.21352 -0.881678 10
      vertex -3.81478 0.810856 10
      vertex 1.95 -3.3775 10
    endloop
  endfacet
  facet normal 0 0 1
    outer loop
      vertex 1.5 0 10
      vertex 1.21352 -0.881678 10
      vertex 3.56283 -1.58627 10
    endloop
  endfacet
  facet normal 0 0 1
    outer loop
      vertex 1.21352 0.881678 10
      vertex 3.9 0 10
      vertex 3.81478 0.810856 10
    endloop
  endfacet
  facet normal 0 0 1
    outer loop
      vertex 0.463525 1.42658 10
      vertex 1.21352 0.881678 10
      vertex 3.56283 1.58627 10
    endloop
  endfacet
  facet normal 0 0 1
    outer loop
      vertex 2.60961 2.89826 10
      vertex -3.81478 0.810856 10
      vertex 3.15517 2.29236 10
    endloop
  endfacet
  facet normal 0 0 1
    outer loop
      vertex 1.95 3.3775 10
      vertex -3.81478 0.810856 10
      vertex 2.60961 2.89826 10
    endloop
  endfacet
  facet normal 0 0 1
    outer loop
      vertex 1.20517 3.70912 10
      vertex -3.81478 0.810856 10
      vertex 1.95 3.3775 10
    endloop
  endfacet
  facet normal 0 0 1
    outer loop
      vertex 0.407661 3.87863 10
      vertex -3.81478 0.810856 10
      vertex 1.20517 3.70912 10
    endloop
  endfacet
  facet normal 0 0 1
    outer loop
      vertex -0.407661 3.87863 10
      vertex -3.81478 0.810856 10
      vertex 0.407661 3.87863 10
    endloop
  endfacet
  facet normal 0 0 1
    outer loop
      vertex -1.20517 3.70912 10
      vertex -3.81478 0.810856 10
      vertex -0.407661 3.87863 10
    endloop
  endfacet
  facet normal 0 0 1
    outer loop
      vertex -1.95 3.3775 10
      vertex -3.81478 0.810856 10
      vertex -1.20517 3.70912 10
    endloop
  endfacet
  facet normal 0 0 1
    outer loop
      vertex -2.60961 2.89826 10
      vertex -3.81478 0.810856 10
      vertex -1.95 3.3775 10
    endloop
  endfacet
  facet normal 0 0 1
    outer loop
      vertex -3.15517 2.29236 10
      vertex -3.81478 0.810856 10
      vertex -2.60961 2.89826 10
    endloop
  endfacet
  facet normal 0 0 1
    outer loop
      vertex -3.56283 1.58627 10
      vertex -3.81478 0.810856 10
      vertex -3.15517 2.29236 10
    endloop
  endfacet
  facet normal 0 0 1
    outer loop
      vertex -0.463525 -1.42658 10
      vertex -1.21352 -0.881678 10
      vertex 1.95 -3.3775 10
    endloop
  endfacet
  facet normal 0 0 1
    outer loop
      vertex 0.463525 -1.42658 10
      vertex -0.463525 -1.42658 10
      vertex 2.60961 -2.89826 10
    endloop
  endfacet
  facet normal 0 0 1
    outer loop
      vertex 1.5 0 10
      vertex 3.56283 -1.58627 10
      vertex 3.81478 -0.810856 10
    endloop
  endfacet
  facet normal 0 0 1
    outer loop
      vertex 1.21352 0.881678 10
      vertex 1.5 0 10
      vertex 3.9 0 10
    endloop
  endfacet
  facet normal 0 0 1
    outer loop
      vertex 3.15517 2.29236 10
      vertex -0.463525 1.42658 10
      vertex 3.56283 1.58627 10
    endloop
  endfacet
  facet normal 0 0 1
    outer loop
      vertex 3.15517 2.29236 10
      vertex -3.81478 0.810856 10
      vertex -0.463525 1.42658 10
    endloop
  endfacet
  facet normal 0 0 1
    outer loop
      vertex -0.463525 1.42658 10
      vertex 0.463525 1.42658 10
      vertex 3.56283 1.58627 10
    endloop
  endfacet
  facet normal 0 0 1
    outer loop
      vertex 3.56283 1.58627 10
      vertex 1.21352 0.881678 10
      vertex 3.81478 0.810856 10
    endloop
  endfacet
  facet normal 0 0 1
    outer loop
      vertex 3.9 0 10
      vertex 1.5 0 10
      vertex 3.81478 -0.810856 10
    endloop
  endfacet
  facet normal 0 0 1
    outer loop
      vertex -1.21352 0.881678 10
      vertex -0.463525 1.42658 10
      vertex -3.81478 0.810856 10
    endloop
  endfacet
  facet normal 0 0 1
    outer loop
      vertex 3.56283 -1.58627 10
      vertex 1.21352 -0.881678 10
      vertex 3.15517 -2.29236 10
    endloop
  endfacet
  facet normal 0 0 1
    outer loop
      vertex 3.15517 -2.29236 10
      vertex 0.463525 -1.42658 10
      vertex 2.60961 -2.89826 10
    endloop
  endfacet
  facet normal 0 0 1
    outer loop
      vertex 2.60961 -2.89826 10
      vertex -0.463525 -1.42658 10
      vertex 1.95 -3.3775 10
    endloop
  endfacet
  facet normal 0 0 1
    outer loop
      vertex -1.21352 -0.881678 10
      vertex -1.5 0 10
      vertex -3.81478 0.810856 10
    endloop
  endfacet
  facet normal 0 0 1
    outer loop
      vertex 1.21352 -0.881678 10
      vertex 0.463525 -1.42658 10
      vertex 3.15517 -2.29236 10
    endloop
  endfacet
  facet normal 0 0 1
    outer loop
      vertex -1.5 0 10
      vertex -1.21352 0.881678 10
      vertex -3.81478 0.810856 10
    endloop
  endfacet
endsolid OpenSCAD_Model
