solid OpenSCAD_Model
  facet normal -1 0 0
    outer loop
      vertex 25 0 0
      vertex 25 0 3
      vertex 25 16.6667 0
    endloop
  endfacet
  facet normal -1 0 0
    outer loop
      vertex 25 16.6667 0
      vertex 25 0 3
      vertex 25 16.6667 3
    endloop
  endfacet
  facet normal 0 -1 0
    outer loop
      vertex 25 0 3
      vertex 55 0 2.22045e-015
      vertex 55 0 3
    endloop
  endfacet
  facet normal 0 -1 0
    outer loop
      vertex 25 0 0
      vertex 55 0 2.22045e-015
      vertex 25 0 3
    endloop
  endfacet
  facet normal 0 -1 0
    outer loop
      vertex 65 0 0
      vertex 55 0 2.22045e-015
      vertex 25 0 0
    endloop
  endfacet
  facet normal 0 0 -1
    outer loop
      vertex 31.7971 15.2748 0
      vertex 25 16.6667 0
      vertex 31.0879 16.6667 0
    endloop
  endfacet
  facet normal 0 0 -1
    outer loop
      vertex 30.2908 6.41435 0
      vertex 25 16.6667 0
      vertex 36.7748 10.2971 0
    endloop
  endfacet
  facet normal 0 0 -1
    outer loop
      vertex 31.1658 3.72138 0
      vertex 36.7748 10.2971 0
      vertex 43.0471 7.10123 0
    endloop
  endfacet
  facet normal 0 0 -1
    outer loop
      vertex 25 0 0
      vertex 43.0471 7.10123 0
      vertex 65 0 0
    endloop
  endfacet
  facet normal 0 0 -1
    outer loop
      vertex 50 6 0
      vertex 65 0 0
      vertex 43.0471 7.10123 0
    endloop
  endfacet
  facet normal 0 0 -1
    outer loop
      vertex 56.9529 7.10123 0
      vertex 65 0 0
      vertex 50 6 0
    endloop
  endfacet
  facet normal 0 0 -1
    outer loop
      vertex 29.2092 3.08565 0
      vertex 25 0 0
      vertex 28.7214 3.33422 0
    endloop
  endfacet
  facet normal 0 0 -1
    outer loop
      vertex 65 0 0
      vertex 56.9529 7.10123 0
      vertex 63.2252 10.2971 0
    endloop
  endfacet
  facet normal 0 0 -1
    outer loop
      vertex 63.2252 10.2971 0
      vertex 68.2029 15.2748 0
      vertex 65 0 0
    endloop
  endfacet
  facet normal 0 0 -1
    outer loop
      vertex 68.2029 15.2748 0
      vertex 68.9121 16.6667 0
      vertex 65 0 0
    endloop
  endfacet
  facet normal 0 0 -1
    outer loop
      vertex 65 0 0
      vertex 68.9121 16.6667 0
      vertex 75 16.6667 0
    endloop
  endfacet
  facet normal 0 0 -1
    outer loop
      vertex 71.9143 4.20922 0
      vertex 75 16.6667 0
      vertex 75 0 0
    endloop
  endfacet
  facet normal 0 0 -1
    outer loop
      vertex 25 0 0
      vertex 25 16.6667 0
      vertex 28 4.75 0
    endloop
  endfacet
  facet normal 0 0 -1
    outer loop
      vertex 25 0 0
      vertex 28 4.75 0
      vertex 28.0857 4.20922 0
    endloop
  endfacet
  facet normal 0 0 -1
    outer loop
      vertex 25 0 0
      vertex 28.0857 4.20922 0
      vertex 28.3342 3.72138 0
    endloop
  endfacet
  facet normal 0 0 -1
    outer loop
      vertex 25 0 0
      vertex 28.3342 3.72138 0
      vertex 28.7214 3.33422 0
    endloop
  endfacet
  facet normal 0 0 -1
    outer loop
      vertex 31.1658 5.77862 0
      vertex 36.7748 10.2971 0
      vertex 31.4143 5.29078 0
    endloop
  endfacet
  facet normal 0 0 -1
    outer loop
      vertex 25 0 0
      vertex 29.2092 3.08565 0
      vertex 29.75 3 0
    endloop
  endfacet
  facet normal 0 0 -1
    outer loop
      vertex 25 0 0
      vertex 29.75 3 0
      vertex 30.2908 3.08565 0
    endloop
  endfacet
  facet normal 0 0 -1
    outer loop
      vertex 25 0 0
      vertex 30.2908 3.08565 0
      vertex 43.0471 7.10123 0
    endloop
  endfacet
  facet normal 0 0 -1
    outer loop
      vertex 31.1658 3.72138 0
      vertex 43.0471 7.10123 0
      vertex 30.7786 3.33422 0
    endloop
  endfacet
  facet normal 0 0 -1
    outer loop
      vertex 31.4143 4.20922 0
      vertex 36.7748 10.2971 0
      vertex 31.1658 3.72138 0
    endloop
  endfacet
  facet normal 0 0 -1
    outer loop
      vertex 31.4143 5.29078 0
      vertex 36.7748 10.2971 0
      vertex 31.5 4.75 0
    endloop
  endfacet
  facet normal 0 0 -1
    outer loop
      vertex 31.5 4.75 0
      vertex 36.7748 10.2971 0
      vertex 31.4143 4.20922 0
    endloop
  endfacet
  facet normal 0 0 -1
    outer loop
      vertex 30.7786 3.33422 0
      vertex 43.0471 7.10123 0
      vertex 30.2908 3.08565 0
    endloop
  endfacet
  facet normal 0 0 -1
    outer loop
      vertex 30.7786 6.16578 0
      vertex 36.7748 10.2971 0
      vertex 31.1658 5.77862 0
    endloop
  endfacet
  facet normal 0 0 -1
    outer loop
      vertex 30.2908 6.41435 0
      vertex 36.7748 10.2971 0
      vertex 30.7786 6.16578 0
    endloop
  endfacet
  facet normal 0 0 -1
    outer loop
      vertex 29.75 6.5 0
      vertex 25 16.6667 0
      vertex 30.2908 6.41435 0
    endloop
  endfacet
  facet normal 0 0 -1
    outer loop
      vertex 68.5 4.75 0
      vertex 65 0 0
      vertex 68.5857 5.29078 0
    endloop
  endfacet
  facet normal 0 0 -1
    outer loop
      vertex 29.2092 6.41435 0
      vertex 25 16.6667 0
      vertex 29.75 6.5 0
    endloop
  endfacet
  facet normal 0 0 -1
    outer loop
      vertex 28.7214 6.16578 0
      vertex 25 16.6667 0
      vertex 29.2092 6.41435 0
    endloop
  endfacet
  facet normal 0 0 -1
    outer loop
      vertex 28.3342 5.77862 0
      vertex 25 16.6667 0
      vertex 28.7214 6.16578 0
    endloop
  endfacet
  facet normal 0 0 -1
    outer loop
      vertex 28.0857 5.29078 0
      vertex 25 16.6667 0
      vertex 28.3342 5.77862 0
    endloop
  endfacet
  facet normal 0 0 -1
    outer loop
      vertex 28 4.75 0
      vertex 25 16.6667 0
      vertex 28.0857 5.29078 0
    endloop
  endfacet
  facet normal 0 0 -1
    outer loop
      vertex 65 0 0
      vertex 68.5 4.75 0
      vertex 68.5857 4.20922 0
    endloop
  endfacet
  facet normal 0 0 -1
    outer loop
      vertex 65 0 0
      vertex 68.5857 4.20922 0
      vertex 68.8342 3.72138 0
    endloop
  endfacet
  facet normal 0 0 -1
    outer loop
      vertex 65 0 0
      vertex 68.8342 3.72138 0
      vertex 69.2214 3.33422 0
    endloop
  endfacet
  facet normal 0 0 -1
    outer loop
      vertex 65 0 0
      vertex 69.2214 3.33422 0
      vertex 75 0 0
    endloop
  endfacet
  facet normal 0 0 -1
    outer loop
      vertex 69.2214 3.33422 0
      vertex 69.7092 3.08565 0
      vertex 75 0 0
    endloop
  endfacet
  facet normal 0 0 -1
    outer loop
      vertex 70.7908 3.08565 0
      vertex 75 0 0
      vertex 70.25 3 0
    endloop
  endfacet
  facet normal 0 0 -1
    outer loop
      vertex 69.2214 6.16578 0
      vertex 75 16.6667 0
      vertex 69.7092 6.41435 0
    endloop
  endfacet
  facet normal 0 0 -1
    outer loop
      vertex 71.9143 5.29078 0
      vertex 75 16.6667 0
      vertex 72 4.75 0
    endloop
  endfacet
  facet normal 0 0 -1
    outer loop
      vertex 71.2786 6.16578 0
      vertex 75 16.6667 0
      vertex 71.6658 5.77862 0
    endloop
  endfacet
  facet normal 0 0 -1
    outer loop
      vertex 70.7908 3.08565 0
      vertex 71.2786 3.33422 0
      vertex 75 0 0
    endloop
  endfacet
  facet normal 0 0 -1
    outer loop
      vertex 71.6658 5.77862 0
      vertex 75 16.6667 0
      vertex 71.9143 5.29078 0
    endloop
  endfacet
  facet normal 0 0 -1
    outer loop
      vertex 71.2786 3.33422 0
      vertex 71.6658 3.72138 0
      vertex 75 0 0
    endloop
  endfacet
  facet normal 0 0 -1
    outer loop
      vertex 72 4.75 0
      vertex 75 16.6667 0
      vertex 71.9143 4.20922 0
    endloop
  endfacet
  facet normal 0 0 -1
    outer loop
      vertex 71.6658 3.72138 0
      vertex 71.9143 4.20922 0
      vertex 75 0 0
    endloop
  endfacet
  facet normal 0 0 -1
    outer loop
      vertex 70.7908 6.41435 0
      vertex 75 16.6667 0
      vertex 71.2786 6.16578 0
    endloop
  endfacet
  facet normal 0 0 -1
    outer loop
      vertex 70.25 6.5 0
      vertex 75 16.6667 0
      vertex 70.7908 6.41435 0
    endloop
  endfacet
  facet normal 0 0 -1
    outer loop
      vertex 69.7092 6.41435 0
      vertex 75 16.6667 0
      vertex 70.25 6.5 0
    endloop
  endfacet
  facet normal 0 0 -1
    outer loop
      vertex 68.8342 5.77862 0
      vertex 75 16.6667 0
      vertex 69.2214 6.16578 0
    endloop
  endfacet
  facet normal 0 0 -1
    outer loop
      vertex 70.25 3 0
      vertex 75 0 0
      vertex 69.7092 3.08565 0
    endloop
  endfacet
  facet normal 0 0 -1
    outer loop
      vertex 65 0 0
      vertex 75 16.6667 0
      vertex 68.8342 5.77862 0
    endloop
  endfacet
  facet normal 0 0 -1
    outer loop
      vertex 65 0 0
      vertex 68.8342 5.77862 0
      vertex 68.5857 5.29078 0
    endloop
  endfacet
  facet normal 0 0 -1
    outer loop
      vertex 36.7748 10.2971 0
      vertex 25 16.6667 0
      vertex 31.7971 15.2748 0
    endloop
  endfacet
  facet normal 0 1 0
    outer loop
      vertex 25 16.6667 0
      vertex 25 16.6667 3
      vertex 31.0879 16.6667 0
    endloop
  endfacet
  facet normal 0 1 0
    outer loop
      vertex 31.0879 16.6667 0
      vertex 25 16.6667 3
      vertex 31.0879 16.6667 3
    endloop
  endfacet
  facet normal 0 0 1
    outer loop
      vertex 30.7786 3.33422 3
      vertex 25 0 3
      vertex 55 0 3
    endloop
  endfacet
  facet normal 0 0 1
    outer loop
      vertex 36.7748 10.2971 3
      vertex 25 16.6667 3
      vertex 55 0 3
    endloop
  endfacet
  facet normal 0 0 1
    outer loop
      vertex 75 16.6667 3
      vertex 68.9121 16.6667 3
      vertex 75 0 3
    endloop
  endfacet
  facet normal 0 0 1
    outer loop
      vertex 68.9121 16.6667 3
      vertex 68.2029 15.2748 3
      vertex 75 0 3
    endloop
  endfacet
  facet normal 0 0 1
    outer loop
      vertex 71.9143 5.29078 3
      vertex 72 4.75 3
      vertex 75 0 3
    endloop
  endfacet
  facet normal 0 0 1
    outer loop
      vertex 30.2908 6.41435 3
      vertex 30.7786 6.16578 3
      vertex 55 0 3
    endloop
  endfacet
  facet normal 0 0 1
    outer loop
      vertex 69.7092 3.08565 3
      vertex 56.9529 7.10123 3
      vertex 75 0 3
    endloop
  endfacet
  facet normal 0 0 1
    outer loop
      vertex 65 0 3
      vertex 50 6 3
      vertex 55 0 3
    endloop
  endfacet
  facet normal 0 0 1
    outer loop
      vertex 50 6 3
      vertex 43.0471 7.10123 3
      vertex 55 0 3
    endloop
  endfacet
  facet normal 0 0 1
    outer loop
      vertex 31.7971 15.2748 3
      vertex 31.0879 16.6667 3
      vertex 25 16.6667 3
    endloop
  endfacet
  facet normal 0 0 1
    outer loop
      vertex 43.0471 7.10123 3
      vertex 36.7748 10.2971 3
      vertex 55 0 3
    endloop
  endfacet
  facet normal 0 0 1
    outer loop
      vertex 31.4143 4.20922 3
      vertex 31.1658 3.72138 3
      vertex 55 0 3
    endloop
  endfacet
  facet normal 0 0 1
    outer loop
      vertex 30.2908 3.08565 3
      vertex 29.75 3 3
      vertex 25 0 3
    endloop
  endfacet
  facet normal 0 0 1
    outer loop
      vertex 25 16.6667 3
      vertex 25 0 3
      vertex 28.0857 4.20922 3
    endloop
  endfacet
  facet normal 0 0 1
    outer loop
      vertex 68.5857 5.29078 3
      vertex 68.8342 5.77862 3
      vertex 63.2252 10.2971 3
    endloop
  endfacet
  facet normal 0 0 1
    outer loop
      vertex 25 16.6667 3
      vertex 28.0857 4.20922 3
      vertex 28 4.75 3
    endloop
  endfacet
  facet normal 0 0 1
    outer loop
      vertex 25 16.6667 3
      vertex 28 4.75 3
      vertex 28.0857 5.29078 3
    endloop
  endfacet
  facet normal 0 0 1
    outer loop
      vertex 31.5 4.75 3
      vertex 31.4143 4.20922 3
      vertex 55 0 3
    endloop
  endfacet
  facet normal 0 0 1
    outer loop
      vertex 25 16.6667 3
      vertex 28.0857 5.29078 3
      vertex 28.3342 5.77862 3
    endloop
  endfacet
  facet normal 0 0 1
    outer loop
      vertex 31.4143 5.29078 3
      vertex 31.5 4.75 3
      vertex 55 0 3
    endloop
  endfacet
  facet normal 0 0 1
    outer loop
      vertex 25 16.6667 3
      vertex 28.3342 5.77862 3
      vertex 28.7214 6.16578 3
    endloop
  endfacet
  facet normal 0 0 1
    outer loop
      vertex 31.1658 5.77862 3
      vertex 31.4143 5.29078 3
      vertex 55 0 3
    endloop
  endfacet
  facet normal 0 0 1
    outer loop
      vertex 25 16.6667 3
      vertex 28.7214 6.16578 3
      vertex 29.2092 6.41435 3
    endloop
  endfacet
  facet normal 0 0 1
    outer loop
      vertex 30.7786 6.16578 3
      vertex 31.1658 5.77862 3
      vertex 55 0 3
    endloop
  endfacet
  facet normal 0 0 1
    outer loop
      vertex 25 16.6667 3
      vertex 29.2092 6.41435 3
      vertex 29.75 6.5 3
    endloop
  endfacet
  facet normal 0 0 1
    outer loop
      vertex 25 16.6667 3
      vertex 30.2908 6.41435 3
      vertex 55 0 3
    endloop
  endfacet
  facet normal 0 0 1
    outer loop
      vertex 25 16.6667 3
      vertex 29.75 6.5 3
      vertex 30.2908 6.41435 3
    endloop
  endfacet
  facet normal 0 0 1
    outer loop
      vertex 31.1658 3.72138 3
      vertex 30.7786 3.33422 3
      vertex 55 0 3
    endloop
  endfacet
  facet normal 0 0 1
    outer loop
      vertex 30.2908 3.08565 3
      vertex 25 0 3
      vertex 30.7786 3.33422 3
    endloop
  endfacet
  facet normal 0 0 1
    outer loop
      vertex 29.2092 3.08565 3
      vertex 25 0 3
      vertex 29.75 3 3
    endloop
  endfacet
  facet normal 0 0 1
    outer loop
      vertex 28.7214 3.33422 3
      vertex 25 0 3
      vertex 29.2092 3.08565 3
    endloop
  endfacet
  facet normal 0 0 1
    outer loop
      vertex 28.3342 3.72138 3
      vertex 25 0 3
      vertex 28.7214 3.33422 3
    endloop
  endfacet
  facet normal 0 0 1
    outer loop
      vertex 28.0857 4.20922 3
      vertex 25 0 3
      vertex 28.3342 3.72138 3
    endloop
  endfacet
  facet normal 0 0 1
    outer loop
      vertex 69.7092 3.08565 3
      vertex 69.2214 3.33422 3
      vertex 56.9529 7.10123 3
    endloop
  endfacet
  facet normal 0 0 1
    outer loop
      vertex 63.2252 10.2971 3
      vertex 56.9529 7.10123 3
      vertex 68.5857 4.20922 3
    endloop
  endfacet
  facet normal 0 0 1
    outer loop
      vertex 63.2252 10.2971 3
      vertex 68.5857 4.20922 3
      vertex 68.5 4.75 3
    endloop
  endfacet
  facet normal 0 0 1
    outer loop
      vertex 72 4.75 3
      vertex 71.9143 4.20922 3
      vertex 75 0 3
    endloop
  endfacet
  facet normal 0 0 1
    outer loop
      vertex 63.2252 10.2971 3
      vertex 68.5 4.75 3
      vertex 68.5857 5.29078 3
    endloop
  endfacet
  facet normal 0 0 1
    outer loop
      vertex 71.2786 3.33422 3
      vertex 70.7908 3.08565 3
      vertex 75 0 3
    endloop
  endfacet
  facet normal 0 0 1
    outer loop
      vertex 68.2029 15.2748 3
      vertex 63.2252 10.2971 3
      vertex 68.8342 5.77862 3
    endloop
  endfacet
  facet normal 0 0 1
    outer loop
      vertex 70.7908 3.08565 3
      vertex 70.25 3 3
      vertex 75 0 3
    endloop
  endfacet
  facet normal 0 0 1
    outer loop
      vertex 68.2029 15.2748 3
      vertex 68.8342 5.77862 3
      vertex 69.2214 6.16578 3
    endloop
  endfacet
  facet normal 0 0 1
    outer loop
      vertex 68.2029 15.2748 3
      vertex 69.2214 6.16578 3
      vertex 69.7092 6.41435 3
    endloop
  endfacet
  facet normal 0 0 1
    outer loop
      vertex 71.9143 4.20922 3
      vertex 71.6658 3.72138 3
      vertex 75 0 3
    endloop
  endfacet
  facet normal 0 0 1
    outer loop
      vertex 68.2029 15.2748 3
      vertex 69.7092 6.41435 3
      vertex 70.25 6.5 3
    endloop
  endfacet
  facet normal 0 0 1
    outer loop
      vertex 71.6658 3.72138 3
      vertex 71.2786 3.33422 3
      vertex 75 0 3
    endloop
  endfacet
  facet normal 0 0 1
    outer loop
      vertex 68.2029 15.2748 3
      vertex 70.25 6.5 3
      vertex 70.7908 6.41435 3
    endloop
  endfacet
  facet normal 0 0 1
    outer loop
      vertex 68.2029 15.2748 3
      vertex 70.7908 6.41435 3
      vertex 71.2786 6.16578 3
    endloop
  endfacet
  facet normal 0 0 1
    outer loop
      vertex 68.2029 15.2748 3
      vertex 71.6658 5.77862 3
      vertex 75 0 3
    endloop
  endfacet
  facet normal 0 0 1
    outer loop
      vertex 68.2029 15.2748 3
      vertex 71.2786 6.16578 3
      vertex 71.6658 5.77862 3
    endloop
  endfacet
  facet normal 0 0 1
    outer loop
      vertex 71.6658 5.77862 3
      vertex 71.9143 5.29078 3
      vertex 75 0 3
    endloop
  endfacet
  facet normal 0 0 1
    outer loop
      vertex 70.25 3 3
      vertex 69.7092 3.08565 3
      vertex 75 0 3
    endloop
  endfacet
  facet normal 0 0 1
    outer loop
      vertex 68.8342 3.72138 3
      vertex 56.9529 7.10123 3
      vertex 69.2214 3.33422 3
    endloop
  endfacet
  facet normal 0 0 1
    outer loop
      vertex 68.5857 4.20922 3
      vertex 56.9529 7.10123 3
      vertex 68.8342 3.72138 3
    endloop
  endfacet
  facet normal 0 0 1
    outer loop
      vertex 56.9529 7.10123 3
      vertex 65 0 3
      vertex 75 0 3
    endloop
  endfacet
  facet normal 0 0 1
    outer loop
      vertex 56.9529 7.10123 3
      vertex 50 6 3
      vertex 65 0 3
    endloop
  endfacet
  facet normal 0 0 1
    outer loop
      vertex 36.7748 10.2971 3
      vertex 31.7971 15.2748 3
      vertex 25 16.6667 3
    endloop
  endfacet
  facet normal -2.22045e-016 0 -1
    outer loop
      vertex 55 -9 2.22045e-015
      vertex 55 0 2.22045e-015
      vertex 65 -9 0
    endloop
  endfacet
  facet normal -2.22045e-016 0 -1
    outer loop
      vertex 65 -9 0
      vertex 55 0 2.22045e-015
      vertex 65 0 0
    endloop
  endfacet
  facet normal 1 0 -1.77321e-016
    outer loop
      vertex 65 -10.2361 0.195774
      vertex 65 -9 0
      vertex 65 0 0
    endloop
  endfacet
  facet normal 1 0 -1.77321e-016
    outer loop
      vertex 65 -5.15838 3
      vertex 65 -10.2361 0.195774
      vertex 65 0 3
    endloop
  endfacet
  facet normal 1 0 -1.77321e-016
    outer loop
      vertex 65 0 3
      vertex 65 -10.2361 0.195774
      vertex 65 0 0
    endloop
  endfacet
  facet normal 1 0 -1.77321e-016
    outer loop
      vertex 65 -5 4
      vertex 65 -10.2361 0.195774
      vertex 65 -5.15838 3
    endloop
  endfacet
  facet normal 1 0 -1.77321e-016
    outer loop
      vertex 65 -5.19577 5.23607
      vertex 65 -10.2361 0.195774
      vertex 65 -5 4
    endloop
  endfacet
  facet normal 1 0 -1.77321e-016
    outer loop
      vertex 65 -7.58422 2.97138
      vertex 65 -10.2361 0.195774
      vertex 65 -5.19577 5.23607
    endloop
  endfacet
  facet normal 1 0 -1.77321e-016
    outer loop
      vertex 65 -9 5.75
      vertex 65 -8.45922 5.66435
      vertex 65 -7.76393 7.80423
    endloop
  endfacet
  facet normal 1 0 -1.77321e-016
    outer loop
      vertex 65 -12.2361 6.35114
      vertex 65 -10.2361 0.195774
      vertex 65 -11.3511 7.23607
    endloop
  endfacet
  facet normal 1 0 -1.77321e-016
    outer loop
      vertex 65 -12.8042 5.23607
      vertex 65 -10.2361 0.195774
      vertex 65 -12.2361 6.35114
    endloop
  endfacet
  facet normal 1 0 -1.77321e-016
    outer loop
      vertex 65 -13 4
      vertex 65 -10.2361 0.195774
      vertex 65 -12.8042 5.23607
    endloop
  endfacet
  facet normal 1 0 -1.77321e-016
    outer loop
      vertex 65 -12.8042 2.76393
      vertex 65 -10.2361 0.195774
      vertex 65 -13 4
    endloop
  endfacet
  facet normal 1 0 -1.77321e-016
    outer loop
      vertex 65 -12.2361 1.64886
      vertex 65 -10.2361 0.195774
      vertex 65 -12.8042 2.76393
    endloop
  endfacet
  facet normal 1 0 -1.77321e-016
    outer loop
      vertex 65 -11.3511 0.763932
      vertex 65 -10.2361 0.195774
      vertex 65 -12.2361 1.64886
    endloop
  endfacet
  facet normal 1 0 -1.77321e-016
    outer loop
      vertex 65 -7.97138 2.58422
      vertex 65 -8.45922 2.33565
      vertex 65 -10.2361 0.195774
    endloop
  endfacet
  facet normal 1 0 -1.77321e-016
    outer loop
      vertex 65 -10.0286 2.58422
      vertex 65 -10.4158 2.97138
      vertex 65 -10.2361 0.195774
    endloop
  endfacet
  facet normal 1 0 -1.77321e-016
    outer loop
      vertex 65 -7.97138 5.41578
      vertex 65 -7.58422 5.02862
      vertex 65 -6.64886 7.23607
    endloop
  endfacet
  facet normal 1 0 -1.77321e-016
    outer loop
      vertex 65 -10.75 4
      vertex 65 -10.6643 4.54078
      vertex 65 -11.3511 7.23607
    endloop
  endfacet
  facet normal 1 0 -1.77321e-016
    outer loop
      vertex 65 -9.54078 5.66435
      vertex 65 -9 5.75
      vertex 65 -9 8
    endloop
  endfacet
  facet normal 1 0 -1.77321e-016
    outer loop
      vertex 65 -10.6643 3.45922
      vertex 65 -10.2361 0.195774
      vertex 65 -10.4158 2.97138
    endloop
  endfacet
  facet normal 1 0 -1.77321e-016
    outer loop
      vertex 65 -11.3511 7.23607
      vertex 65 -10.2361 0.195774
      vertex 65 -10.6643 3.45922
    endloop
  endfacet
  facet normal 1 0 -1.77321e-016
    outer loop
      vertex 65 -11.3511 7.23607
      vertex 65 -10.6643 3.45922
      vertex 65 -10.75 4
    endloop
  endfacet
  facet normal 1 0 -1.77321e-016
    outer loop
      vertex 65 -11.3511 7.23607
      vertex 65 -10.6643 4.54078
      vertex 65 -10.2361 7.80423
    endloop
  endfacet
  facet normal 1 0 -1.77321e-016
    outer loop
      vertex 65 -10.6643 4.54078
      vertex 65 -10.4158 5.02862
      vertex 65 -10.2361 7.80423
    endloop
  endfacet
  facet normal 1 0 -1.77321e-016
    outer loop
      vertex 65 -10.2361 7.80423
      vertex 65 -10.0286 5.41578
      vertex 65 -9 8
    endloop
  endfacet
  facet normal 1 0 -1.77321e-016
    outer loop
      vertex 65 -10.0286 5.41578
      vertex 65 -9.54078 5.66435
      vertex 65 -9 8
    endloop
  endfacet
  facet normal 1 0 -1.77321e-016
    outer loop
      vertex 65 -9 8
      vertex 65 -9 5.75
      vertex 65 -7.76393 7.80423
    endloop
  endfacet
  facet normal 1 0 -1.77321e-016
    outer loop
      vertex 65 -7.76393 7.80423
      vertex 65 -8.45922 5.66435
      vertex 65 -6.64886 7.23607
    endloop
  endfacet
  facet normal 1 0 -1.77321e-016
    outer loop
      vertex 65 -9.54078 2.33565
      vertex 65 -10.0286 2.58422
      vertex 65 -10.2361 0.195774
    endloop
  endfacet
  facet normal 1 0 -1.77321e-016
    outer loop
      vertex 65 -8.45922 5.66435
      vertex 65 -7.97138 5.41578
      vertex 65 -6.64886 7.23607
    endloop
  endfacet
  facet normal 1 0 -1.77321e-016
    outer loop
      vertex 65 -10.4158 5.02862
      vertex 65 -10.0286 5.41578
      vertex 65 -10.2361 7.80423
    endloop
  endfacet
  facet normal 1 0 -1.77321e-016
    outer loop
      vertex 65 -6.64886 7.23607
      vertex 65 -7.58422 5.02862
      vertex 65 -5.76393 6.35114
    endloop
  endfacet
  facet normal 1 0 -1.77321e-016
    outer loop
      vertex 65 -7.58422 5.02862
      vertex 65 -7.33565 4.54078
      vertex 65 -5.76393 6.35114
    endloop
  endfacet
  facet normal 1 0 -1.77321e-016
    outer loop
      vertex 65 -5.76393 6.35114
      vertex 65 -7.25 4
      vertex 65 -5.19577 5.23607
    endloop
  endfacet
  facet normal 1 0 -1.77321e-016
    outer loop
      vertex 65 -7.25 4
      vertex 65 -7.33565 3.45922
      vertex 65 -5.19577 5.23607
    endloop
  endfacet
  facet normal 1 0 -1.77321e-016
    outer loop
      vertex 65 -7.33565 3.45922
      vertex 65 -7.58422 2.97138
      vertex 65 -5.19577 5.23607
    endloop
  endfacet
  facet normal 1 0 -1.77321e-016
    outer loop
      vertex 65 -7.97138 2.58422
      vertex 65 -10.2361 0.195774
      vertex 65 -7.58422 2.97138
    endloop
  endfacet
  facet normal 1 0 -1.77321e-016
    outer loop
      vertex 65 -8.45922 2.33565
      vertex 65 -9 2.25
      vertex 65 -10.2361 0.195774
    endloop
  endfacet
  facet normal 1 0 -1.77321e-016
    outer loop
      vertex 65 -7.33565 4.54078
      vertex 65 -7.25 4
      vertex 65 -5.76393 6.35114
    endloop
  endfacet
  facet normal 1 0 -1.77321e-016
    outer loop
      vertex 65 -9 2.25
      vertex 65 -9.54078 2.33565
      vertex 65 -10.2361 0.195774
    endloop
  endfacet
  facet normal 0 -1 0
    outer loop
      vertex 75 0 0
      vertex 75 0 3
      vertex 65 0 3
    endloop
  endfacet
  facet normal 0 -1 0
    outer loop
      vertex 65 0 0
      vertex 75 0 0
      vertex 65 0 3
    endloop
  endfacet
  facet normal -1 0 1.77321e-016
    outer loop
      vertex 55 -9 2.22045e-015
      vertex 55 -10.2361 0.195774
      vertex 55 0 2.22045e-015
    endloop
  endfacet
  facet normal -1 0 1.77321e-016
    outer loop
      vertex 55 0 2.22045e-015
      vertex 55 -10.2361 0.195774
      vertex 55 -11.3511 0.763932
    endloop
  endfacet
  facet normal -1 0 1.77321e-016
    outer loop
      vertex 55 0 2.22045e-015
      vertex 55 -11.3511 0.763932
      vertex 55 -12.2361 1.64886
    endloop
  endfacet
  facet normal -1 0 1.77321e-016
    outer loop
      vertex 55 0 2.22045e-015
      vertex 55 -12.2361 1.64886
      vertex 55 -12.8042 2.76393
    endloop
  endfacet
  facet normal -1 0 1.77321e-016
    outer loop
      vertex 55 -9.54078 2.33565
      vertex 55 -12.8042 2.76393
      vertex 55 -13 4
    endloop
  endfacet
  facet normal -1 0 1.77321e-016
    outer loop
      vertex 55 -10.75 4
      vertex 55 -13 4
      vertex 55 -12.8042 5.23607
    endloop
  endfacet
  facet normal -1 0 1.77321e-016
    outer loop
      vertex 55 -10.4158 5.02862
      vertex 55 -12.8042 5.23607
      vertex 55 -12.2361 6.35114
    endloop
  endfacet
  facet normal -1 0 1.77321e-016
    outer loop
      vertex 55 -9.54078 5.66435
      vertex 55 -12.2361 6.35114
      vertex 55 -11.3511 7.23607
    endloop
  endfacet
  facet normal -1 0 1.77321e-016
    outer loop
      vertex 55 -7.97138 5.41578
      vertex 55 -11.3511 7.23607
      vertex 55 -10.2361 7.80423
    endloop
  endfacet
  facet normal -1 0 1.77321e-016
    outer loop
      vertex 55 -5 4
      vertex 55 -10.2361 7.80423
      vertex 55 -9 8
    endloop
  endfacet
  facet normal -1 0 1.77321e-016
    outer loop
      vertex 55 -5.19577 5.23607
      vertex 55 -7.76393 7.80423
      vertex 55 -6.64886 7.23607
    endloop
  endfacet
  facet normal -1 0 1.77321e-016
    outer loop
      vertex 55 -5 4
      vertex 55 -7.76393 7.80423
      vertex 55 -5.19577 5.23607
    endloop
  endfacet
  facet normal -1 0 1.77321e-016
    outer loop
      vertex 55 -9 5.75
      vertex 55 -11.3511 7.23607
      vertex 55 -8.45922 5.66435
    endloop
  endfacet
  facet normal -1 0 1.77321e-016
    outer loop
      vertex 55 -5 4
      vertex 55 -9 8
      vertex 55 -7.76393 7.80423
    endloop
  endfacet
  facet normal -1 0 1.77321e-016
    outer loop
      vertex 55 -7.58422 5.02862
      vertex 55 -5.15838 3
      vertex 55 -7.33565 4.54078
    endloop
  endfacet
  facet normal -1 0 1.77321e-016
    outer loop
      vertex 55 -7.97138 2.58422
      vertex 55 0 2.22045e-015
      vertex 55 -8.45922 2.33565
    endloop
  endfacet
  facet normal -1 0 1.77321e-016
    outer loop
      vertex 55 0 2.22045e-015
      vertex 55 -12.8042 2.76393
      vertex 55 -9.54078 2.33565
    endloop
  endfacet
  facet normal -1 0 1.77321e-016
    outer loop
      vertex 55 -10.0286 2.58422
      vertex 55 -9.54078 2.33565
      vertex 55 -13 4
    endloop
  endfacet
  facet normal -1 0 1.77321e-016
    outer loop
      vertex 55 0 2.22045e-015
      vertex 55 -9.54078 2.33565
      vertex 55 -9 2.25
    endloop
  endfacet
  facet normal -1 0 1.77321e-016
    outer loop
      vertex 55 0 2.22045e-015
      vertex 55 -9 2.25
      vertex 55 -8.45922 2.33565
    endloop
  endfacet
  facet normal -1 0 1.77321e-016
    outer loop
      vertex 55 -7.33565 3.45922
      vertex 55 0 2.22045e-015
      vertex 55 -7.58422 2.97138
    endloop
  endfacet
  facet normal -1 0 1.77321e-016
    outer loop
      vertex 55 0 2.22045e-015
      vertex 55 -7.97138 2.58422
      vertex 55 -7.58422 2.97138
    endloop
  endfacet
  facet normal -1 0 1.77321e-016
    outer loop
      vertex 55 -7.25 4
      vertex 55 0 2.22045e-015
      vertex 55 -7.33565 3.45922
    endloop
  endfacet
  facet normal -1 0 1.77321e-016
    outer loop
      vertex 55 -7.25 4
      vertex 55 -5.15838 3
      vertex 55 0 2.22045e-015
    endloop
  endfacet
  facet normal -1 0 1.77321e-016
    outer loop
      vertex 55 -7.33565 4.54078
      vertex 55 -5.15838 3
      vertex 55 -7.25 4
    endloop
  endfacet
  facet normal -1 0 1.77321e-016
    outer loop
      vertex 55 0 3
      vertex 55 0 2.22045e-015
      vertex 55 -5.15838 3
    endloop
  endfacet
  facet normal -1 0 1.77321e-016
    outer loop
      vertex 55 -9.54078 5.66435
      vertex 55 -11.3511 7.23607
      vertex 55 -9 5.75
    endloop
  endfacet
  facet normal -1 0 1.77321e-016
    outer loop
      vertex 55 -8.45922 5.66435
      vertex 55 -11.3511 7.23607
      vertex 55 -7.97138 5.41578
    endloop
  endfacet
  facet normal -1 0 1.77321e-016
    outer loop
      vertex 55 -7.58422 5.02862
      vertex 55 -7.97138 5.41578
      vertex 55 -10.2361 7.80423
    endloop
  endfacet
  facet normal -1 0 1.77321e-016
    outer loop
      vertex 55 -10.0286 5.41578
      vertex 55 -12.2361 6.35114
      vertex 55 -9.54078 5.66435
    endloop
  endfacet
  facet normal -1 0 1.77321e-016
    outer loop
      vertex 55 -10.4158 5.02862
      vertex 55 -12.2361 6.35114
      vertex 55 -10.0286 5.41578
    endloop
  endfacet
  facet normal -1 0 1.77321e-016
    outer loop
      vertex 55 -10.6643 4.54078
      vertex 55 -12.8042 5.23607
      vertex 55 -10.4158 5.02862
    endloop
  endfacet
  facet normal -1 0 1.77321e-016
    outer loop
      vertex 55 -10.75 4
      vertex 55 -12.8042 5.23607
      vertex 55 -10.6643 4.54078
    endloop
  endfacet
  facet normal -1 0 1.77321e-016
    outer loop
      vertex 55 -10.6643 3.45922
      vertex 55 -13 4
      vertex 55 -10.75 4
    endloop
  endfacet
  facet normal -1 0 1.77321e-016
    outer loop
      vertex 55 -10.4158 2.97138
      vertex 55 -13 4
      vertex 55 -10.6643 3.45922
    endloop
  endfacet
  facet normal -1 0 1.77321e-016
    outer loop
      vertex 55 -10.0286 2.58422
      vertex 55 -13 4
      vertex 55 -10.4158 2.97138
    endloop
  endfacet
  facet normal -1 0 1.77321e-016
    outer loop
      vertex 55 -5.19577 5.23607
      vertex 55 -6.64886 7.23607
      vertex 55 -5.76393 6.35114
    endloop
  endfacet
  facet normal -1 0 1.77321e-016
    outer loop
      vertex 55 -5.15838 3
      vertex 55 -7.58422 5.02862
      vertex 55 -10.2361 7.80423
    endloop
  endfacet
  facet normal -1 0 1.77321e-016
    outer loop
      vertex 55 -5.15838 3
      vertex 55 -10.2361 7.80423
      vertex 55 -5 4
    endloop
  endfacet
  facet normal 1 0 0
    outer loop
      vertex 75 0 3
      vertex 75 0 0
      vertex 75 16.6667 0
    endloop
  endfacet
  facet normal 1 0 0
    outer loop
      vertex 75 16.6667 3
      vertex 75 0 3
      vertex 75 16.6667 0
    endloop
  endfacet
  facet normal 0 1 0
    outer loop
      vertex 68.9121 16.6667 0
      vertex 68.9121 16.6667 3
      vertex 75 16.6667 0
    endloop
  endfacet
  facet normal 0 1 0
    outer loop
      vertex 75 16.6667 0
      vertex 68.9121 16.6667 3
      vertex 75 16.6667 3
    endloop
  endfacet
  facet normal -0.891006 0.453991 0
    outer loop
      vertex 68.9121 16.6667 3
      vertex 68.9121 16.6667 0
      vertex 68.2029 15.2748 3
    endloop
  endfacet
  facet normal -0.891006 0.453991 0
    outer loop
      vertex 68.2029 15.2748 3
      vertex 68.9121 16.6667 0
      vertex 68.2029 15.2748 0
    endloop
  endfacet
  facet normal -0.707107 0.707107 0
    outer loop
      vertex 68.2029 15.2748 3
      vertex 68.2029 15.2748 0
      vertex 63.2252 10.2971 3
    endloop
  endfacet
  facet normal -0.707107 0.707107 0
    outer loop
      vertex 63.2252 10.2971 3
      vertex 68.2029 15.2748 0
      vertex 63.2252 10.2971 0
    endloop
  endfacet
  facet normal -0.453991 0.891006 0
    outer loop
      vertex 63.2252 10.2971 3
      vertex 63.2252 10.2971 0
      vertex 56.9529 7.10123 3
    endloop
  endfacet
  facet normal -0.453991 0.891006 0
    outer loop
      vertex 56.9529 7.10123 3
      vertex 63.2252 10.2971 0
      vertex 56.9529 7.10123 0
    endloop
  endfacet
  facet normal -0.156434 0.987688 0
    outer loop
      vertex 56.9529 7.10123 3
      vertex 56.9529 7.10123 0
      vertex 50 6 3
    endloop
  endfacet
  facet normal -0.156434 0.987688 0
    outer loop
      vertex 50 6 3
      vertex 56.9529 7.10123 0
      vertex 50 6 0
    endloop
  endfacet
  facet normal 0.156434 0.987688 0
    outer loop
      vertex 50 6 3
      vertex 50 6 0
      vertex 43.0471 7.10123 3
    endloop
  endfacet
  facet normal 0.156434 0.987688 0
    outer loop
      vertex 43.0471 7.10123 3
      vertex 50 6 0
      vertex 43.0471 7.10123 0
    endloop
  endfacet
  facet normal 0.453991 0.891006 0
    outer loop
      vertex 43.0471 7.10123 3
      vertex 43.0471 7.10123 0
      vertex 36.7748 10.2971 3
    endloop
  endfacet
  facet normal 0.453991 0.891006 0
    outer loop
      vertex 36.7748 10.2971 3
      vertex 43.0471 7.10123 0
      vertex 36.7748 10.2971 0
    endloop
  endfacet
  facet normal 0.707107 0.707107 0
    outer loop
      vertex 36.7748 10.2971 3
      vertex 36.7748 10.2971 0
      vertex 31.7971 15.2748 3
    endloop
  endfacet
  facet normal 0.707107 0.707107 0
    outer loop
      vertex 31.7971 15.2748 3
      vertex 36.7748 10.2971 0
      vertex 31.7971 15.2748 0
    endloop
  endfacet
  facet normal 0.891006 0.453991 0
    outer loop
      vertex 31.0879 16.6667 3
      vertex 31.7971 15.2748 3
      vertex 31.7971 15.2748 0
    endloop
  endfacet
  facet normal 0.891006 0.453991 0
    outer loop
      vertex 31.0879 16.6667 0
      vertex 31.0879 16.6667 3
      vertex 31.7971 15.2748 0
    endloop
  endfacet
  facet normal 0.987688 -0.156434 0
    outer loop
      vertex 28.0857 5.29078 0
      vertex 28.0857 5.29078 3
      vertex 28 4.75 3
    endloop
  endfacet
  facet normal 0.987688 -0.156434 0
    outer loop
      vertex 28 4.75 0
      vertex 28.0857 5.29078 0
      vertex 28 4.75 3
    endloop
  endfacet
  facet normal 0.987688 0.156434 0
    outer loop
      vertex 28 4.75 3
      vertex 28.0857 4.20922 3
      vertex 28.0857 4.20922 0
    endloop
  endfacet
  facet normal 0.987688 0.156434 0
    outer loop
      vertex 28 4.75 0
      vertex 28 4.75 3
      vertex 28.0857 4.20922 0
    endloop
  endfacet
  facet normal 0.891006 -0.453991 0
    outer loop
      vertex 28.3342 5.77862 0
      vertex 28.3342 5.77862 3
      vertex 28.0857 5.29078 3
    endloop
  endfacet
  facet normal 0.891006 -0.453991 0
    outer loop
      vertex 28.0857 5.29078 0
      vertex 28.3342 5.77862 0
      vertex 28.0857 5.29078 3
    endloop
  endfacet
  facet normal 0.707107 -0.707107 0
    outer loop
      vertex 28.7214 6.16578 0
      vertex 28.7214 6.16578 3
      vertex 28.3342 5.77862 3
    endloop
  endfacet
  facet normal 0.707107 -0.707107 0
    outer loop
      vertex 28.3342 5.77862 0
      vertex 28.7214 6.16578 0
      vertex 28.3342 5.77862 3
    endloop
  endfacet
  facet normal 0.453991 -0.891006 0
    outer loop
      vertex 29.2092 6.41435 0
      vertex 29.2092 6.41435 3
      vertex 28.7214 6.16578 3
    endloop
  endfacet
  facet normal 0.453991 -0.891006 0
    outer loop
      vertex 28.7214 6.16578 0
      vertex 29.2092 6.41435 0
      vertex 28.7214 6.16578 3
    endloop
  endfacet
  facet normal 0.156434 -0.987688 0
    outer loop
      vertex 29.75 6.5 0
      vertex 29.75 6.5 3
      vertex 29.2092 6.41435 3
    endloop
  endfacet
  facet normal 0.156434 -0.987688 0
    outer loop
      vertex 29.2092 6.41435 0
      vertex 29.75 6.5 0
      vertex 29.2092 6.41435 3
    endloop
  endfacet
  facet normal -0.156434 -0.987688 0
    outer loop
      vertex 30.2908 6.41435 0
      vertex 30.2908 6.41435 3
      vertex 29.75 6.5 3
    endloop
  endfacet
  facet normal -0.156434 -0.987688 0
    outer loop
      vertex 29.75 6.5 0
      vertex 30.2908 6.41435 0
      vertex 29.75 6.5 3
    endloop
  endfacet
  facet normal -0.453991 -0.891006 0
    outer loop
      vertex 30.7786 6.16578 0
      vertex 30.7786 6.16578 3
      vertex 30.2908 6.41435 3
    endloop
  endfacet
  facet normal -0.453991 -0.891006 0
    outer loop
      vertex 30.2908 6.41435 0
      vertex 30.7786 6.16578 0
      vertex 30.2908 6.41435 3
    endloop
  endfacet
  facet normal -0.707107 -0.707107 0
    outer loop
      vertex 31.1658 5.77862 0
      vertex 31.1658 5.77862 3
      vertex 30.7786 6.16578 3
    endloop
  endfacet
  facet normal -0.707107 -0.707107 0
    outer loop
      vertex 30.7786 6.16578 0
      vertex 31.1658 5.77862 0
      vertex 30.7786 6.16578 3
    endloop
  endfacet
  facet normal -0.891006 -0.453991 0
    outer loop
      vertex 31.4143 5.29078 3
      vertex 31.1658 5.77862 3
      vertex 31.4143 5.29078 0
    endloop
  endfacet
  facet normal -0.891006 -0.453991 0
    outer loop
      vertex 31.4143 5.29078 0
      vertex 31.1658 5.77862 3
      vertex 31.1658 5.77862 0
    endloop
  endfacet
  facet normal -0.987688 -0.156434 0
    outer loop
      vertex 31.5 4.75 3
      vertex 31.4143 5.29078 3
      vertex 31.5 4.75 0
    endloop
  endfacet
  facet normal -0.987688 -0.156434 0
    outer loop
      vertex 31.5 4.75 0
      vertex 31.4143 5.29078 3
      vertex 31.4143 5.29078 0
    endloop
  endfacet
  facet normal -0.987688 0.156434 0
    outer loop
      vertex 31.5 4.75 3
      vertex 31.5 4.75 0
      vertex 31.4143 4.20922 3
    endloop
  endfacet
  facet normal -0.987688 0.156434 0
    outer loop
      vertex 31.4143 4.20922 3
      vertex 31.5 4.75 0
      vertex 31.4143 4.20922 0
    endloop
  endfacet
  facet normal -0.891006 0.453991 0
    outer loop
      vertex 31.4143 4.20922 3
      vertex 31.4143 4.20922 0
      vertex 31.1658 3.72138 3
    endloop
  endfacet
  facet normal -0.891006 0.453991 0
    outer loop
      vertex 31.1658 3.72138 3
      vertex 31.4143 4.20922 0
      vertex 31.1658 3.72138 0
    endloop
  endfacet
  facet normal -0.707107 0.707107 0
    outer loop
      vertex 31.1658 3.72138 3
      vertex 31.1658 3.72138 0
      vertex 30.7786 3.33422 3
    endloop
  endfacet
  facet normal -0.707107 0.707107 0
    outer loop
      vertex 30.7786 3.33422 3
      vertex 31.1658 3.72138 0
      vertex 30.7786 3.33422 0
    endloop
  endfacet
  facet normal -0.453991 0.891006 0
    outer loop
      vertex 30.7786 3.33422 3
      vertex 30.7786 3.33422 0
      vertex 30.2908 3.08565 3
    endloop
  endfacet
  facet normal -0.453991 0.891006 0
    outer loop
      vertex 30.2908 3.08565 3
      vertex 30.7786 3.33422 0
      vertex 30.2908 3.08565 0
    endloop
  endfacet
  facet normal -0.156434 0.987688 0
    outer loop
      vertex 30.2908 3.08565 3
      vertex 30.2908 3.08565 0
      vertex 29.75 3 3
    endloop
  endfacet
  facet normal -0.156434 0.987688 0
    outer loop
      vertex 29.75 3 3
      vertex 30.2908 3.08565 0
      vertex 29.75 3 0
    endloop
  endfacet
  facet normal 0.156434 0.987688 0
    outer loop
      vertex 29.75 3 3
      vertex 29.75 3 0
      vertex 29.2092 3.08565 3
    endloop
  endfacet
  facet normal 0.156434 0.987688 0
    outer loop
      vertex 29.2092 3.08565 3
      vertex 29.75 3 0
      vertex 29.2092 3.08565 0
    endloop
  endfacet
  facet normal 0.453991 0.891006 0
    outer loop
      vertex 29.2092 3.08565 3
      vertex 29.2092 3.08565 0
      vertex 28.7214 3.33422 3
    endloop
  endfacet
  facet normal 0.453991 0.891006 0
    outer loop
      vertex 28.7214 3.33422 3
      vertex 29.2092 3.08565 0
      vertex 28.7214 3.33422 0
    endloop
  endfacet
  facet normal 0.707107 0.707107 0
    outer loop
      vertex 28.7214 3.33422 3
      vertex 28.7214 3.33422 0
      vertex 28.3342 3.72138 3
    endloop
  endfacet
  facet normal 0.707107 0.707107 0
    outer loop
      vertex 28.3342 3.72138 3
      vertex 28.7214 3.33422 0
      vertex 28.3342 3.72138 0
    endloop
  endfacet
  facet normal 0.891006 0.453991 0
    outer loop
      vertex 28.0857 4.20922 3
      vertex 28.3342 3.72138 3
      vertex 28.3342 3.72138 0
    endloop
  endfacet
  facet normal 0.891006 0.453991 0
    outer loop
      vertex 28.0857 4.20922 0
      vertex 28.0857 4.20922 3
      vertex 28.3342 3.72138 0
    endloop
  endfacet
  facet normal 0.987688 -0.156434 0
    outer loop
      vertex 68.5857 5.29078 0
      vertex 68.5857 5.29078 3
      vertex 68.5 4.75 3
    endloop
  endfacet
  facet normal 0.987688 -0.156434 0
    outer loop
      vertex 68.5 4.75 0
      vertex 68.5857 5.29078 0
      vertex 68.5 4.75 3
    endloop
  endfacet
  facet normal 0.987688 0.156434 0
    outer loop
      vertex 68.5 4.75 3
      vertex 68.5857 4.20922 3
      vertex 68.5857 4.20922 0
    endloop
  endfacet
  facet normal 0.987688 0.156434 0
    outer loop
      vertex 68.5 4.75 0
      vertex 68.5 4.75 3
      vertex 68.5857 4.20922 0
    endloop
  endfacet
  facet normal 0.891006 -0.453991 0
    outer loop
      vertex 68.8342 5.77862 0
      vertex 68.8342 5.77862 3
      vertex 68.5857 5.29078 3
    endloop
  endfacet
  facet normal 0.891006 -0.453991 0
    outer loop
      vertex 68.5857 5.29078 0
      vertex 68.8342 5.77862 0
      vertex 68.5857 5.29078 3
    endloop
  endfacet
  facet normal 0.707107 -0.707107 0
    outer loop
      vertex 69.2214 6.16578 0
      vertex 69.2214 6.16578 3
      vertex 68.8342 5.77862 3
    endloop
  endfacet
  facet normal 0.707107 -0.707107 0
    outer loop
      vertex 68.8342 5.77862 0
      vertex 69.2214 6.16578 0
      vertex 68.8342 5.77862 3
    endloop
  endfacet
  facet normal 0.453991 -0.891006 0
    outer loop
      vertex 69.7092 6.41435 0
      vertex 69.7092 6.41435 3
      vertex 69.2214 6.16578 3
    endloop
  endfacet
  facet normal 0.453991 -0.891006 0
    outer loop
      vertex 69.2214 6.16578 0
      vertex 69.7092 6.41435 0
      vertex 69.2214 6.16578 3
    endloop
  endfacet
  facet normal 0.156434 -0.987688 0
    outer loop
      vertex 70.25 6.5 0
      vertex 70.25 6.5 3
      vertex 69.7092 6.41435 3
    endloop
  endfacet
  facet normal 0.156434 -0.987688 0
    outer loop
      vertex 69.7092 6.41435 0
      vertex 70.25 6.5 0
      vertex 69.7092 6.41435 3
    endloop
  endfacet
  facet normal -0.156434 -0.987688 0
    outer loop
      vertex 70.7908 6.41435 0
      vertex 70.7908 6.41435 3
      vertex 70.25 6.5 3
    endloop
  endfacet
  facet normal -0.156434 -0.987688 0
    outer loop
      vertex 70.25 6.5 0
      vertex 70.7908 6.41435 0
      vertex 70.25 6.5 3
    endloop
  endfacet
  facet normal -0.453991 -0.891006 0
    outer loop
      vertex 71.2786 6.16578 0
      vertex 71.2786 6.16578 3
      vertex 70.7908 6.41435 3
    endloop
  endfacet
  facet normal -0.453991 -0.891006 0
    outer loop
      vertex 70.7908 6.41435 0
      vertex 71.2786 6.16578 0
      vertex 70.7908 6.41435 3
    endloop
  endfacet
  facet normal -0.707107 -0.707107 0
    outer loop
      vertex 71.6658 5.77862 0
      vertex 71.6658 5.77862 3
      vertex 71.2786 6.16578 3
    endloop
  endfacet
  facet normal -0.707107 -0.707107 0
    outer loop
      vertex 71.2786 6.16578 0
      vertex 71.6658 5.77862 0
      vertex 71.2786 6.16578 3
    endloop
  endfacet
  facet normal -0.891006 -0.453991 0
    outer loop
      vertex 71.9143 5.29078 3
      vertex 71.6658 5.77862 3
      vertex 71.9143 5.29078 0
    endloop
  endfacet
  facet normal -0.891006 -0.453991 0
    outer loop
      vertex 71.9143 5.29078 0
      vertex 71.6658 5.77862 3
      vertex 71.6658 5.77862 0
    endloop
  endfacet
  facet normal -0.987688 -0.156434 0
    outer loop
      vertex 72 4.75 3
      vertex 71.9143 5.29078 3
      vertex 72 4.75 0
    endloop
  endfacet
  facet normal -0.987688 -0.156434 0
    outer loop
      vertex 72 4.75 0
      vertex 71.9143 5.29078 3
      vertex 71.9143 5.29078 0
    endloop
  endfacet
  facet normal -0.987688 0.156434 0
    outer loop
      vertex 72 4.75 3
      vertex 72 4.75 0
      vertex 71.9143 4.20922 3
    endloop
  endfacet
  facet normal -0.987688 0.156434 0
    outer loop
      vertex 71.9143 4.20922 3
      vertex 72 4.75 0
      vertex 71.9143 4.20922 0
    endloop
  endfacet
  facet normal -0.891006 0.453991 0
    outer loop
      vertex 71.9143 4.20922 3
      vertex 71.9143 4.20922 0
      vertex 71.6658 3.72138 3
    endloop
  endfacet
  facet normal -0.891006 0.453991 0
    outer loop
      vertex 71.6658 3.72138 3
      vertex 71.9143 4.20922 0
      vertex 71.6658 3.72138 0
    endloop
  endfacet
  facet normal -0.707107 0.707107 0
    outer loop
      vertex 71.6658 3.72138 3
      vertex 71.6658 3.72138 0
      vertex 71.2786 3.33422 3
    endloop
  endfacet
  facet normal -0.707107 0.707107 0
    outer loop
      vertex 71.2786 3.33422 3
      vertex 71.6658 3.72138 0
      vertex 71.2786 3.33422 0
    endloop
  endfacet
  facet normal -0.453991 0.891006 0
    outer loop
      vertex 71.2786 3.33422 3
      vertex 71.2786 3.33422 0
      vertex 70.7908 3.08565 3
    endloop
  endfacet
  facet normal -0.453991 0.891006 0
    outer loop
      vertex 70.7908 3.08565 3
      vertex 71.2786 3.33422 0
      vertex 70.7908 3.08565 0
    endloop
  endfacet
  facet normal -0.156434 0.987688 0
    outer loop
      vertex 70.7908 3.08565 3
      vertex 70.7908 3.08565 0
      vertex 70.25 3 3
    endloop
  endfacet
  facet normal -0.156434 0.987688 0
    outer loop
      vertex 70.25 3 3
      vertex 70.7908 3.08565 0
      vertex 70.25 3 0
    endloop
  endfacet
  facet normal 0.156434 0.987688 0
    outer loop
      vertex 70.25 3 3
      vertex 70.25 3 0
      vertex 69.7092 3.08565 3
    endloop
  endfacet
  facet normal 0.156434 0.987688 0
    outer loop
      vertex 69.7092 3.08565 3
      vertex 70.25 3 0
      vertex 69.7092 3.08565 0
    endloop
  endfacet
  facet normal 0.453991 0.891006 0
    outer loop
      vertex 69.7092 3.08565 3
      vertex 69.7092 3.08565 0
      vertex 69.2214 3.33422 3
    endloop
  endfacet
  facet normal 0.453991 0.891006 0
    outer loop
      vertex 69.2214 3.33422 3
      vertex 69.7092 3.08565 0
      vertex 69.2214 3.33422 0
    endloop
  endfacet
  facet normal 0.707107 0.707107 0
    outer loop
      vertex 69.2214 3.33422 3
      vertex 69.2214 3.33422 0
      vertex 68.8342 3.72138 3
    endloop
  endfacet
  facet normal 0.707107 0.707107 0
    outer loop
      vertex 68.8342 3.72138 3
      vertex 69.2214 3.33422 0
      vertex 68.8342 3.72138 0
    endloop
  endfacet
  facet normal 0.891006 0.453991 0
    outer loop
      vertex 68.5857 4.20922 3
      vertex 68.8342 3.72138 3
      vertex 68.8342 3.72138 0
    endloop
  endfacet
  facet normal 0.891006 0.453991 0
    outer loop
      vertex 68.5857 4.20922 0
      vertex 68.5857 4.20922 3
      vertex 68.8342 3.72138 0
    endloop
  endfacet
  facet normal 2.22045e-016 0 1
    outer loop
      vertex 55 0 3
      vertex 55 -5.15838 3
      vertex 65 -5.15838 3
    endloop
  endfacet
  facet normal 2.22045e-016 0 1
    outer loop
      vertex 65 0 3
      vertex 55 0 3
      vertex 65 -5.15838 3
    endloop
  endfacet
  facet normal -2.19311e-016 -0.156435 -0.987688
    outer loop
      vertex 55 -9 2.22045e-015
      vertex 65 -9 0
      vertex 55 -10.2361 0.195774
    endloop
  endfacet
  facet normal -2.19311e-016 -0.156435 -0.987688
    outer loop
      vertex 55 -10.2361 0.195774
      vertex 65 -9 0
      vertex 65 -10.2361 0.195774
    endloop
  endfacet
  facet normal -1.97843e-016 -0.45399 -0.891007
    outer loop
      vertex 55 -10.2361 0.195774
      vertex 65 -10.2361 0.195774
      vertex 55 -11.3511 0.763932
    endloop
  endfacet
  facet normal -1.97843e-016 -0.45399 -0.891007
    outer loop
      vertex 55 -11.3511 0.763932
      vertex 65 -10.2361 0.195774
      vertex 65 -11.3511 0.763932
    endloop
  endfacet
  facet normal -1.57009e-016 -0.707107 -0.707107
    outer loop
      vertex 55 -12.2361 1.64886
      vertex 55 -11.3511 0.763932
      vertex 65 -11.3511 0.763932
    endloop
  endfacet
  facet normal -1.57009e-016 -0.707107 -0.707107
    outer loop
      vertex 65 -12.2361 1.64886
      vertex 55 -12.2361 1.64886
      vertex 65 -11.3511 0.763932
    endloop
  endfacet
  facet normal -1.00806e-016 -0.891007 -0.45399
    outer loop
      vertex 55 -12.8042 2.76393
      vertex 55 -12.2361 1.64886
      vertex 65 -12.2361 1.64886
    endloop
  endfacet
  facet normal -1.00806e-016 -0.891007 -0.45399
    outer loop
      vertex 65 -12.8042 2.76393
      vertex 55 -12.8042 2.76393
      vertex 65 -12.2361 1.64886
    endloop
  endfacet
  facet normal -3.47354e-017 -0.987688 -0.156435
    outer loop
      vertex 55 -13 4
      vertex 55 -12.8042 2.76393
      vertex 65 -12.8042 2.76393
    endloop
  endfacet
  facet normal -3.47354e-017 -0.987688 -0.156435
    outer loop
      vertex 65 -13 4
      vertex 55 -13 4
      vertex 65 -12.8042 2.76393
    endloop
  endfacet
  facet normal 3.47354e-017 -0.987688 0.156435
    outer loop
      vertex 55 -12.8042 5.23607
      vertex 55 -13 4
      vertex 65 -13 4
    endloop
  endfacet
  facet normal 3.47354e-017 -0.987688 0.156435
    outer loop
      vertex 65 -12.8042 5.23607
      vertex 55 -12.8042 5.23607
      vertex 65 -13 4
    endloop
  endfacet
  facet normal 1.00806e-016 -0.891007 0.45399
    outer loop
      vertex 55 -12.2361 6.35114
      vertex 55 -12.8042 5.23607
      vertex 65 -12.8042 5.23607
    endloop
  endfacet
  facet normal 1.00806e-016 -0.891007 0.45399
    outer loop
      vertex 65 -12.2361 6.35114
      vertex 55 -12.2361 6.35114
      vertex 65 -12.8042 5.23607
    endloop
  endfacet
  facet normal 1.57009e-016 -0.707107 0.707107
    outer loop
      vertex 55 -11.3511 7.23607
      vertex 55 -12.2361 6.35114
      vertex 65 -12.2361 6.35114
    endloop
  endfacet
  facet normal 1.57009e-016 -0.707107 0.707107
    outer loop
      vertex 65 -11.3511 7.23607
      vertex 55 -11.3511 7.23607
      vertex 65 -12.2361 6.35114
    endloop
  endfacet
  facet normal 1.97843e-016 -0.45399 0.891007
    outer loop
      vertex 55 -10.2361 7.80423
      vertex 55 -11.3511 7.23607
      vertex 65 -11.3511 7.23607
    endloop
  endfacet
  facet normal 1.97843e-016 -0.45399 0.891007
    outer loop
      vertex 65 -10.2361 7.80423
      vertex 55 -10.2361 7.80423
      vertex 65 -11.3511 7.23607
    endloop
  endfacet
  facet normal 2.19311e-016 -0.156435 0.987688
    outer loop
      vertex 55 -9 8
      vertex 55 -10.2361 7.80423
      vertex 65 -10.2361 7.80423
    endloop
  endfacet
  facet normal 2.19311e-016 -0.156435 0.987688
    outer loop
      vertex 65 -9 8
      vertex 55 -9 8
      vertex 65 -10.2361 7.80423
    endloop
  endfacet
  facet normal 2.19311e-016 0.156435 0.987688
    outer loop
      vertex 65 -7.76393 7.80423
      vertex 55 -7.76393 7.80423
      vertex 55 -9 8
    endloop
  endfacet
  facet normal 2.19311e-016 0.156435 0.987688
    outer loop
      vertex 65 -9 8
      vertex 65 -7.76393 7.80423
      vertex 55 -9 8
    endloop
  endfacet
  facet normal 1.97843e-016 0.45399 0.891007
    outer loop
      vertex 65 -6.64886 7.23607
      vertex 55 -6.64886 7.23607
      vertex 55 -7.76393 7.80423
    endloop
  endfacet
  facet normal 1.97843e-016 0.45399 0.891007
    outer loop
      vertex 65 -7.76393 7.80423
      vertex 65 -6.64886 7.23607
      vertex 55 -7.76393 7.80423
    endloop
  endfacet
  facet normal 1.57009e-016 0.707107 0.707107
    outer loop
      vertex 55 -5.76393 6.35114
      vertex 55 -6.64886 7.23607
      vertex 65 -5.76393 6.35114
    endloop
  endfacet
  facet normal 1.57009e-016 0.707107 0.707107
    outer loop
      vertex 65 -5.76393 6.35114
      vertex 55 -6.64886 7.23607
      vertex 65 -6.64886 7.23607
    endloop
  endfacet
  facet normal 1.00806e-016 0.891007 0.45399
    outer loop
      vertex 55 -5.19577 5.23607
      vertex 55 -5.76393 6.35114
      vertex 65 -5.19577 5.23607
    endloop
  endfacet
  facet normal 1.00806e-016 0.891007 0.45399
    outer loop
      vertex 65 -5.19577 5.23607
      vertex 55 -5.76393 6.35114
      vertex 65 -5.76393 6.35114
    endloop
  endfacet
  facet normal 3.47354e-017 0.987688 0.156435
    outer loop
      vertex 55 -5 4
      vertex 55 -5.19577 5.23607
      vertex 65 -5 4
    endloop
  endfacet
  facet normal 3.47354e-017 0.987688 0.156435
    outer loop
      vertex 65 -5 4
      vertex 55 -5.19577 5.23607
      vertex 65 -5.19577 5.23607
    endloop
  endfacet
  facet normal -3.47354e-017 0.987688 -0.156435
    outer loop
      vertex 55 -5.15838 3
      vertex 55 -5 4
      vertex 65 -5.15838 3
    endloop
  endfacet
  facet normal -3.47354e-017 0.987688 -0.156435
    outer loop
      vertex 65 -5.15838 3
      vertex 55 -5 4
      vertex 65 -5 4
    endloop
  endfacet
  facet normal 2.19311e-016 -0.156434 0.987688
    outer loop
      vertex 65 -9 2.25
      vertex 65 -8.45922 2.33565
      vertex 55 -8.45922 2.33565
    endloop
  endfacet
  facet normal 2.19311e-016 -0.156434 0.987688
    outer loop
      vertex 55 -9 2.25
      vertex 65 -9 2.25
      vertex 55 -8.45922 2.33565
    endloop
  endfacet
  facet normal 2.19311e-016 0.156434 0.987688
    outer loop
      vertex 55 -9.54078 2.33565
      vertex 65 -9.54078 2.33565
      vertex 65 -9 2.25
    endloop
  endfacet
  facet normal 2.19311e-016 0.156434 0.987688
    outer loop
      vertex 55 -9 2.25
      vertex 55 -9.54078 2.33565
      vertex 65 -9 2.25
    endloop
  endfacet
  facet normal 1.97843e-016 -0.453991 0.891006
    outer loop
      vertex 65 -8.45922 2.33565
      vertex 65 -7.97138 2.58422
      vertex 55 -7.97138 2.58422
    endloop
  endfacet
  facet normal 1.97843e-016 -0.453991 0.891006
    outer loop
      vertex 55 -8.45922 2.33565
      vertex 65 -8.45922 2.33565
      vertex 55 -7.97138 2.58422
    endloop
  endfacet
  facet normal 1.57009e-016 -0.707107 0.707107
    outer loop
      vertex 65 -7.97138 2.58422
      vertex 65 -7.58422 2.97138
      vertex 55 -7.58422 2.97138
    endloop
  endfacet
  facet normal 1.57009e-016 -0.707107 0.707107
    outer loop
      vertex 55 -7.97138 2.58422
      vertex 65 -7.97138 2.58422
      vertex 55 -7.58422 2.97138
    endloop
  endfacet
  facet normal 1.00806e-016 -0.891006 0.453991
    outer loop
      vertex 65 -7.58422 2.97138
      vertex 65 -7.33565 3.45922
      vertex 55 -7.33565 3.45922
    endloop
  endfacet
  facet normal 1.00806e-016 -0.891006 0.453991
    outer loop
      vertex 55 -7.58422 2.97138
      vertex 65 -7.58422 2.97138
      vertex 55 -7.33565 3.45922
    endloop
  endfacet
  facet normal 3.47354e-017 -0.987688 0.156434
    outer loop
      vertex 65 -7.33565 3.45922
      vertex 65 -7.25 4
      vertex 55 -7.25 4
    endloop
  endfacet
  facet normal 3.47354e-017 -0.987688 0.156434
    outer loop
      vertex 55 -7.33565 3.45922
      vertex 65 -7.33565 3.45922
      vertex 55 -7.25 4
    endloop
  endfacet
  facet normal -3.47354e-017 -0.987688 -0.156434
    outer loop
      vertex 65 -7.25 4
      vertex 65 -7.33565 4.54078
      vertex 55 -7.33565 4.54078
    endloop
  endfacet
  facet normal -3.47354e-017 -0.987688 -0.156434
    outer loop
      vertex 55 -7.25 4
      vertex 65 -7.25 4
      vertex 55 -7.33565 4.54078
    endloop
  endfacet
  facet normal -1.00806e-016 -0.891006 -0.453991
    outer loop
      vertex 65 -7.33565 4.54078
      vertex 65 -7.58422 5.02862
      vertex 55 -7.58422 5.02862
    endloop
  endfacet
  facet normal -1.00806e-016 -0.891006 -0.453991
    outer loop
      vertex 55 -7.33565 4.54078
      vertex 65 -7.33565 4.54078
      vertex 55 -7.58422 5.02862
    endloop
  endfacet
  facet normal -1.57009e-016 -0.707107 -0.707107
    outer loop
      vertex 65 -7.58422 5.02862
      vertex 65 -7.97138 5.41578
      vertex 55 -7.97138 5.41578
    endloop
  endfacet
  facet normal -1.57009e-016 -0.707107 -0.707107
    outer loop
      vertex 55 -7.58422 5.02862
      vertex 65 -7.58422 5.02862
      vertex 55 -7.97138 5.41578
    endloop
  endfacet
  facet normal -1.97843e-016 -0.453991 -0.891006
    outer loop
      vertex 65 -8.45922 5.66435
      vertex 55 -8.45922 5.66435
      vertex 65 -7.97138 5.41578
    endloop
  endfacet
  facet normal -1.97843e-016 -0.453991 -0.891006
    outer loop
      vertex 65 -7.97138 5.41578
      vertex 55 -8.45922 5.66435
      vertex 55 -7.97138 5.41578
    endloop
  endfacet
  facet normal -2.19311e-016 -0.156434 -0.987688
    outer loop
      vertex 65 -9 5.75
      vertex 55 -9 5.75
      vertex 65 -8.45922 5.66435
    endloop
  endfacet
  facet normal -2.19311e-016 -0.156434 -0.987688
    outer loop
      vertex 65 -8.45922 5.66435
      vertex 55 -9 5.75
      vertex 55 -8.45922 5.66435
    endloop
  endfacet
  facet normal -2.19311e-016 0.156434 -0.987688
    outer loop
      vertex 65 -9 5.75
      vertex 65 -9.54078 5.66435
      vertex 55 -9 5.75
    endloop
  endfacet
  facet normal -2.19311e-016 0.156434 -0.987688
    outer loop
      vertex 55 -9 5.75
      vertex 65 -9.54078 5.66435
      vertex 55 -9.54078 5.66435
    endloop
  endfacet
  facet normal -1.97843e-016 0.453991 -0.891006
    outer loop
      vertex 65 -9.54078 5.66435
      vertex 65 -10.0286 5.41578
      vertex 55 -9.54078 5.66435
    endloop
  endfacet
  facet normal -1.97843e-016 0.453991 -0.891006
    outer loop
      vertex 55 -9.54078 5.66435
      vertex 65 -10.0286 5.41578
      vertex 55 -10.0286 5.41578
    endloop
  endfacet
  facet normal -1.57009e-016 0.707107 -0.707107
    outer loop
      vertex 65 -10.0286 5.41578
      vertex 65 -10.4158 5.02862
      vertex 55 -10.0286 5.41578
    endloop
  endfacet
  facet normal -1.57009e-016 0.707107 -0.707107
    outer loop
      vertex 55 -10.0286 5.41578
      vertex 65 -10.4158 5.02862
      vertex 55 -10.4158 5.02862
    endloop
  endfacet
  facet normal -1.00806e-016 0.891006 -0.453991
    outer loop
      vertex 65 -10.4158 5.02862
      vertex 65 -10.6643 4.54078
      vertex 55 -10.4158 5.02862
    endloop
  endfacet
  facet normal -1.00806e-016 0.891006 -0.453991
    outer loop
      vertex 55 -10.4158 5.02862
      vertex 65 -10.6643 4.54078
      vertex 55 -10.6643 4.54078
    endloop
  endfacet
  facet normal -3.47354e-017 0.987688 -0.156434
    outer loop
      vertex 65 -10.6643 4.54078
      vertex 65 -10.75 4
      vertex 55 -10.6643 4.54078
    endloop
  endfacet
  facet normal -3.47354e-017 0.987688 -0.156434
    outer loop
      vertex 55 -10.6643 4.54078
      vertex 65 -10.75 4
      vertex 55 -10.75 4
    endloop
  endfacet
  facet normal 3.47354e-017 0.987688 0.156434
    outer loop
      vertex 65 -10.75 4
      vertex 65 -10.6643 3.45922
      vertex 55 -10.75 4
    endloop
  endfacet
  facet normal 3.47354e-017 0.987688 0.156434
    outer loop
      vertex 55 -10.75 4
      vertex 65 -10.6643 3.45922
      vertex 55 -10.6643 3.45922
    endloop
  endfacet
  facet normal 1.00806e-016 0.891006 0.453991
    outer loop
      vertex 65 -10.6643 3.45922
      vertex 65 -10.4158 2.97138
      vertex 55 -10.6643 3.45922
    endloop
  endfacet
  facet normal 1.00806e-016 0.891006 0.453991
    outer loop
      vertex 55 -10.6643 3.45922
      vertex 65 -10.4158 2.97138
      vertex 55 -10.4158 2.97138
    endloop
  endfacet
  facet normal 1.57009e-016 0.707107 0.707107
    outer loop
      vertex 65 -10.4158 2.97138
      vertex 65 -10.0286 2.58422
      vertex 55 -10.4158 2.97138
    endloop
  endfacet
  facet normal 1.57009e-016 0.707107 0.707107
    outer loop
      vertex 55 -10.4158 2.97138
      vertex 65 -10.0286 2.58422
      vertex 55 -10.0286 2.58422
    endloop
  endfacet
  facet normal 1.97843e-016 0.453991 0.891006
    outer loop
      vertex 55 -10.0286 2.58422
      vertex 65 -10.0286 2.58422
      vertex 65 -9.54078 2.33565
    endloop
  endfacet
  facet normal 1.97843e-016 0.453991 0.891006
    outer loop
      vertex 55 -9.54078 2.33565
      vertex 55 -10.0286 2.58422
      vertex 65 -9.54078 2.33565
    endloop
  endfacet
  facet normal -1 0 1.77321e-016
    outer loop
      vertex -5 -9 2.22045e-015
      vertex -5 -10.2361 0.195774
      vertex -5 0 2.22045e-015
    endloop
  endfacet
  facet normal -1 0 1.77321e-016
    outer loop
      vertex -5 0 2.22045e-015
      vertex -5 -10.2361 0.195774
      vertex -5 -11.3511 0.763932
    endloop
  endfacet
  facet normal -1 0 1.77321e-016
    outer loop
      vertex -5 0 2.22045e-015
      vertex -5 -11.3511 0.763932
      vertex -5 -12.2361 1.64886
    endloop
  endfacet
  facet normal -1 0 1.77321e-016
    outer loop
      vertex -5 0 2.22045e-015
      vertex -5 -12.2361 1.64886
      vertex -5 -12.8042 2.76393
    endloop
  endfacet
  facet normal -1 0 1.77321e-016
    outer loop
      vertex -5 -9.54078 2.33565
      vertex -5 -12.8042 2.76393
      vertex -5 -13 4
    endloop
  endfacet
  facet normal -1 0 1.77321e-016
    outer loop
      vertex -5 -10.75 4
      vertex -5 -13 4
      vertex -5 -12.8042 5.23607
    endloop
  endfacet
  facet normal -1 0 1.77321e-016
    outer loop
      vertex -5 -10.4158 5.02862
      vertex -5 -12.8042 5.23607
      vertex -5 -12.2361 6.35114
    endloop
  endfacet
  facet normal -1 0 1.77321e-016
    outer loop
      vertex -5 -9.54078 5.66435
      vertex -5 -12.2361 6.35114
      vertex -5 -11.3511 7.23607
    endloop
  endfacet
  facet normal -1 0 1.77321e-016
    outer loop
      vertex -5 -7.97138 5.41578
      vertex -5 -11.3511 7.23607
      vertex -5 -10.2361 7.80423
    endloop
  endfacet
  facet normal -1 0 1.77321e-016
    outer loop
      vertex -5 -5 4
      vertex -5 -10.2361 7.80423
      vertex -5 -9 8
    endloop
  endfacet
  facet normal -1 0 1.77321e-016
    outer loop
      vertex -5 -5.19577 5.23607
      vertex -5 -7.76393 7.80423
      vertex -5 -6.64886 7.23607
    endloop
  endfacet
  facet normal -1 0 1.77321e-016
    outer loop
      vertex -5 -5 4
      vertex -5 -7.76393 7.80423
      vertex -5 -5.19577 5.23607
    endloop
  endfacet
  facet normal -1 0 1.77321e-016
    outer loop
      vertex -5 -9 5.75
      vertex -5 -11.3511 7.23607
      vertex -5 -8.45922 5.66435
    endloop
  endfacet
  facet normal -1 0 1.77321e-016
    outer loop
      vertex -5 -5 4
      vertex -5 -9 8
      vertex -5 -7.76393 7.80423
    endloop
  endfacet
  facet normal -1 0 1.77321e-016
    outer loop
      vertex -5 -7.58422 5.02862
      vertex -5 -5.15838 3
      vertex -5 -7.33565 4.54078
    endloop
  endfacet
  facet normal -1 0 1.77321e-016
    outer loop
      vertex -5 -7.97138 2.58422
      vertex -5 0 2.22045e-015
      vertex -5 -8.45922 2.33565
    endloop
  endfacet
  facet normal -1 0 1.77321e-016
    outer loop
      vertex -5 0 2.22045e-015
      vertex -5 -12.8042 2.76393
      vertex -5 -9.54078 2.33565
    endloop
  endfacet
  facet normal -1 0 1.77321e-016
    outer loop
      vertex -5 -10.0286 2.58422
      vertex -5 -9.54078 2.33565
      vertex -5 -13 4
    endloop
  endfacet
  facet normal -1 0 1.77321e-016
    outer loop
      vertex -5 0 2.22045e-015
      vertex -5 -9.54078 2.33565
      vertex -5 -9 2.25
    endloop
  endfacet
  facet normal -1 0 1.77321e-016
    outer loop
      vertex -5 0 2.22045e-015
      vertex -5 -9 2.25
      vertex -5 -8.45922 2.33565
    endloop
  endfacet
  facet normal -1 0 1.77321e-016
    outer loop
      vertex -5 -7.33565 3.45922
      vertex -5 0 2.22045e-015
      vertex -5 -7.58422 2.97138
    endloop
  endfacet
  facet normal -1 0 1.77321e-016
    outer loop
      vertex -5 0 2.22045e-015
      vertex -5 -7.97138 2.58422
      vertex -5 -7.58422 2.97138
    endloop
  endfacet
  facet normal -1 0 1.77321e-016
    outer loop
      vertex -5 -7.25 4
      vertex -5 0 2.22045e-015
      vertex -5 -7.33565 3.45922
    endloop
  endfacet
  facet normal -1 0 1.77321e-016
    outer loop
      vertex -5 -7.25 4
      vertex -5 -5.15838 3
      vertex -5 0 2.22045e-015
    endloop
  endfacet
  facet normal -1 0 1.77321e-016
    outer loop
      vertex -5 -7.33565 4.54078
      vertex -5 -5.15838 3
      vertex -5 -7.25 4
    endloop
  endfacet
  facet normal -1 0 1.77321e-016
    outer loop
      vertex -5 0 3
      vertex -5 0 2.22045e-015
      vertex -5 -5.15838 3
    endloop
  endfacet
  facet normal -1 0 1.77321e-016
    outer loop
      vertex -5 -9.54078 5.66435
      vertex -5 -11.3511 7.23607
      vertex -5 -9 5.75
    endloop
  endfacet
  facet normal -1 0 1.77321e-016
    outer loop
      vertex -5 -8.45922 5.66435
      vertex -5 -11.3511 7.23607
      vertex -5 -7.97138 5.41578
    endloop
  endfacet
  facet normal -1 0 1.77321e-016
    outer loop
      vertex -5 -7.58422 5.02862
      vertex -5 -7.97138 5.41578
      vertex -5 -10.2361 7.80423
    endloop
  endfacet
  facet normal -1 0 1.77321e-016
    outer loop
      vertex -5 -10.0286 5.41578
      vertex -5 -12.2361 6.35114
      vertex -5 -9.54078 5.66435
    endloop
  endfacet
  facet normal -1 0 1.77321e-016
    outer loop
      vertex -5 -10.4158 5.02862
      vertex -5 -12.2361 6.35114
      vertex -5 -10.0286 5.41578
    endloop
  endfacet
  facet normal -1 0 1.77321e-016
    outer loop
      vertex -5 -10.6643 4.54078
      vertex -5 -12.8042 5.23607
      vertex -5 -10.4158 5.02862
    endloop
  endfacet
  facet normal -1 0 1.77321e-016
    outer loop
      vertex -5 -10.75 4
      vertex -5 -12.8042 5.23607
      vertex -5 -10.6643 4.54078
    endloop
  endfacet
  facet normal -1 0 1.77321e-016
    outer loop
      vertex -5 -10.6643 3.45922
      vertex -5 -13 4
      vertex -5 -10.75 4
    endloop
  endfacet
  facet normal -1 0 1.77321e-016
    outer loop
      vertex -5 -10.4158 2.97138
      vertex -5 -13 4
      vertex -5 -10.6643 3.45922
    endloop
  endfacet
  facet normal -1 0 1.77321e-016
    outer loop
      vertex -5 -10.0286 2.58422
      vertex -5 -13 4
      vertex -5 -10.4158 2.97138
    endloop
  endfacet
  facet normal -1 0 1.77321e-016
    outer loop
      vertex -5 -5.19577 5.23607
      vertex -5 -6.64886 7.23607
      vertex -5 -5.76393 6.35114
    endloop
  endfacet
  facet normal -1 0 1.77321e-016
    outer loop
      vertex -5 -5.15838 3
      vertex -5 -7.58422 5.02862
      vertex -5 -10.2361 7.80423
    endloop
  endfacet
  facet normal -1 0 1.77321e-016
    outer loop
      vertex -5 -5.15838 3
      vertex -5 -10.2361 7.80423
      vertex -5 -5 4
    endloop
  endfacet
  facet normal -2.19311e-016 -0.156435 -0.987688
    outer loop
      vertex -5 -9 2.22045e-015
      vertex 5 -9 0
      vertex -5 -10.2361 0.195774
    endloop
  endfacet
  facet normal -2.19311e-016 -0.156435 -0.987688
    outer loop
      vertex -5 -10.2361 0.195774
      vertex 5 -9 0
      vertex 5 -10.2361 0.195774
    endloop
  endfacet
  facet normal -2.22045e-016 0 -1
    outer loop
      vertex -5 -9 2.22045e-015
      vertex -5 0 2.22045e-015
      vertex 5 -9 0
    endloop
  endfacet
  facet normal -2.22045e-016 0 -1
    outer loop
      vertex 5 -9 0
      vertex -5 0 2.22045e-015
      vertex 5 0 0
    endloop
  endfacet
  facet normal 0 -1 0
    outer loop
      vertex -5 0 2.22045e-015
      vertex -5 0 0
      vertex 5 0 0
    endloop
  endfacet
  facet normal -1 0 0
    outer loop
      vertex -5 0 0
      vertex -5 0 2.22045e-015
      vertex -5 10 0
    endloop
  endfacet
  facet normal -1 0 0
    outer loop
      vertex -5 10 0
      vertex -5 0 2.22045e-015
      vertex -5 0 3
    endloop
  endfacet
  facet normal -1 0 0
    outer loop
      vertex -5 10 0
      vertex -5 0 3
      vertex -5 10 3
    endloop
  endfacet
  facet normal 0 0 1
    outer loop
      vertex -1.66435 4.45922 3
      vertex -5 10 3
      vertex -5 0 3
    endloop
  endfacet
  facet normal 0 0 1
    outer loop
      vertex -1.41578 3.97138 3
      vertex -1.66435 4.45922 3
      vertex -5 0 3
    endloop
  endfacet
  facet normal 0 0 1
    outer loop
      vertex -1.75 5 3
      vertex -5 10 3
      vertex -1.66435 4.45922 3
    endloop
  endfacet
  facet normal 0 0 1
    outer loop
      vertex -1.66435 5.54078 3
      vertex -5 10 3
      vertex -1.75 5 3
    endloop
  endfacet
  facet normal 0 0 1
    outer loop
      vertex -1.41578 6.02862 3
      vertex -5 10 3
      vertex -1.66435 5.54078 3
    endloop
  endfacet
  facet normal 0 0 1
    outer loop
      vertex 1.66435 5.54078 3
      vertex 1.75 5 3
      vertex 5 0 3
    endloop
  endfacet
  facet normal 0 0 1
    outer loop
      vertex 0.54078 3.33565 3
      vertex 0 3.25 3
      vertex 5 0 3
    endloop
  endfacet
  facet normal 0 0 1
    outer loop
      vertex 5 10 3
      vertex -5 10 3
      vertex -1.02862 6.41578 3
    endloop
  endfacet
  facet normal 0 0 1
    outer loop
      vertex 5 10 3
      vertex -1.02862 6.41578 3
      vertex -0.54078 6.66435 3
    endloop
  endfacet
  facet normal 0 0 1
    outer loop
      vertex 1.66435 4.45922 3
      vertex 1.41578 3.97138 3
      vertex 5 0 3
    endloop
  endfacet
  facet normal 0 0 1
    outer loop
      vertex 5 10 3
      vertex -0.54078 6.66435 3
      vertex 0 6.75 3
    endloop
  endfacet
  facet normal 0 0 1
    outer loop
      vertex 1.41578 3.97138 3
      vertex 1.02862 3.58422 3
      vertex 5 0 3
    endloop
  endfacet
  facet normal 0 0 1
    outer loop
      vertex 5 10 3
      vertex 0 6.75 3
      vertex 0.54078 6.66435 3
    endloop
  endfacet
  facet normal 0 0 1
    outer loop
      vertex 5 10 3
      vertex 0.54078 6.66435 3
      vertex 1.02862 6.41578 3
    endloop
  endfacet
  facet normal 0 0 1
    outer loop
      vertex 5 10 3
      vertex 1.41578 6.02862 3
      vertex 5 0 3
    endloop
  endfacet
  facet normal 0 0 1
    outer loop
      vertex 5 10 3
      vertex 1.02862 6.41578 3
      vertex 1.41578 6.02862 3
    endloop
  endfacet
  facet normal 0 0 1
    outer loop
      vertex 1.41578 6.02862 3
      vertex 1.66435 5.54078 3
      vertex 5 0 3
    endloop
  endfacet
  facet normal 0 0 1
    outer loop
      vertex 5 0 3
      vertex 0 3.25 3
      vertex -5 0 3
    endloop
  endfacet
  facet normal 0 0 1
    outer loop
      vertex 0 3.25 3
      vertex -0.54078 3.33565 3
      vertex -5 0 3
    endloop
  endfacet
  facet normal 0 0 1
    outer loop
      vertex -0.54078 3.33565 3
      vertex -1.02862 3.58422 3
      vertex -5 0 3
    endloop
  endfacet
  facet normal 0 0 1
    outer loop
      vertex -1.02862 3.58422 3
      vertex -1.41578 3.97138 3
      vertex -5 0 3
    endloop
  endfacet
  facet normal 0 0 1
    outer loop
      vertex 1.02862 3.58422 3
      vertex 0.54078 3.33565 3
      vertex 5 0 3
    endloop
  endfacet
  facet normal 0 0 1
    outer loop
      vertex -1.41578 6.02862 3
      vertex -1.02862 6.41578 3
      vertex -5 10 3
    endloop
  endfacet
  facet normal 0 0 1
    outer loop
      vertex 1.75 5 3
      vertex 1.66435 4.45922 3
      vertex 5 0 3
    endloop
  endfacet
  facet normal 2.22045e-016 0 1
    outer loop
      vertex -5 0 3
      vertex -5 -5.15838 3
      vertex 5 -5.15838 3
    endloop
  endfacet
  facet normal 2.22045e-016 0 1
    outer loop
      vertex 5 0 3
      vertex -5 0 3
      vertex 5 -5.15838 3
    endloop
  endfacet
  facet normal -3.47354e-017 0.987688 -0.156435
    outer loop
      vertex -5 -5.15838 3
      vertex -5 -5 4
      vertex 5 -5.15838 3
    endloop
  endfacet
  facet normal -3.47354e-017 0.987688 -0.156435
    outer loop
      vertex 5 -5.15838 3
      vertex -5 -5 4
      vertex 5 -5 4
    endloop
  endfacet
  facet normal 3.47354e-017 0.987688 0.156435
    outer loop
      vertex -5 -5 4
      vertex -5 -5.19577 5.23607
      vertex 5 -5 4
    endloop
  endfacet
  facet normal 3.47354e-017 0.987688 0.156435
    outer loop
      vertex 5 -5 4
      vertex -5 -5.19577 5.23607
      vertex 5 -5.19577 5.23607
    endloop
  endfacet
  facet normal 1.00806e-016 0.891007 0.45399
    outer loop
      vertex -5 -5.19577 5.23607
      vertex -5 -5.76393 6.35114
      vertex 5 -5.19577 5.23607
    endloop
  endfacet
  facet normal 1.00806e-016 0.891007 0.45399
    outer loop
      vertex 5 -5.19577 5.23607
      vertex -5 -5.76393 6.35114
      vertex 5 -5.76393 6.35114
    endloop
  endfacet
  facet normal 1.57009e-016 0.707107 0.707107
    outer loop
      vertex -5 -5.76393 6.35114
      vertex -5 -6.64886 7.23607
      vertex 5 -5.76393 6.35114
    endloop
  endfacet
  facet normal 1.57009e-016 0.707107 0.707107
    outer loop
      vertex 5 -5.76393 6.35114
      vertex -5 -6.64886 7.23607
      vertex 5 -6.64886 7.23607
    endloop
  endfacet
  facet normal 1.97843e-016 0.45399 0.891007
    outer loop
      vertex 5 -6.64886 7.23607
      vertex -5 -6.64886 7.23607
      vertex -5 -7.76393 7.80423
    endloop
  endfacet
  facet normal 1.97843e-016 0.45399 0.891007
    outer loop
      vertex 5 -7.76393 7.80423
      vertex 5 -6.64886 7.23607
      vertex -5 -7.76393 7.80423
    endloop
  endfacet
  facet normal 2.19311e-016 0.156435 0.987688
    outer loop
      vertex 5 -7.76393 7.80423
      vertex -5 -7.76393 7.80423
      vertex -5 -9 8
    endloop
  endfacet
  facet normal 2.19311e-016 0.156435 0.987688
    outer loop
      vertex 5 -9 8
      vertex 5 -7.76393 7.80423
      vertex -5 -9 8
    endloop
  endfacet
  facet normal 2.19311e-016 -0.156435 0.987688
    outer loop
      vertex -5 -9 8
      vertex -5 -10.2361 7.80423
      vertex 5 -10.2361 7.80423
    endloop
  endfacet
  facet normal 2.19311e-016 -0.156435 0.987688
    outer loop
      vertex 5 -9 8
      vertex -5 -9 8
      vertex 5 -10.2361 7.80423
    endloop
  endfacet
  facet normal 1.97843e-016 -0.45399 0.891007
    outer loop
      vertex -5 -10.2361 7.80423
      vertex -5 -11.3511 7.23607
      vertex 5 -11.3511 7.23607
    endloop
  endfacet
  facet normal 1.97843e-016 -0.45399 0.891007
    outer loop
      vertex 5 -10.2361 7.80423
      vertex -5 -10.2361 7.80423
      vertex 5 -11.3511 7.23607
    endloop
  endfacet
  facet normal 1.57009e-016 -0.707107 0.707107
    outer loop
      vertex -5 -11.3511 7.23607
      vertex -5 -12.2361 6.35114
      vertex 5 -12.2361 6.35114
    endloop
  endfacet
  facet normal 1.57009e-016 -0.707107 0.707107
    outer loop
      vertex 5 -11.3511 7.23607
      vertex -5 -11.3511 7.23607
      vertex 5 -12.2361 6.35114
    endloop
  endfacet
  facet normal 1.00806e-016 -0.891007 0.45399
    outer loop
      vertex -5 -12.2361 6.35114
      vertex -5 -12.8042 5.23607
      vertex 5 -12.8042 5.23607
    endloop
  endfacet
  facet normal 1.00806e-016 -0.891007 0.45399
    outer loop
      vertex 5 -12.2361 6.35114
      vertex -5 -12.2361 6.35114
      vertex 5 -12.8042 5.23607
    endloop
  endfacet
  facet normal 3.47354e-017 -0.987688 0.156435
    outer loop
      vertex -5 -12.8042 5.23607
      vertex -5 -13 4
      vertex 5 -13 4
    endloop
  endfacet
  facet normal 3.47354e-017 -0.987688 0.156435
    outer loop
      vertex 5 -12.8042 5.23607
      vertex -5 -12.8042 5.23607
      vertex 5 -13 4
    endloop
  endfacet
  facet normal -3.47354e-017 -0.987688 -0.156435
    outer loop
      vertex -5 -13 4
      vertex -5 -12.8042 2.76393
      vertex 5 -12.8042 2.76393
    endloop
  endfacet
  facet normal -3.47354e-017 -0.987688 -0.156435
    outer loop
      vertex 5 -13 4
      vertex -5 -13 4
      vertex 5 -12.8042 2.76393
    endloop
  endfacet
  facet normal -1.00806e-016 -0.891007 -0.45399
    outer loop
      vertex -5 -12.8042 2.76393
      vertex -5 -12.2361 1.64886
      vertex 5 -12.2361 1.64886
    endloop
  endfacet
  facet normal -1.00806e-016 -0.891007 -0.45399
    outer loop
      vertex 5 -12.8042 2.76393
      vertex -5 -12.8042 2.76393
      vertex 5 -12.2361 1.64886
    endloop
  endfacet
  facet normal -1.57009e-016 -0.707107 -0.707107
    outer loop
      vertex -5 -12.2361 1.64886
      vertex -5 -11.3511 0.763932
      vertex 5 -11.3511 0.763932
    endloop
  endfacet
  facet normal -1.57009e-016 -0.707107 -0.707107
    outer loop
      vertex 5 -12.2361 1.64886
      vertex -5 -12.2361 1.64886
      vertex 5 -11.3511 0.763932
    endloop
  endfacet
  facet normal -1.97843e-016 -0.45399 -0.891007
    outer loop
      vertex -5 -10.2361 0.195774
      vertex 5 -10.2361 0.195774
      vertex -5 -11.3511 0.763932
    endloop
  endfacet
  facet normal -1.97843e-016 -0.45399 -0.891007
    outer loop
      vertex -5 -11.3511 0.763932
      vertex 5 -10.2361 0.195774
      vertex 5 -11.3511 0.763932
    endloop
  endfacet
  facet normal 2.19311e-016 0.156434 0.987688
    outer loop
      vertex -5 -9.54078 2.33565
      vertex 5 -9.54078 2.33565
      vertex 5 -9 2.25
    endloop
  endfacet
  facet normal 2.19311e-016 0.156434 0.987688
    outer loop
      vertex -5 -9 2.25
      vertex -5 -9.54078 2.33565
      vertex 5 -9 2.25
    endloop
  endfacet
  facet normal 1.97843e-016 0.453991 0.891006
    outer loop
      vertex -5 -10.0286 2.58422
      vertex 5 -10.0286 2.58422
      vertex 5 -9.54078 2.33565
    endloop
  endfacet
  facet normal 1.97843e-016 0.453991 0.891006
    outer loop
      vertex -5 -9.54078 2.33565
      vertex -5 -10.0286 2.58422
      vertex 5 -9.54078 2.33565
    endloop
  endfacet
  facet normal 1.57009e-016 0.707107 0.707107
    outer loop
      vertex 5 -10.4158 2.97138
      vertex 5 -10.0286 2.58422
      vertex -5 -10.4158 2.97138
    endloop
  endfacet
  facet normal 1.57009e-016 0.707107 0.707107
    outer loop
      vertex -5 -10.4158 2.97138
      vertex 5 -10.0286 2.58422
      vertex -5 -10.0286 2.58422
    endloop
  endfacet
  facet normal 1.00806e-016 0.891006 0.453991
    outer loop
      vertex 5 -10.6643 3.45922
      vertex 5 -10.4158 2.97138
      vertex -5 -10.6643 3.45922
    endloop
  endfacet
  facet normal 1.00806e-016 0.891006 0.453991
    outer loop
      vertex -5 -10.6643 3.45922
      vertex 5 -10.4158 2.97138
      vertex -5 -10.4158 2.97138
    endloop
  endfacet
  facet normal 3.47354e-017 0.987688 0.156434
    outer loop
      vertex 5 -10.75 4
      vertex 5 -10.6643 3.45922
      vertex -5 -10.75 4
    endloop
  endfacet
  facet normal 3.47354e-017 0.987688 0.156434
    outer loop
      vertex -5 -10.75 4
      vertex 5 -10.6643 3.45922
      vertex -5 -10.6643 3.45922
    endloop
  endfacet
  facet normal -3.47354e-017 0.987688 -0.156434
    outer loop
      vertex 5 -10.6643 4.54078
      vertex 5 -10.75 4
      vertex -5 -10.6643 4.54078
    endloop
  endfacet
  facet normal -3.47354e-017 0.987688 -0.156434
    outer loop
      vertex -5 -10.6643 4.54078
      vertex 5 -10.75 4
      vertex -5 -10.75 4
    endloop
  endfacet
  facet normal -1.00806e-016 0.891006 -0.453991
    outer loop
      vertex 5 -10.4158 5.02862
      vertex 5 -10.6643 4.54078
      vertex -5 -10.4158 5.02862
    endloop
  endfacet
  facet normal -1.00806e-016 0.891006 -0.453991
    outer loop
      vertex -5 -10.4158 5.02862
      vertex 5 -10.6643 4.54078
      vertex -5 -10.6643 4.54078
    endloop
  endfacet
  facet normal -1.57009e-016 0.707107 -0.707107
    outer loop
      vertex 5 -10.0286 5.41578
      vertex 5 -10.4158 5.02862
      vertex -5 -10.0286 5.41578
    endloop
  endfacet
  facet normal -1.57009e-016 0.707107 -0.707107
    outer loop
      vertex -5 -10.0286 5.41578
      vertex 5 -10.4158 5.02862
      vertex -5 -10.4158 5.02862
    endloop
  endfacet
  facet normal -1.97843e-016 0.453991 -0.891006
    outer loop
      vertex 5 -9.54078 5.66435
      vertex 5 -10.0286 5.41578
      vertex -5 -9.54078 5.66435
    endloop
  endfacet
  facet normal -1.97843e-016 0.453991 -0.891006
    outer loop
      vertex -5 -9.54078 5.66435
      vertex 5 -10.0286 5.41578
      vertex -5 -10.0286 5.41578
    endloop
  endfacet
  facet normal -2.19311e-016 0.156434 -0.987688
    outer loop
      vertex 5 -9 5.75
      vertex 5 -9.54078 5.66435
      vertex -5 -9 5.75
    endloop
  endfacet
  facet normal -2.19311e-016 0.156434 -0.987688
    outer loop
      vertex -5 -9 5.75
      vertex 5 -9.54078 5.66435
      vertex -5 -9.54078 5.66435
    endloop
  endfacet
  facet normal -2.19311e-016 -0.156434 -0.987688
    outer loop
      vertex 5 -9 5.75
      vertex -5 -9 5.75
      vertex 5 -8.45922 5.66435
    endloop
  endfacet
  facet normal -2.19311e-016 -0.156434 -0.987688
    outer loop
      vertex 5 -8.45922 5.66435
      vertex -5 -9 5.75
      vertex -5 -8.45922 5.66435
    endloop
  endfacet
  facet normal -1.97843e-016 -0.453991 -0.891006
    outer loop
      vertex 5 -8.45922 5.66435
      vertex -5 -8.45922 5.66435
      vertex 5 -7.97138 5.41578
    endloop
  endfacet
  facet normal -1.97843e-016 -0.453991 -0.891006
    outer loop
      vertex 5 -7.97138 5.41578
      vertex -5 -8.45922 5.66435
      vertex -5 -7.97138 5.41578
    endloop
  endfacet
  facet normal -1.57009e-016 -0.707107 -0.707107
    outer loop
      vertex 5 -7.58422 5.02862
      vertex 5 -7.97138 5.41578
      vertex -5 -7.97138 5.41578
    endloop
  endfacet
  facet normal -1.57009e-016 -0.707107 -0.707107
    outer loop
      vertex -5 -7.58422 5.02862
      vertex 5 -7.58422 5.02862
      vertex -5 -7.97138 5.41578
    endloop
  endfacet
  facet normal -1.00806e-016 -0.891006 -0.453991
    outer loop
      vertex 5 -7.33565 4.54078
      vertex 5 -7.58422 5.02862
      vertex -5 -7.58422 5.02862
    endloop
  endfacet
  facet normal -1.00806e-016 -0.891006 -0.453991
    outer loop
      vertex -5 -7.33565 4.54078
      vertex 5 -7.33565 4.54078
      vertex -5 -7.58422 5.02862
    endloop
  endfacet
  facet normal -3.47354e-017 -0.987688 -0.156434
    outer loop
      vertex 5 -7.25 4
      vertex 5 -7.33565 4.54078
      vertex -5 -7.33565 4.54078
    endloop
  endfacet
  facet normal -3.47354e-017 -0.987688 -0.156434
    outer loop
      vertex -5 -7.25 4
      vertex 5 -7.25 4
      vertex -5 -7.33565 4.54078
    endloop
  endfacet
  facet normal 3.47354e-017 -0.987688 0.156434
    outer loop
      vertex 5 -7.33565 3.45922
      vertex 5 -7.25 4
      vertex -5 -7.25 4
    endloop
  endfacet
  facet normal 3.47354e-017 -0.987688 0.156434
    outer loop
      vertex -5 -7.33565 3.45922
      vertex 5 -7.33565 3.45922
      vertex -5 -7.25 4
    endloop
  endfacet
  facet normal 1.00806e-016 -0.891006 0.453991
    outer loop
      vertex 5 -7.58422 2.97138
      vertex 5 -7.33565 3.45922
      vertex -5 -7.33565 3.45922
    endloop
  endfacet
  facet normal 1.00806e-016 -0.891006 0.453991
    outer loop
      vertex -5 -7.58422 2.97138
      vertex 5 -7.58422 2.97138
      vertex -5 -7.33565 3.45922
    endloop
  endfacet
  facet normal 1.57009e-016 -0.707107 0.707107
    outer loop
      vertex 5 -7.97138 2.58422
      vertex 5 -7.58422 2.97138
      vertex -5 -7.58422 2.97138
    endloop
  endfacet
  facet normal 1.57009e-016 -0.707107 0.707107
    outer loop
      vertex -5 -7.97138 2.58422
      vertex 5 -7.97138 2.58422
      vertex -5 -7.58422 2.97138
    endloop
  endfacet
  facet normal 1.97843e-016 -0.453991 0.891006
    outer loop
      vertex 5 -8.45922 2.33565
      vertex 5 -7.97138 2.58422
      vertex -5 -7.97138 2.58422
    endloop
  endfacet
  facet normal 1.97843e-016 -0.453991 0.891006
    outer loop
      vertex -5 -8.45922 2.33565
      vertex 5 -8.45922 2.33565
      vertex -5 -7.97138 2.58422
    endloop
  endfacet
  facet normal 2.19311e-016 -0.156434 0.987688
    outer loop
      vertex 5 -9 2.25
      vertex 5 -8.45922 2.33565
      vertex -5 -8.45922 2.33565
    endloop
  endfacet
  facet normal 2.19311e-016 -0.156434 0.987688
    outer loop
      vertex -5 -9 2.25
      vertex 5 -9 2.25
      vertex -5 -8.45922 2.33565
    endloop
  endfacet
  facet normal 1 0 -1.77321e-016
    outer loop
      vertex 5 -10.2361 0.195774
      vertex 5 -9 0
      vertex 5 0 0
    endloop
  endfacet
  facet normal 1 0 -1.77321e-016
    outer loop
      vertex 5 -5.15838 3
      vertex 5 -10.2361 0.195774
      vertex 5 0 3
    endloop
  endfacet
  facet normal 1 0 -1.77321e-016
    outer loop
      vertex 5 0 3
      vertex 5 -10.2361 0.195774
      vertex 5 0 0
    endloop
  endfacet
  facet normal 1 0 -1.77321e-016
    outer loop
      vertex 5 -5 4
      vertex 5 -10.2361 0.195774
      vertex 5 -5.15838 3
    endloop
  endfacet
  facet normal 1 0 -1.77321e-016
    outer loop
      vertex 5 -5.19577 5.23607
      vertex 5 -10.2361 0.195774
      vertex 5 -5 4
    endloop
  endfacet
  facet normal 1 0 -1.77321e-016
    outer loop
      vertex 5 -7.58422 2.97138
      vertex 5 -10.2361 0.195774
      vertex 5 -5.19577 5.23607
    endloop
  endfacet
  facet normal 1 0 -1.77321e-016
    outer loop
      vertex 5 -9 5.75
      vertex 5 -8.45922 5.66435
      vertex 5 -7.76393 7.80423
    endloop
  endfacet
  facet normal 1 0 -1.77321e-016
    outer loop
      vertex 5 -12.2361 6.35114
      vertex 5 -10.2361 0.195774
      vertex 5 -11.3511 7.23607
    endloop
  endfacet
  facet normal 1 0 -1.77321e-016
    outer loop
      vertex 5 -12.8042 5.23607
      vertex 5 -10.2361 0.195774
      vertex 5 -12.2361 6.35114
    endloop
  endfacet
  facet normal 1 0 -1.77321e-016
    outer loop
      vertex 5 -13 4
      vertex 5 -10.2361 0.195774
      vertex 5 -12.8042 5.23607
    endloop
  endfacet
  facet normal 1 0 -1.77321e-016
    outer loop
      vertex 5 -12.8042 2.76393
      vertex 5 -10.2361 0.195774
      vertex 5 -13 4
    endloop
  endfacet
  facet normal 1 0 -1.77321e-016
    outer loop
      vertex 5 -12.2361 1.64886
      vertex 5 -10.2361 0.195774
      vertex 5 -12.8042 2.76393
    endloop
  endfacet
  facet normal 1 0 -1.77321e-016
    outer loop
      vertex 5 -11.3511 0.763932
      vertex 5 -10.2361 0.195774
      vertex 5 -12.2361 1.64886
    endloop
  endfacet
  facet normal 1 0 -1.77321e-016
    outer loop
      vertex 5 -7.97138 2.58422
      vertex 5 -8.45922 2.33565
      vertex 5 -10.2361 0.195774
    endloop
  endfacet
  facet normal 1 0 -1.77321e-016
    outer loop
      vertex 5 -10.0286 2.58422
      vertex 5 -10.4158 2.97138
      vertex 5 -10.2361 0.195774
    endloop
  endfacet
  facet normal 1 0 -1.77321e-016
    outer loop
      vertex 5 -7.97138 5.41578
      vertex 5 -7.58422 5.02862
      vertex 5 -6.64886 7.23607
    endloop
  endfacet
  facet normal 1 0 -1.77321e-016
    outer loop
      vertex 5 -10.75 4
      vertex 5 -10.6643 4.54078
      vertex 5 -11.3511 7.23607
    endloop
  endfacet
  facet normal 1 0 -1.77321e-016
    outer loop
      vertex 5 -9.54078 5.66435
      vertex 5 -9 5.75
      vertex 5 -9 8
    endloop
  endfacet
  facet normal 1 0 -1.77321e-016
    outer loop
      vertex 5 -10.6643 3.45922
      vertex 5 -10.2361 0.195774
      vertex 5 -10.4158 2.97138
    endloop
  endfacet
  facet normal 1 0 -1.77321e-016
    outer loop
      vertex 5 -11.3511 7.23607
      vertex 5 -10.2361 0.195774
      vertex 5 -10.6643 3.45922
    endloop
  endfacet
  facet normal 1 0 -1.77321e-016
    outer loop
      vertex 5 -11.3511 7.23607
      vertex 5 -10.6643 3.45922
      vertex 5 -10.75 4
    endloop
  endfacet
  facet normal 1 0 -1.77321e-016
    outer loop
      vertex 5 -11.3511 7.23607
      vertex 5 -10.6643 4.54078
      vertex 5 -10.2361 7.80423
    endloop
  endfacet
  facet normal 1 0 -1.77321e-016
    outer loop
      vertex 5 -10.6643 4.54078
      vertex 5 -10.4158 5.02862
      vertex 5 -10.2361 7.80423
    endloop
  endfacet
  facet normal 1 0 -1.77321e-016
    outer loop
      vertex 5 -10.2361 7.80423
      vertex 5 -10.0286 5.41578
      vertex 5 -9 8
    endloop
  endfacet
  facet normal 1 0 -1.77321e-016
    outer loop
      vertex 5 -10.0286 5.41578
      vertex 5 -9.54078 5.66435
      vertex 5 -9 8
    endloop
  endfacet
  facet normal 1 0 -1.77321e-016
    outer loop
      vertex 5 -9 8
      vertex 5 -9 5.75
      vertex 5 -7.76393 7.80423
    endloop
  endfacet
  facet normal 1 0 -1.77321e-016
    outer loop
      vertex 5 -7.76393 7.80423
      vertex 5 -8.45922 5.66435
      vertex 5 -6.64886 7.23607
    endloop
  endfacet
  facet normal 1 0 -1.77321e-016
    outer loop
      vertex 5 -9.54078 2.33565
      vertex 5 -10.0286 2.58422
      vertex 5 -10.2361 0.195774
    endloop
  endfacet
  facet normal 1 0 -1.77321e-016
    outer loop
      vertex 5 -8.45922 5.66435
      vertex 5 -7.97138 5.41578
      vertex 5 -6.64886 7.23607
    endloop
  endfacet
  facet normal 1 0 -1.77321e-016
    outer loop
      vertex 5 -10.4158 5.02862
      vertex 5 -10.0286 5.41578
      vertex 5 -10.2361 7.80423
    endloop
  endfacet
  facet normal 1 0 -1.77321e-016
    outer loop
      vertex 5 -6.64886 7.23607
      vertex 5 -7.58422 5.02862
      vertex 5 -5.76393 6.35114
    endloop
  endfacet
  facet normal 1 0 -1.77321e-016
    outer loop
      vertex 5 -7.58422 5.02862
      vertex 5 -7.33565 4.54078
      vertex 5 -5.76393 6.35114
    endloop
  endfacet
  facet normal 1 0 -1.77321e-016
    outer loop
      vertex 5 -5.76393 6.35114
      vertex 5 -7.25 4
      vertex 5 -5.19577 5.23607
    endloop
  endfacet
  facet normal 1 0 -1.77321e-016
    outer loop
      vertex 5 -7.25 4
      vertex 5 -7.33565 3.45922
      vertex 5 -5.19577 5.23607
    endloop
  endfacet
  facet normal 1 0 -1.77321e-016
    outer loop
      vertex 5 -7.33565 3.45922
      vertex 5 -7.58422 2.97138
      vertex 5 -5.19577 5.23607
    endloop
  endfacet
  facet normal 1 0 -1.77321e-016
    outer loop
      vertex 5 -7.97138 2.58422
      vertex 5 -10.2361 0.195774
      vertex 5 -7.58422 2.97138
    endloop
  endfacet
  facet normal 1 0 -1.77321e-016
    outer loop
      vertex 5 -8.45922 2.33565
      vertex 5 -9 2.25
      vertex 5 -10.2361 0.195774
    endloop
  endfacet
  facet normal 1 0 -1.77321e-016
    outer loop
      vertex 5 -7.33565 4.54078
      vertex 5 -7.25 4
      vertex 5 -5.76393 6.35114
    endloop
  endfacet
  facet normal 1 0 -1.77321e-016
    outer loop
      vertex 5 -9 2.25
      vertex 5 -9.54078 2.33565
      vertex 5 -10.2361 0.195774
    endloop
  endfacet
  facet normal 1 0 0
    outer loop
      vertex 5 0 3
      vertex 5 0 0
      vertex 5 10 0
    endloop
  endfacet
  facet normal 1 0 0
    outer loop
      vertex 5 10 3
      vertex 5 0 3
      vertex 5 10 0
    endloop
  endfacet
  facet normal 0 0 -1
    outer loop
      vertex 1.02862 6.41578 0
      vertex -5 10 0
      vertex 5 10 0
    endloop
  endfacet
  facet normal 0 0 -1
    outer loop
      vertex -5 0 0
      vertex -5 10 0
      vertex -1.75 5 0
    endloop
  endfacet
  facet normal 0 0 -1
    outer loop
      vertex -5 0 0
      vertex -1.75 5 0
      vertex -1.66435 4.45922 0
    endloop
  endfacet
  facet normal 0 0 -1
    outer loop
      vertex -5 0 0
      vertex -1.66435 4.45922 0
      vertex -1.41578 3.97138 0
    endloop
  endfacet
  facet normal 0 0 -1
    outer loop
      vertex -5 0 0
      vertex -1.41578 3.97138 0
      vertex -1.02862 3.58422 0
    endloop
  endfacet
  facet normal 0 0 -1
    outer loop
      vertex -5 0 0
      vertex -1.02862 3.58422 0
      vertex 5 0 0
    endloop
  endfacet
  facet normal 0 0 -1
    outer loop
      vertex -1.02862 3.58422 0
      vertex -0.54078 3.33565 0
      vertex 5 0 0
    endloop
  endfacet
  facet normal 0 0 -1
    outer loop
      vertex 0.54078 3.33565 0
      vertex 5 0 0
      vertex 0 3.25 0
    endloop
  endfacet
  facet normal 0 0 -1
    outer loop
      vertex 1.41578 3.97138 0
      vertex 5 0 0
      vertex 1.02862 3.58422 0
    endloop
  endfacet
  facet normal 0 0 -1
    outer loop
      vertex -1.66435 5.54078 0
      vertex -5 10 0
      vertex -1.41578 6.02862 0
    endloop
  endfacet
  facet normal 0 0 -1
    outer loop
      vertex 0.54078 3.33565 0
      vertex 1.02862 3.58422 0
      vertex 5 0 0
    endloop
  endfacet
  facet normal 0 0 -1
    outer loop
      vertex 0 6.75 0
      vertex -5 10 0
      vertex 0.54078 6.66435 0
    endloop
  endfacet
  facet normal 0 0 -1
    outer loop
      vertex 5 0 0
      vertex 1.41578 3.97138 0
      vertex 5 10 0
    endloop
  endfacet
  facet normal 0 0 -1
    outer loop
      vertex -1.41578 6.02862 0
      vertex -5 10 0
      vertex -1.02862 6.41578 0
    endloop
  endfacet
  facet normal 0 0 -1
    outer loop
      vertex 1.41578 3.97138 0
      vertex 1.66435 4.45922 0
      vertex 5 10 0
    endloop
  endfacet
  facet normal 0 0 -1
    outer loop
      vertex -1.02862 6.41578 0
      vertex -5 10 0
      vertex -0.54078 6.66435 0
    endloop
  endfacet
  facet normal 0 0 -1
    outer loop
      vertex 1.66435 4.45922 0
      vertex 1.75 5 0
      vertex 5 10 0
    endloop
  endfacet
  facet normal 0 0 -1
    outer loop
      vertex 1.75 5 0
      vertex 1.66435 5.54078 0
      vertex 5 10 0
    endloop
  endfacet
  facet normal 0 0 -1
    outer loop
      vertex -0.54078 6.66435 0
      vertex -5 10 0
      vertex 0 6.75 0
    endloop
  endfacet
  facet normal 0 0 -1
    outer loop
      vertex 1.66435 5.54078 0
      vertex 1.41578 6.02862 0
      vertex 5 10 0
    endloop
  endfacet
  facet normal 0 0 -1
    outer loop
      vertex 0.54078 6.66435 0
      vertex -5 10 0
      vertex 1.02862 6.41578 0
    endloop
  endfacet
  facet normal 0 0 -1
    outer loop
      vertex 1.41578 6.02862 0
      vertex 1.02862 6.41578 0
      vertex 5 10 0
    endloop
  endfacet
  facet normal 0 0 -1
    outer loop
      vertex -1.75 5 0
      vertex -5 10 0
      vertex -1.66435 5.54078 0
    endloop
  endfacet
  facet normal 0 0 -1
    outer loop
      vertex 0 3.25 0
      vertex 5 0 0
      vertex -0.54078 3.33565 0
    endloop
  endfacet
  facet normal 0 1 0
    outer loop
      vertex -5 10 0
      vertex -5 10 3
      vertex 5 10 0
    endloop
  endfacet
  facet normal 0 1 0
    outer loop
      vertex 5 10 0
      vertex -5 10 3
      vertex 5 10 3
    endloop
  endfacet
  facet normal 0.987688 0.156434 0
    outer loop
      vertex -1.75 5 3
      vertex -1.66435 4.45922 3
      vertex -1.66435 4.45922 0
    endloop
  endfacet
  facet normal 0.987688 0.156434 0
    outer loop
      vertex -1.75 5 0
      vertex -1.75 5 3
      vertex -1.66435 4.45922 0
    endloop
  endfacet
  facet normal 0.891006 0.453991 0
    outer loop
      vertex -1.66435 4.45922 3
      vertex -1.41578 3.97138 3
      vertex -1.41578 3.97138 0
    endloop
  endfacet
  facet normal 0.891006 0.453991 0
    outer loop
      vertex -1.66435 4.45922 0
      vertex -1.66435 4.45922 3
      vertex -1.41578 3.97138 0
    endloop
  endfacet
  facet normal 0.707107 0.707107 0
    outer loop
      vertex -1.02862 3.58422 3
      vertex -1.02862 3.58422 0
      vertex -1.41578 3.97138 3
    endloop
  endfacet
  facet normal 0.707107 0.707107 0
    outer loop
      vertex -1.41578 3.97138 3
      vertex -1.02862 3.58422 0
      vertex -1.41578 3.97138 0
    endloop
  endfacet
  facet normal 0.453991 0.891006 0
    outer loop
      vertex -0.54078 3.33565 3
      vertex -0.54078 3.33565 0
      vertex -1.02862 3.58422 3
    endloop
  endfacet
  facet normal 0.453991 0.891006 0
    outer loop
      vertex -1.02862 3.58422 3
      vertex -0.54078 3.33565 0
      vertex -1.02862 3.58422 0
    endloop
  endfacet
  facet normal 0.156434 0.987688 0
    outer loop
      vertex 0 3.25 3
      vertex 0 3.25 0
      vertex -0.54078 3.33565 3
    endloop
  endfacet
  facet normal 0.156434 0.987688 0
    outer loop
      vertex -0.54078 3.33565 3
      vertex 0 3.25 0
      vertex -0.54078 3.33565 0
    endloop
  endfacet
  facet normal -0.156434 0.987688 0
    outer loop
      vertex 0.54078 3.33565 3
      vertex 0.54078 3.33565 0
      vertex 0 3.25 3
    endloop
  endfacet
  facet normal -0.156434 0.987688 0
    outer loop
      vertex 0 3.25 3
      vertex 0.54078 3.33565 0
      vertex 0 3.25 0
    endloop
  endfacet
  facet normal -0.453991 0.891006 0
    outer loop
      vertex 1.02862 3.58422 3
      vertex 1.02862 3.58422 0
      vertex 0.54078 3.33565 3
    endloop
  endfacet
  facet normal -0.453991 0.891006 0
    outer loop
      vertex 0.54078 3.33565 3
      vertex 1.02862 3.58422 0
      vertex 0.54078 3.33565 0
    endloop
  endfacet
  facet normal -0.707107 0.707107 0
    outer loop
      vertex 1.41578 3.97138 3
      vertex 1.41578 3.97138 0
      vertex 1.02862 3.58422 3
    endloop
  endfacet
  facet normal -0.707107 0.707107 0
    outer loop
      vertex 1.02862 3.58422 3
      vertex 1.41578 3.97138 0
      vertex 1.02862 3.58422 0
    endloop
  endfacet
  facet normal -0.891006 0.453991 0
    outer loop
      vertex 1.66435 4.45922 3
      vertex 1.66435 4.45922 0
      vertex 1.41578 3.97138 3
    endloop
  endfacet
  facet normal -0.891006 0.453991 0
    outer loop
      vertex 1.41578 3.97138 3
      vertex 1.66435 4.45922 0
      vertex 1.41578 3.97138 0
    endloop
  endfacet
  facet normal -0.987688 0.156434 0
    outer loop
      vertex 1.75 5 3
      vertex 1.75 5 0
      vertex 1.66435 4.45922 3
    endloop
  endfacet
  facet normal -0.987688 0.156434 0
    outer loop
      vertex 1.66435 4.45922 3
      vertex 1.75 5 0
      vertex 1.66435 4.45922 0
    endloop
  endfacet
  facet normal -0.987688 -0.156434 0
    outer loop
      vertex 1.75 5 3
      vertex 1.66435 5.54078 3
      vertex 1.75 5 0
    endloop
  endfacet
  facet normal -0.987688 -0.156434 0
    outer loop
      vertex 1.75 5 0
      vertex 1.66435 5.54078 3
      vertex 1.66435 5.54078 0
    endloop
  endfacet
  facet normal -0.891006 -0.453991 0
    outer loop
      vertex 1.66435 5.54078 3
      vertex 1.41578 6.02862 3
      vertex 1.66435 5.54078 0
    endloop
  endfacet
  facet normal -0.891006 -0.453991 0
    outer loop
      vertex 1.66435 5.54078 0
      vertex 1.41578 6.02862 3
      vertex 1.41578 6.02862 0
    endloop
  endfacet
  facet normal -0.707107 -0.707107 0
    outer loop
      vertex 1.41578 6.02862 0
      vertex 1.41578 6.02862 3
      vertex 1.02862 6.41578 3
    endloop
  endfacet
  facet normal -0.707107 -0.707107 0
    outer loop
      vertex 1.02862 6.41578 0
      vertex 1.41578 6.02862 0
      vertex 1.02862 6.41578 3
    endloop
  endfacet
  facet normal -0.453991 -0.891006 0
    outer loop
      vertex 1.02862 6.41578 0
      vertex 1.02862 6.41578 3
      vertex 0.54078 6.66435 3
    endloop
  endfacet
  facet normal -0.453991 -0.891006 0
    outer loop
      vertex 0.54078 6.66435 0
      vertex 1.02862 6.41578 0
      vertex 0.54078 6.66435 3
    endloop
  endfacet
  facet normal -0.156434 -0.987688 0
    outer loop
      vertex 0.54078 6.66435 0
      vertex 0.54078 6.66435 3
      vertex 0 6.75 3
    endloop
  endfacet
  facet normal -0.156434 -0.987688 0
    outer loop
      vertex 0 6.75 0
      vertex 0.54078 6.66435 0
      vertex 0 6.75 3
    endloop
  endfacet
  facet normal 0.156434 -0.987688 0
    outer loop
      vertex 0 6.75 0
      vertex 0 6.75 3
      vertex -0.54078 6.66435 3
    endloop
  endfacet
  facet normal 0.156434 -0.987688 0
    outer loop
      vertex -0.54078 6.66435 0
      vertex 0 6.75 0
      vertex -0.54078 6.66435 3
    endloop
  endfacet
  facet normal 0.453991 -0.891006 0
    outer loop
      vertex -0.54078 6.66435 0
      vertex -0.54078 6.66435 3
      vertex -1.02862 6.41578 3
    endloop
  endfacet
  facet normal 0.453991 -0.891006 0
    outer loop
      vertex -1.02862 6.41578 0
      vertex -0.54078 6.66435 0
      vertex -1.02862 6.41578 3
    endloop
  endfacet
  facet normal 0.707107 -0.707107 0
    outer loop
      vertex -1.02862 6.41578 0
      vertex -1.02862 6.41578 3
      vertex -1.41578 6.02862 3
    endloop
  endfacet
  facet normal 0.707107 -0.707107 0
    outer loop
      vertex -1.41578 6.02862 0
      vertex -1.02862 6.41578 0
      vertex -1.41578 6.02862 3
    endloop
  endfacet
  facet normal 0.891006 -0.453991 0
    outer loop
      vertex -1.41578 6.02862 0
      vertex -1.41578 6.02862 3
      vertex -1.66435 5.54078 3
    endloop
  endfacet
  facet normal 0.891006 -0.453991 0
    outer loop
      vertex -1.66435 5.54078 0
      vertex -1.41578 6.02862 0
      vertex -1.66435 5.54078 3
    endloop
  endfacet
  facet normal 0.987688 -0.156434 0
    outer loop
      vertex -1.66435 5.54078 0
      vertex -1.66435 5.54078 3
      vertex -1.75 5 3
    endloop
  endfacet
  facet normal 0.987688 -0.156434 0
    outer loop
      vertex -1.75 5 0
      vertex -1.66435 5.54078 0
      vertex -1.75 5 3
    endloop
  endfacet
endsolid OpenSCAD_Model
