solid OpenSCAD_Model
  facet normal -1 0 0
    outer loop
      vertex -50 22 -1
      vertex -50 22 15
      vertex -50 26 -1
    endloop
  endfacet
  facet normal -1 0 0
    outer loop
      vertex -50 26 -1
      vertex -50 22 15
      vertex -50 26 15
    endloop
  endfacet
  facet normal 0 -1 0
    outer loop
      vertex -46.8753 22 6.50077
      vertex -50 22 -1
      vertex -41.5 22 -1
    endloop
  endfacet
  facet normal 0 -1 0
    outer loop
      vertex -50 22 15
      vertex -50 22 -1
      vertex -46.8753 22 6.50077
    endloop
  endfacet
  facet normal 0 -1 0
    outer loop
      vertex -50 22 15
      vertex -46.8753 22 6.50077
      vertex -47.2 22 7.5
    endloop
  endfacet
  facet normal 0 -1 0
    outer loop
      vertex -43.8 22 7.5
      vertex -44.1247 22 6.50077
      vertex -41.5 22 -1
    endloop
  endfacet
  facet normal 0 -1 0
    outer loop
      vertex -50 22 15
      vertex -47.2 22 7.5
      vertex -46.8753 22 8.49924
    endloop
  endfacet
  facet normal 0 -1 0
    outer loop
      vertex -44.9747 22 5.8832
      vertex -46.0253 22 5.8832
      vertex -41.5 22 -1
    endloop
  endfacet
  facet normal 0 -1 0
    outer loop
      vertex -41.5 22 15
      vertex -50 22 15
      vertex -46.0253 22 9.1168
    endloop
  endfacet
  facet normal 0 -1 0
    outer loop
      vertex -44.1247 22 6.50077
      vertex -44.9747 22 5.8832
      vertex -41.5 22 -1
    endloop
  endfacet
  facet normal 0 -1 0
    outer loop
      vertex -41.5 22 15
      vertex -46.0253 22 9.1168
      vertex -44.9747 22 9.1168
    endloop
  endfacet
  facet normal 0 -1 0
    outer loop
      vertex -41.5 22 15
      vertex -44.9747 22 9.1168
      vertex -44.1247 22 8.49924
    endloop
  endfacet
  facet normal 0 -1 0
    outer loop
      vertex -41.5 22 15
      vertex -43.8 22 7.5
      vertex -41.5 22 -1
    endloop
  endfacet
  facet normal 0 -1 0
    outer loop
      vertex -41.5 22 15
      vertex -44.1247 22 8.49924
      vertex -43.8 22 7.5
    endloop
  endfacet
  facet normal 0 -1 0
    outer loop
      vertex -46.0253 22 5.8832
      vertex -46.8753 22 6.50077
      vertex -41.5 22 -1
    endloop
  endfacet
  facet normal 0 -1 0
    outer loop
      vertex -46.8753 22 8.49924
      vertex -46.0253 22 9.1168
      vertex -50 22 15
    endloop
  endfacet
  facet normal 0 0 -1
    outer loop
      vertex -50 22 -1
      vertex -50 26 -1
      vertex -41.5 22 -1
    endloop
  endfacet
  facet normal 0 0 -1
    outer loop
      vertex -41.5 22 -1
      vertex -50 26 -1
      vertex 0 26 -1
    endloop
  endfacet
  facet normal 0 0 -1
    outer loop
      vertex -8.5 22 -1
      vertex 0 26 -1
      vertex 0 22 -1
    endloop
  endfacet
  facet normal 0 0 -1
    outer loop
      vertex -41.5 22 -1
      vertex 0 26 -1
      vertex -8.5 22 -1
    endloop
  endfacet
  facet normal 0 0 -1
    outer loop
      vertex -8.5 22 -1
      vertex -8.5 0 -1
      vertex -41.5 22 -1
    endloop
  endfacet
  facet normal 0 0 -1
    outer loop
      vertex -41.5 22 -1
      vertex -8.5 0 -1
      vertex -41.5 0 -1
    endloop
  endfacet
  facet normal 0 1 0
    outer loop
      vertex -44.1247 26 8.49924
      vertex -50 26 15
      vertex 0 26 -1
    endloop
  endfacet
  facet normal 0 1 0
    outer loop
      vertex -5.02533 26 9.1168
      vertex -50 26 15
      vertex 0 26 15
    endloop
  endfacet
  facet normal 0 1 0
    outer loop
      vertex -50 26 -1
      vertex -50 26 15
      vertex -47.2 26 7.5
    endloop
  endfacet
  facet normal 0 1 0
    outer loop
      vertex -50 26 -1
      vertex -47.2 26 7.5
      vertex -46.8753 26 6.50077
    endloop
  endfacet
  facet normal 0 1 0
    outer loop
      vertex -50 26 -1
      vertex -46.8753 26 6.50077
      vertex -46.0253 26 5.8832
    endloop
  endfacet
  facet normal 0 1 0
    outer loop
      vertex -50 26 -1
      vertex -46.0253 26 5.8832
      vertex 0 26 -1
    endloop
  endfacet
  facet normal 0 1 0
    outer loop
      vertex -46.0253 26 5.8832
      vertex -44.9747 26 5.8832
      vertex 0 26 -1
    endloop
  endfacet
  facet normal 0 1 0
    outer loop
      vertex -43.8 26 7.5
      vertex 0 26 -1
      vertex -44.1247 26 6.50077
    endloop
  endfacet
  facet normal 0 1 0
    outer loop
      vertex -3.97467 26 5.8832
      vertex 0 26 -1
      vertex -5.02533 26 5.8832
    endloop
  endfacet
  facet normal 0 1 0
    outer loop
      vertex -46.0253 26 9.1168
      vertex -50 26 15
      vertex -44.9747 26 9.1168
    endloop
  endfacet
  facet normal 0 1 0
    outer loop
      vertex -44.9747 26 9.1168
      vertex -50 26 15
      vertex -44.1247 26 8.49924
    endloop
  endfacet
  facet normal 0 1 0
    outer loop
      vertex -43.8 26 7.5
      vertex -44.1247 26 8.49924
      vertex 0 26 -1
    endloop
  endfacet
  facet normal 0 1 0
    outer loop
      vertex -46.8753 26 8.49924
      vertex -50 26 15
      vertex -46.0253 26 9.1168
    endloop
  endfacet
  facet normal 0 1 0
    outer loop
      vertex -47.2 26 7.5
      vertex -50 26 15
      vertex -46.8753 26 8.49924
    endloop
  endfacet
  facet normal 0 1 0
    outer loop
      vertex -5.87533 26 6.50077
      vertex -50 26 15
      vertex -6.2 26 7.5
    endloop
  endfacet
  facet normal 0 1 0
    outer loop
      vertex 0 26 -1
      vertex -50 26 15
      vertex -5.87533 26 6.50077
    endloop
  endfacet
  facet normal 0 1 0
    outer loop
      vertex 0 26 -1
      vertex -5.87533 26 6.50077
      vertex -5.02533 26 5.8832
    endloop
  endfacet
  facet normal 0 1 0
    outer loop
      vertex -3.12467 26 8.49924
      vertex 0 26 15
      vertex -2.8 26 7.5
    endloop
  endfacet
  facet normal 0 1 0
    outer loop
      vertex 0 26 -1
      vertex -3.97467 26 5.8832
      vertex -3.12467 26 6.50077
    endloop
  endfacet
  facet normal 0 1 0
    outer loop
      vertex 0 26 -1
      vertex -3.12467 26 6.50077
      vertex 0 26 15
    endloop
  endfacet
  facet normal 0 1 0
    outer loop
      vertex -3.12467 26 6.50077
      vertex -2.8 26 7.5
      vertex 0 26 15
    endloop
  endfacet
  facet normal 0 1 0
    outer loop
      vertex -5.02533 26 9.1168
      vertex 0 26 15
      vertex -3.97467 26 9.1168
    endloop
  endfacet
  facet normal 0 1 0
    outer loop
      vertex -3.12467 26 8.49924
      vertex -3.97467 26 9.1168
      vertex 0 26 15
    endloop
  endfacet
  facet normal 0 1 0
    outer loop
      vertex -5.87533 26 8.49924
      vertex -50 26 15
      vertex -5.02533 26 9.1168
    endloop
  endfacet
  facet normal 0 1 0
    outer loop
      vertex -6.2 26 7.5
      vertex -50 26 15
      vertex -5.87533 26 8.49924
    endloop
  endfacet
  facet normal 0 1 0
    outer loop
      vertex -44.1247 26 6.50077
      vertex 0 26 -1
      vertex -44.9747 26 5.8832
    endloop
  endfacet
  facet normal 0 0 1
    outer loop
      vertex -8.5 22 15
      vertex 0 22 15
      vertex -50 26 15
    endloop
  endfacet
  facet normal 0 0 1
    outer loop
      vertex -50 26 15
      vertex -50 22 15
      vertex -41.5 22 15
    endloop
  endfacet
  facet normal 0 0 1
    outer loop
      vertex -8.5 12.8 15
      vertex -50 26 15
      vertex -41.5 22 15
    endloop
  endfacet
  facet normal 0 0 1
    outer loop
      vertex -41.5 12.8 15
      vertex -8.5 12.8 15
      vertex -41.5 22 15
    endloop
  endfacet
  facet normal 0 0 1
    outer loop
      vertex -8.5 12.8 15
      vertex -8.5 22 15
      vertex -50 26 15
    endloop
  endfacet
  facet normal 0 0 1
    outer loop
      vertex 0 22 15
      vertex 0 26 15
      vertex -50 26 15
    endloop
  endfacet
  facet normal -1 0 0
    outer loop
      vertex -41.5 0 -1
      vertex -41.5 0 15
      vertex -41.5 7.5 3
    endloop
  endfacet
  facet normal -1 0 0
    outer loop
      vertex -41.5 0 -1
      vertex -41.5 7.5 3
      vertex -41.5 22 -1
    endloop
  endfacet
  facet normal -1 0 0
    outer loop
      vertex -41.5 10.8 13
      vertex -41.5 22 -1
      vertex -41.5 10.8 3
    endloop
  endfacet
  facet normal -1 0 0
    outer loop
      vertex -41.5 7.5 3
      vertex -41.5 10.8 3
      vertex -41.5 22 -1
    endloop
  endfacet
  facet normal -1 0 0
    outer loop
      vertex -41.5 10.8 13
      vertex -41.5 12.8 15
      vertex -41.5 22 -1
    endloop
  endfacet
  facet normal -1 0 0
    outer loop
      vertex -41.5 22 -1
      vertex -41.5 12.8 15
      vertex -41.5 22 15
    endloop
  endfacet
  facet normal -1 0 0
    outer loop
      vertex -41.5 7.5 3
      vertex -41.5 0 15
      vertex -41.5 6.8 15
    endloop
  endfacet
  facet normal -1 0 0
    outer loop
      vertex -41.5 7.5 3
      vertex -41.5 6.8 15
      vertex -41.5 7.5 14.3
    endloop
  endfacet
  facet normal 0.587785 -1.79638e-016 0.809017
    outer loop
      vertex -46.0253 22 5.8832
      vertex -46.0253 26 5.8832
      vertex -46.8753 26 6.50077
    endloop
  endfacet
  facet normal 0.587785 -1.79638e-016 0.809017
    outer loop
      vertex -46.8753 22 6.50077
      vertex -46.0253 22 5.8832
      vertex -46.8753 26 6.50077
    endloop
  endfacet
  facet normal 0.951057 -6.86155e-017 0.309017
    outer loop
      vertex -46.8753 22 6.50077
      vertex -46.8753 26 6.50077
      vertex -47.2 26 7.5
    endloop
  endfacet
  facet normal 0.951057 -6.86155e-017 0.309017
    outer loop
      vertex -47.2 22 7.5
      vertex -46.8753 22 6.50077
      vertex -47.2 26 7.5
    endloop
  endfacet
  facet normal 0 -2.22045e-016 1
    outer loop
      vertex -44.9747 22 5.8832
      vertex -44.9747 26 5.8832
      vertex -46.0253 26 5.8832
    endloop
  endfacet
  facet normal 0 -2.22045e-016 1
    outer loop
      vertex -46.0253 22 5.8832
      vertex -44.9747 22 5.8832
      vertex -46.0253 26 5.8832
    endloop
  endfacet
  facet normal -0.587785 -1.79638e-016 0.809017
    outer loop
      vertex -44.1247 22 6.50077
      vertex -44.1247 26 6.50077
      vertex -44.9747 26 5.8832
    endloop
  endfacet
  facet normal -0.587785 -1.79638e-016 0.809017
    outer loop
      vertex -44.9747 22 5.8832
      vertex -44.1247 22 6.50077
      vertex -44.9747 26 5.8832
    endloop
  endfacet
  facet normal -0.951057 -6.86155e-017 0.309017
    outer loop
      vertex -43.8 26 7.5
      vertex -44.1247 26 6.50077
      vertex -43.8 22 7.5
    endloop
  endfacet
  facet normal -0.951057 -6.86155e-017 0.309017
    outer loop
      vertex -43.8 22 7.5
      vertex -44.1247 26 6.50077
      vertex -44.1247 22 6.50077
    endloop
  endfacet
  facet normal -0.951057 6.86155e-017 -0.309017
    outer loop
      vertex -43.8 26 7.5
      vertex -43.8 22 7.5
      vertex -44.1247 26 8.49924
    endloop
  endfacet
  facet normal -0.951057 6.86155e-017 -0.309017
    outer loop
      vertex -44.1247 26 8.49924
      vertex -43.8 22 7.5
      vertex -44.1247 22 8.49924
    endloop
  endfacet
  facet normal -0.587785 1.79638e-016 -0.809017
    outer loop
      vertex -44.1247 26 8.49924
      vertex -44.1247 22 8.49924
      vertex -44.9747 26 9.1168
    endloop
  endfacet
  facet normal -0.587785 1.79638e-016 -0.809017
    outer loop
      vertex -44.9747 26 9.1168
      vertex -44.1247 22 8.49924
      vertex -44.9747 22 9.1168
    endloop
  endfacet
  facet normal 0 2.22045e-016 -1
    outer loop
      vertex -44.9747 26 9.1168
      vertex -44.9747 22 9.1168
      vertex -46.0253 26 9.1168
    endloop
  endfacet
  facet normal 0 2.22045e-016 -1
    outer loop
      vertex -46.0253 26 9.1168
      vertex -44.9747 22 9.1168
      vertex -46.0253 22 9.1168
    endloop
  endfacet
  facet normal 0.587785 1.79638e-016 -0.809017
    outer loop
      vertex -46.0253 26 9.1168
      vertex -46.0253 22 9.1168
      vertex -46.8753 26 8.49924
    endloop
  endfacet
  facet normal 0.587785 1.79638e-016 -0.809017
    outer loop
      vertex -46.8753 26 8.49924
      vertex -46.0253 22 9.1168
      vertex -46.8753 22 8.49924
    endloop
  endfacet
  facet normal 0.951057 6.86155e-017 -0.309017
    outer loop
      vertex -47.2 26 7.5
      vertex -46.8753 26 8.49924
      vertex -46.8753 22 8.49924
    endloop
  endfacet
  facet normal 0.951057 6.86155e-017 -0.309017
    outer loop
      vertex -47.2 22 7.5
      vertex -47.2 26 7.5
      vertex -46.8753 22 8.49924
    endloop
  endfacet
  facet normal 0 -1 0
    outer loop
      vertex -23 0 3
      vertex -41.5 0 -1
      vertex -8.5 0 -1
    endloop
  endfacet
  facet normal 0 -1 0
    outer loop
      vertex -27 0 3
      vertex -27 0 15
      vertex -41.5 0 15
    endloop
  endfacet
  facet normal 0 -1 0
    outer loop
      vertex -8.5 0 15
      vertex -23 0 15
      vertex -8.5 0 -1
    endloop
  endfacet
  facet normal 0 -1 0
    outer loop
      vertex -27 0 3
      vertex -41.5 0 -1
      vertex -23 0 3
    endloop
  endfacet
  facet normal 0 -1 0
    outer loop
      vertex -41.5 0 15
      vertex -41.5 0 -1
      vertex -27 0 3
    endloop
  endfacet
  facet normal 0 -1 0
    outer loop
      vertex -23 0 15
      vertex -23 0 3
      vertex -8.5 0 -1
    endloop
  endfacet
  facet normal 1 0 0
    outer loop
      vertex -8.5 10.8 3
      vertex -8.5 0 -1
      vertex -8.5 22 -1
    endloop
  endfacet
  facet normal 1 0 0
    outer loop
      vertex -8.5 22 15
      vertex -8.5 12.8 15
      vertex -8.5 22 -1
    endloop
  endfacet
  facet normal 1 0 0
    outer loop
      vertex -8.5 12.8 15
      vertex -8.5 10.8 13
      vertex -8.5 22 -1
    endloop
  endfacet
  facet normal 1 0 0
    outer loop
      vertex -8.5 7.5 3
      vertex -8.5 0 -1
      vertex -8.5 10.8 3
    endloop
  endfacet
  facet normal 1 0 0
    outer loop
      vertex -8.5 0 15
      vertex -8.5 0 -1
      vertex -8.5 7.5 3
    endloop
  endfacet
  facet normal 1 0 0
    outer loop
      vertex -8.5 6.8 15
      vertex -8.5 0 15
      vertex -8.5 7.5 14.3
    endloop
  endfacet
  facet normal 1 0 0
    outer loop
      vertex -8.5 10.8 13
      vertex -8.5 10.8 3
      vertex -8.5 22 -1
    endloop
  endfacet
  facet normal 1 0 0
    outer loop
      vertex -8.5 7.5 3
      vertex -8.5 7.5 14.3
      vertex -8.5 0 15
    endloop
  endfacet
  facet normal 0 -1 0
    outer loop
      vertex -5.87533 22 6.50077
      vertex -8.5 22 -1
      vertex 0 22 -1
    endloop
  endfacet
  facet normal 0 -1 0
    outer loop
      vertex -5.02533 22 5.8832
      vertex -5.87533 22 6.50077
      vertex 0 22 -1
    endloop
  endfacet
  facet normal 0 -1 0
    outer loop
      vertex -6.2 22 7.5
      vertex -8.5 22 -1
      vertex -5.87533 22 6.50077
    endloop
  endfacet
  facet normal 0 -1 0
    outer loop
      vertex -8.5 22 15
      vertex -8.5 22 -1
      vertex -6.2 22 7.5
    endloop
  endfacet
  facet normal 0 -1 0
    outer loop
      vertex -3.97467 22 5.8832
      vertex -5.02533 22 5.8832
      vertex 0 22 -1
    endloop
  endfacet
  facet normal 0 -1 0
    outer loop
      vertex 0 22 15
      vertex -8.5 22 15
      vertex -5.02533 22 9.1168
    endloop
  endfacet
  facet normal 0 -1 0
    outer loop
      vertex -3.12467 22 6.50077
      vertex -3.97467 22 5.8832
      vertex 0 22 -1
    endloop
  endfacet
  facet normal 0 -1 0
    outer loop
      vertex 0 22 15
      vertex -5.02533 22 9.1168
      vertex -3.97467 22 9.1168
    endloop
  endfacet
  facet normal 0 -1 0
    outer loop
      vertex 0 22 15
      vertex -3.12467 22 8.49924
      vertex 0 22 -1
    endloop
  endfacet
  facet normal 0 -1 0
    outer loop
      vertex 0 22 15
      vertex -3.97467 22 9.1168
      vertex -3.12467 22 8.49924
    endloop
  endfacet
  facet normal 0 -1 0
    outer loop
      vertex -3.12467 22 8.49924
      vertex -2.8 22 7.5
      vertex 0 22 -1
    endloop
  endfacet
  facet normal 0 -1 0
    outer loop
      vertex -2.8 22 7.5
      vertex -3.12467 22 6.50077
      vertex 0 22 -1
    endloop
  endfacet
  facet normal 0 -1 0
    outer loop
      vertex -6.2 22 7.5
      vertex -5.87533 22 8.49924
      vertex -8.5 22 15
    endloop
  endfacet
  facet normal 0 -1 0
    outer loop
      vertex -5.87533 22 8.49924
      vertex -5.02533 22 9.1168
      vertex -8.5 22 15
    endloop
  endfacet
  facet normal 1 0 0
    outer loop
      vertex 0 22 15
      vertex 0 22 -1
      vertex 0 26 -1
    endloop
  endfacet
  facet normal 1 0 0
    outer loop
      vertex 0 26 15
      vertex 0 22 15
      vertex 0 26 -1
    endloop
  endfacet
  facet normal 0.951057 -6.86155e-017 0.309017
    outer loop
      vertex -5.87533 22 6.50077
      vertex -5.87533 26 6.50077
      vertex -6.2 26 7.5
    endloop
  endfacet
  facet normal 0.951057 -6.86155e-017 0.309017
    outer loop
      vertex -6.2 22 7.5
      vertex -5.87533 22 6.50077
      vertex -6.2 26 7.5
    endloop
  endfacet
  facet normal 0.951057 6.86155e-017 -0.309017
    outer loop
      vertex -6.2 26 7.5
      vertex -5.87533 26 8.49924
      vertex -5.87533 22 8.49924
    endloop
  endfacet
  facet normal 0.951057 6.86155e-017 -0.309017
    outer loop
      vertex -6.2 22 7.5
      vertex -6.2 26 7.5
      vertex -5.87533 22 8.49924
    endloop
  endfacet
  facet normal 0.587785 1.79638e-016 -0.809017
    outer loop
      vertex -5.02533 26 9.1168
      vertex -5.02533 22 9.1168
      vertex -5.87533 26 8.49924
    endloop
  endfacet
  facet normal 0.587785 1.79638e-016 -0.809017
    outer loop
      vertex -5.87533 26 8.49924
      vertex -5.02533 22 9.1168
      vertex -5.87533 22 8.49924
    endloop
  endfacet
  facet normal 0 2.22045e-016 -1
    outer loop
      vertex -3.97467 26 9.1168
      vertex -3.97467 22 9.1168
      vertex -5.02533 26 9.1168
    endloop
  endfacet
  facet normal 0 2.22045e-016 -1
    outer loop
      vertex -5.02533 26 9.1168
      vertex -3.97467 22 9.1168
      vertex -5.02533 22 9.1168
    endloop
  endfacet
  facet normal -0.587785 1.79638e-016 -0.809017
    outer loop
      vertex -3.12467 26 8.49924
      vertex -3.12467 22 8.49924
      vertex -3.97467 26 9.1168
    endloop
  endfacet
  facet normal -0.587785 1.79638e-016 -0.809017
    outer loop
      vertex -3.97467 26 9.1168
      vertex -3.12467 22 8.49924
      vertex -3.97467 22 9.1168
    endloop
  endfacet
  facet normal -0.951057 6.86155e-017 -0.309017
    outer loop
      vertex -2.8 26 7.5
      vertex -2.8 22 7.5
      vertex -3.12467 26 8.49924
    endloop
  endfacet
  facet normal -0.951057 6.86155e-017 -0.309017
    outer loop
      vertex -3.12467 26 8.49924
      vertex -2.8 22 7.5
      vertex -3.12467 22 8.49924
    endloop
  endfacet
  facet normal -0.951057 -6.86155e-017 0.309017
    outer loop
      vertex -2.8 26 7.5
      vertex -3.12467 26 6.50077
      vertex -2.8 22 7.5
    endloop
  endfacet
  facet normal -0.951057 -6.86155e-017 0.309017
    outer loop
      vertex -2.8 22 7.5
      vertex -3.12467 26 6.50077
      vertex -3.12467 22 6.50077
    endloop
  endfacet
  facet normal -0.587785 -1.79638e-016 0.809017
    outer loop
      vertex -3.12467 22 6.50077
      vertex -3.12467 26 6.50077
      vertex -3.97467 26 5.8832
    endloop
  endfacet
  facet normal -0.587785 -1.79638e-016 0.809017
    outer loop
      vertex -3.97467 22 5.8832
      vertex -3.12467 22 6.50077
      vertex -3.97467 26 5.8832
    endloop
  endfacet
  facet normal 0 -2.22045e-016 1
    outer loop
      vertex -3.97467 22 5.8832
      vertex -3.97467 26 5.8832
      vertex -5.02533 26 5.8832
    endloop
  endfacet
  facet normal 0 -2.22045e-016 1
    outer loop
      vertex -5.02533 22 5.8832
      vertex -3.97467 22 5.8832
      vertex -5.02533 26 5.8832
    endloop
  endfacet
  facet normal 0.587785 -1.79638e-016 0.809017
    outer loop
      vertex -5.02533 22 5.8832
      vertex -5.02533 26 5.8832
      vertex -5.87533 26 6.50077
    endloop
  endfacet
  facet normal 0.587785 -1.79638e-016 0.809017
    outer loop
      vertex -5.87533 22 6.50077
      vertex -5.02533 22 5.8832
      vertex -5.87533 26 6.50077
    endloop
  endfacet
  facet normal 0 -0.707107 0.707107
    outer loop
      vertex -8.5 10.8 13
      vertex -8.5 12.8 15
      vertex -41.5 12.8 15
    endloop
  endfacet
  facet normal 0 -0.707107 0.707107
    outer loop
      vertex -41.5 10.8 13
      vertex -8.5 10.8 13
      vertex -41.5 12.8 15
    endloop
  endfacet
  facet normal 0 -1 0
    outer loop
      vertex -8.5 10.8 3
      vertex -8.5 10.8 13
      vertex -41.5 10.8 13
    endloop
  endfacet
  facet normal 0 -1 0
    outer loop
      vertex -41.5 10.8 3
      vertex -8.5 10.8 3
      vertex -41.5 10.8 13
    endloop
  endfacet
  facet normal 0 0 1
    outer loop
      vertex -8.5 10.8 3
      vertex -41.2 9.8 3
      vertex -40.6 9.8 3
    endloop
  endfacet
  facet normal 0 0 1
    outer loop
      vertex -39.2 9.8 3
      vertex -8.5 10.8 3
      vertex -40.6 9.8 3
    endloop
  endfacet
  facet normal 0 0 1
    outer loop
      vertex -41.2 7.5 3
      vertex -41.2 9.8 3
      vertex -41.5 10.8 3
    endloop
  endfacet
  facet normal 0 0 1
    outer loop
      vertex -40.6 7.5 3
      vertex -39.2 7.5 3
      vertex -40.6 9.8 3
    endloop
  endfacet
  facet normal 0 0 1
    outer loop
      vertex -39.2 7.5 3
      vertex -39.2 9.8 3
      vertex -40.6 9.8 3
    endloop
  endfacet
  facet normal 0 0 1
    outer loop
      vertex -38.6 9.8 3
      vertex -8.5 10.8 3
      vertex -39.2 9.8 3
    endloop
  endfacet
  facet normal 0 0 1
    outer loop
      vertex -37.2 9.8 3
      vertex -8.5 10.8 3
      vertex -38.6 9.8 3
    endloop
  endfacet
  facet normal 0 0 1
    outer loop
      vertex -38.6 7.5 3
      vertex -37.2 7.5 3
      vertex -38.6 9.8 3
    endloop
  endfacet
  facet normal 0 0 1
    outer loop
      vertex -37.2 7.5 3
      vertex -37.2 9.8 3
      vertex -38.6 9.8 3
    endloop
  endfacet
  facet normal 0 0 1
    outer loop
      vertex -36.6 9.8 3
      vertex -8.5 10.8 3
      vertex -37.2 9.8 3
    endloop
  endfacet
  facet normal 0 0 1
    outer loop
      vertex -35.2 9.8 3
      vertex -8.5 10.8 3
      vertex -36.6 9.8 3
    endloop
  endfacet
  facet normal 0 0 1
    outer loop
      vertex -36.6 7.5 3
      vertex -35.2 7.5 3
      vertex -36.6 9.8 3
    endloop
  endfacet
  facet normal 0 0 1
    outer loop
      vertex -35.2 7.5 3
      vertex -35.2 9.8 3
      vertex -36.6 9.8 3
    endloop
  endfacet
  facet normal 0 0 1
    outer loop
      vertex -34.6 9.8 3
      vertex -8.5 10.8 3
      vertex -35.2 9.8 3
    endloop
  endfacet
  facet normal 0 0 1
    outer loop
      vertex -33.2 9.8 3
      vertex -8.5 10.8 3
      vertex -34.6 9.8 3
    endloop
  endfacet
  facet normal 0 0 1
    outer loop
      vertex -34.6 7.5 3
      vertex -33.2 7.5 3
      vertex -34.6 9.8 3
    endloop
  endfacet
  facet normal 0 0 1
    outer loop
      vertex -33.2 7.5 3
      vertex -33.2 9.8 3
      vertex -34.6 9.8 3
    endloop
  endfacet
  facet normal 0 0 1
    outer loop
      vertex -32.6 9.8 3
      vertex -8.5 10.8 3
      vertex -33.2 9.8 3
    endloop
  endfacet
  facet normal 0 0 1
    outer loop
      vertex -31.2 9.8 3
      vertex -8.5 10.8 3
      vertex -32.6 9.8 3
    endloop
  endfacet
  facet normal 0 0 1
    outer loop
      vertex -32.6 7.5 3
      vertex -31.2 7.5 3
      vertex -32.6 9.8 3
    endloop
  endfacet
  facet normal 0 0 1
    outer loop
      vertex -31.2 7.5 3
      vertex -31.2 9.8 3
      vertex -32.6 9.8 3
    endloop
  endfacet
  facet normal 0 0 1
    outer loop
      vertex -30.6 9.8 3
      vertex -8.5 10.8 3
      vertex -31.2 9.8 3
    endloop
  endfacet
  facet normal 0 0 1
    outer loop
      vertex -29.2 9.8 3
      vertex -8.5 10.8 3
      vertex -30.6 9.8 3
    endloop
  endfacet
  facet normal 0 0 1
    outer loop
      vertex -30.6 7.5 3
      vertex -29.2 7.5 3
      vertex -30.6 9.8 3
    endloop
  endfacet
  facet normal 0 0 1
    outer loop
      vertex -29.2 7.5 3
      vertex -29.2 9.8 3
      vertex -30.6 9.8 3
    endloop
  endfacet
  facet normal 0 0 1
    outer loop
      vertex -28.6 9.8 3
      vertex -8.5 10.8 3
      vertex -29.2 9.8 3
    endloop
  endfacet
  facet normal 0 0 1
    outer loop
      vertex -27.2 9.8 3
      vertex -8.5 10.8 3
      vertex -28.6 9.8 3
    endloop
  endfacet
  facet normal 0 0 1
    outer loop
      vertex -28.6 7.5 3
      vertex -27.2 7.5 3
      vertex -28.6 9.8 3
    endloop
  endfacet
  facet normal 0 0 1
    outer loop
      vertex -27.2 7.5 3
      vertex -27.2 9.8 3
      vertex -28.6 9.8 3
    endloop
  endfacet
  facet normal 0 0 1
    outer loop
      vertex -27 9.8 3
      vertex -8.5 10.8 3
      vertex -27.2 9.8 3
    endloop
  endfacet
  facet normal 0 0 1
    outer loop
      vertex -23 9.8 3
      vertex -8.5 10.8 3
      vertex -27 9.8 3
    endloop
  endfacet
  facet normal 0 0 1
    outer loop
      vertex -27 0 3
      vertex -23 0 3
      vertex -27 9.8 3
    endloop
  endfacet
  facet normal 0 0 1
    outer loop
      vertex -23 0 3
      vertex -23 9.8 3
      vertex -27 9.8 3
    endloop
  endfacet
  facet normal 0 0 1
    outer loop
      vertex -22.6 9.8 3
      vertex -8.5 10.8 3
      vertex -23 9.8 3
    endloop
  endfacet
  facet normal 0 0 1
    outer loop
      vertex -22.6 7.5 3
      vertex -21.2 7.5 3
      vertex -22.6 9.8 3
    endloop
  endfacet
  facet normal 0 0 1
    outer loop
      vertex -21.2 9.8 3
      vertex -8.5 10.8 3
      vertex -22.6 9.8 3
    endloop
  endfacet
  facet normal 0 0 1
    outer loop
      vertex -20.6 7.5 3
      vertex -19.2 7.5 3
      vertex -20.6 9.8 3
    endloop
  endfacet
  facet normal 0 0 1
    outer loop
      vertex -21.2 7.5 3
      vertex -21.2 9.8 3
      vertex -22.6 9.8 3
    endloop
  endfacet
  facet normal 0 0 1
    outer loop
      vertex -20.6 9.8 3
      vertex -8.5 10.8 3
      vertex -21.2 9.8 3
    endloop
  endfacet
  facet normal 0 0 1
    outer loop
      vertex -19.2 9.8 3
      vertex -8.5 10.8 3
      vertex -20.6 9.8 3
    endloop
  endfacet
  facet normal 0 0 1
    outer loop
      vertex -19.2 7.5 3
      vertex -19.2 9.8 3
      vertex -20.6 9.8 3
    endloop
  endfacet
  facet normal 0 0 1
    outer loop
      vertex -18.6 9.8 3
      vertex -8.5 10.8 3
      vertex -19.2 9.8 3
    endloop
  endfacet
  facet normal 0 0 1
    outer loop
      vertex -17.2 9.8 3
      vertex -8.5 10.8 3
      vertex -18.6 9.8 3
    endloop
  endfacet
  facet normal 0 0 1
    outer loop
      vertex -18.6 7.5 3
      vertex -17.2 7.5 3
      vertex -18.6 9.8 3
    endloop
  endfacet
  facet normal 0 0 1
    outer loop
      vertex -17.2 7.5 3
      vertex -17.2 9.8 3
      vertex -18.6 9.8 3
    endloop
  endfacet
  facet normal 0 0 1
    outer loop
      vertex -16.6 9.8 3
      vertex -8.5 10.8 3
      vertex -17.2 9.8 3
    endloop
  endfacet
  facet normal 0 0 1
    outer loop
      vertex -15.2 9.8 3
      vertex -8.5 10.8 3
      vertex -16.6 9.8 3
    endloop
  endfacet
  facet normal 0 0 1
    outer loop
      vertex -16.6 7.5 3
      vertex -15.2 7.5 3
      vertex -16.6 9.8 3
    endloop
  endfacet
  facet normal 0 0 1
    outer loop
      vertex -15.2 7.5 3
      vertex -15.2 9.8 3
      vertex -16.6 9.8 3
    endloop
  endfacet
  facet normal 0 0 1
    outer loop
      vertex -14.6 9.8 3
      vertex -8.5 10.8 3
      vertex -15.2 9.8 3
    endloop
  endfacet
  facet normal 0 0 1
    outer loop
      vertex -13.2 9.8 3
      vertex -8.5 10.8 3
      vertex -14.6 9.8 3
    endloop
  endfacet
  facet normal 0 0 1
    outer loop
      vertex -14.6 7.5 3
      vertex -13.2 7.5 3
      vertex -14.6 9.8 3
    endloop
  endfacet
  facet normal 0 0 1
    outer loop
      vertex -13.2 7.5 3
      vertex -13.2 9.8 3
      vertex -14.6 9.8 3
    endloop
  endfacet
  facet normal 0 0 1
    outer loop
      vertex -12.6 9.8 3
      vertex -8.5 10.8 3
      vertex -13.2 9.8 3
    endloop
  endfacet
  facet normal 0 0 1
    outer loop
      vertex -11.2 9.8 3
      vertex -8.5 10.8 3
      vertex -12.6 9.8 3
    endloop
  endfacet
  facet normal 0 0 1
    outer loop
      vertex -12.6 7.5 3
      vertex -11.2 7.5 3
      vertex -12.6 9.8 3
    endloop
  endfacet
  facet normal 0 0 1
    outer loop
      vertex -11.2 7.5 3
      vertex -11.2 9.8 3
      vertex -12.6 9.8 3
    endloop
  endfacet
  facet normal 0 0 1
    outer loop
      vertex -10.6 9.8 3
      vertex -8.5 10.8 3
      vertex -11.2 9.8 3
    endloop
  endfacet
  facet normal 0 0 1
    outer loop
      vertex -9.2 9.8 3
      vertex -8.5 10.8 3
      vertex -10.6 9.8 3
    endloop
  endfacet
  facet normal 0 0 1
    outer loop
      vertex -10.6 7.5 3
      vertex -9.2 7.5 3
      vertex -10.6 9.8 3
    endloop
  endfacet
  facet normal 0 0 1
    outer loop
      vertex -9.2 7.5 3
      vertex -9.2 9.8 3
      vertex -10.6 9.8 3
    endloop
  endfacet
  facet normal 0 0 1
    outer loop
      vertex -8.6 9.8 3
      vertex -8.5 10.8 3
      vertex -9.2 9.8 3
    endloop
  endfacet
  facet normal 0 0 1
    outer loop
      vertex -8.6 7.5 3
      vertex -8.5 7.5 3
      vertex -8.6 9.8 3
    endloop
  endfacet
  facet normal 0 0 1
    outer loop
      vertex -8.5 7.5 3
      vertex -8.5 10.8 3
      vertex -8.6 9.8 3
    endloop
  endfacet
  facet normal 0 0 1
    outer loop
      vertex -8.5 10.8 3
      vertex -41.5 10.8 3
      vertex -41.2 9.8 3
    endloop
  endfacet
  facet normal 0 0 1
    outer loop
      vertex -41.5 10.8 3
      vertex -41.5 7.5 3
      vertex -41.2 7.5 3
    endloop
  endfacet
  facet normal 0 1 0
    outer loop
      vertex -41.2 7.5 14.3
      vertex -41.2 7.5 3
      vertex -41.5 7.5 14.3
    endloop
  endfacet
  facet normal 0 1 0
    outer loop
      vertex -41.5 7.5 14.3
      vertex -41.2 7.5 3
      vertex -41.5 7.5 3
    endloop
  endfacet
  facet normal 0 0.707107 0.707107
    outer loop
      vertex -27 6.8 15
      vertex -27 9.8 12
      vertex -27.2 9.8 12
    endloop
  endfacet
  facet normal 0 0.707107 0.707107
    outer loop
      vertex -28.6 7.5 14.3
      vertex -27 6.8 15
      vertex -27.2 7.5 14.3
    endloop
  endfacet
  facet normal 0 0.707107 0.707107
    outer loop
      vertex -27.2 7.5 14.3
      vertex -27 6.8 15
      vertex -27.2 9.8 12
    endloop
  endfacet
  facet normal 0 0.707107 0.707107
    outer loop
      vertex -29.2 7.5 14.3
      vertex -27 6.8 15
      vertex -28.6 7.5 14.3
    endloop
  endfacet
  facet normal 0 0.707107 0.707107
    outer loop
      vertex -29.2 9.8 12
      vertex -28.6 7.5 14.3
      vertex -28.6 9.8 12
    endloop
  endfacet
  facet normal 0 0.707107 0.707107
    outer loop
      vertex -29.2 7.5 14.3
      vertex -28.6 7.5 14.3
      vertex -29.2 9.8 12
    endloop
  endfacet
  facet normal 0 0.707107 0.707107
    outer loop
      vertex -30.6 7.5 14.3
      vertex -27 6.8 15
      vertex -29.2 7.5 14.3
    endloop
  endfacet
  facet normal 0 0.707107 0.707107
    outer loop
      vertex -31.2 7.5 14.3
      vertex -27 6.8 15
      vertex -30.6 7.5 14.3
    endloop
  endfacet
  facet normal 0 0.707107 0.707107
    outer loop
      vertex -31.2 9.8 12
      vertex -30.6 7.5 14.3
      vertex -30.6 9.8 12
    endloop
  endfacet
  facet normal 0 0.707107 0.707107
    outer loop
      vertex -31.2 7.5 14.3
      vertex -30.6 7.5 14.3
      vertex -31.2 9.8 12
    endloop
  endfacet
  facet normal 0 0.707107 0.707107
    outer loop
      vertex -32.6 7.5 14.3
      vertex -27 6.8 15
      vertex -31.2 7.5 14.3
    endloop
  endfacet
  facet normal 0 0.707107 0.707107
    outer loop
      vertex -33.2 7.5 14.3
      vertex -27 6.8 15
      vertex -32.6 7.5 14.3
    endloop
  endfacet
  facet normal 0 0.707107 0.707107
    outer loop
      vertex -33.2 9.8 12
      vertex -32.6 7.5 14.3
      vertex -32.6 9.8 12
    endloop
  endfacet
  facet normal 0 0.707107 0.707107
    outer loop
      vertex -33.2 7.5 14.3
      vertex -32.6 7.5 14.3
      vertex -33.2 9.8 12
    endloop
  endfacet
  facet normal 0 0.707107 0.707107
    outer loop
      vertex -34.6 7.5 14.3
      vertex -27 6.8 15
      vertex -33.2 7.5 14.3
    endloop
  endfacet
  facet normal 0 0.707107 0.707107
    outer loop
      vertex -35.2 7.5 14.3
      vertex -27 6.8 15
      vertex -34.6 7.5 14.3
    endloop
  endfacet
  facet normal 0 0.707107 0.707107
    outer loop
      vertex -35.2 9.8 12
      vertex -34.6 7.5 14.3
      vertex -34.6 9.8 12
    endloop
  endfacet
  facet normal 0 0.707107 0.707107
    outer loop
      vertex -35.2 7.5 14.3
      vertex -34.6 7.5 14.3
      vertex -35.2 9.8 12
    endloop
  endfacet
  facet normal 0 0.707107 0.707107
    outer loop
      vertex -36.6 7.5 14.3
      vertex -27 6.8 15
      vertex -35.2 7.5 14.3
    endloop
  endfacet
  facet normal 0 0.707107 0.707107
    outer loop
      vertex -37.2 7.5 14.3
      vertex -27 6.8 15
      vertex -36.6 7.5 14.3
    endloop
  endfacet
  facet normal 0 0.707107 0.707107
    outer loop
      vertex -37.2 9.8 12
      vertex -36.6 7.5 14.3
      vertex -36.6 9.8 12
    endloop
  endfacet
  facet normal 0 0.707107 0.707107
    outer loop
      vertex -37.2 7.5 14.3
      vertex -36.6 7.5 14.3
      vertex -37.2 9.8 12
    endloop
  endfacet
  facet normal 0 0.707107 0.707107
    outer loop
      vertex -38.6 7.5 14.3
      vertex -27 6.8 15
      vertex -37.2 7.5 14.3
    endloop
  endfacet
  facet normal 0 0.707107 0.707107
    outer loop
      vertex -39.2 7.5 14.3
      vertex -27 6.8 15
      vertex -38.6 7.5 14.3
    endloop
  endfacet
  facet normal 0 0.707107 0.707107
    outer loop
      vertex -39.2 9.8 12
      vertex -38.6 7.5 14.3
      vertex -38.6 9.8 12
    endloop
  endfacet
  facet normal 0 0.707107 0.707107
    outer loop
      vertex -39.2 7.5 14.3
      vertex -38.6 7.5 14.3
      vertex -39.2 9.8 12
    endloop
  endfacet
  facet normal 0 0.707107 0.707107
    outer loop
      vertex -40.6 7.5 14.3
      vertex -27 6.8 15
      vertex -39.2 7.5 14.3
    endloop
  endfacet
  facet normal 0 0.707107 0.707107
    outer loop
      vertex -41.2 7.5 14.3
      vertex -27 6.8 15
      vertex -40.6 7.5 14.3
    endloop
  endfacet
  facet normal 0 0.707107 0.707107
    outer loop
      vertex -41.2 9.8 12
      vertex -40.6 7.5 14.3
      vertex -40.6 9.8 12
    endloop
  endfacet
  facet normal 0 0.707107 0.707107
    outer loop
      vertex -41.2 7.5 14.3
      vertex -40.6 7.5 14.3
      vertex -41.2 9.8 12
    endloop
  endfacet
  facet normal 0 0.707107 0.707107
    outer loop
      vertex -41.5 7.5 14.3
      vertex -27 6.8 15
      vertex -41.2 7.5 14.3
    endloop
  endfacet
  facet normal 0 0.707107 0.707107
    outer loop
      vertex -41.5 6.8 15
      vertex -27 6.8 15
      vertex -41.5 7.5 14.3
    endloop
  endfacet
  facet normal 0 0 1
    outer loop
      vertex -41.5 6.8 15
      vertex -41.5 0 15
      vertex -27 0 15
    endloop
  endfacet
  facet normal 0 0 1
    outer loop
      vertex -27 6.8 15
      vertex -41.5 6.8 15
      vertex -27 0 15
    endloop
  endfacet
  facet normal 1 0 0
    outer loop
      vertex -27 9.8 3
      vertex -27 9.8 12
      vertex -27 6.8 15
    endloop
  endfacet
  facet normal 1 0 0
    outer loop
      vertex -27 0 3
      vertex -27 9.8 3
      vertex -27 0 15
    endloop
  endfacet
  facet normal 1 0 0
    outer loop
      vertex -27 0 15
      vertex -27 9.8 3
      vertex -27 6.8 15
    endloop
  endfacet
  facet normal -1 0 0
    outer loop
      vertex -23 6.8 15
      vertex -23 9.8 12
      vertex -23 0 15
    endloop
  endfacet
  facet normal -1 0 0
    outer loop
      vertex -23 0 15
      vertex -23 9.8 12
      vertex -23 9.8 3
    endloop
  endfacet
  facet normal -1 0 0
    outer loop
      vertex -23 0 15
      vertex -23 9.8 3
      vertex -23 0 3
    endloop
  endfacet
  facet normal 0 0 1
    outer loop
      vertex -23 6.8 15
      vertex -23 0 15
      vertex -8.5 0 15
    endloop
  endfacet
  facet normal 0 0 1
    outer loop
      vertex -8.5 6.8 15
      vertex -23 6.8 15
      vertex -8.5 0 15
    endloop
  endfacet
  facet normal 0 0.707107 0.707107
    outer loop
      vertex -9.2 7.5 14.3
      vertex -10.6 7.5 14.3
      vertex -8.5 6.8 15
    endloop
  endfacet
  facet normal 0 0.707107 0.707107
    outer loop
      vertex -8.5 6.8 15
      vertex -8.5 7.5 14.3
      vertex -8.6 7.5 14.3
    endloop
  endfacet
  facet normal 0 0.707107 0.707107
    outer loop
      vertex -9.2 9.8 12
      vertex -8.5 6.8 15
      vertex -8.6 7.5 14.3
    endloop
  endfacet
  facet normal 0 0.707107 0.707107
    outer loop
      vertex -8.6 9.8 12
      vertex -9.2 9.8 12
      vertex -8.6 7.5 14.3
    endloop
  endfacet
  facet normal 0 0.707107 0.707107
    outer loop
      vertex -9.2 9.8 12
      vertex -9.2 7.5 14.3
      vertex -8.5 6.8 15
    endloop
  endfacet
  facet normal 0 0.707107 0.707107
    outer loop
      vertex -10.6 7.5 14.3
      vertex -11.2 7.5 14.3
      vertex -8.5 6.8 15
    endloop
  endfacet
  facet normal 0 0.707107 0.707107
    outer loop
      vertex -12.6 7.5 14.3
      vertex -13.2 7.5 14.3
      vertex -8.5 6.8 15
    endloop
  endfacet
  facet normal 0 0.707107 0.707107
    outer loop
      vertex -10.6 9.8 12
      vertex -11.2 9.8 12
      vertex -10.6 7.5 14.3
    endloop
  endfacet
  facet normal 0 0.707107 0.707107
    outer loop
      vertex -11.2 9.8 12
      vertex -11.2 7.5 14.3
      vertex -10.6 7.5 14.3
    endloop
  endfacet
  facet normal 0 0.707107 0.707107
    outer loop
      vertex -14.6 7.5 14.3
      vertex -15.2 7.5 14.3
      vertex -8.5 6.8 15
    endloop
  endfacet
  facet normal 0 0.707107 0.707107
    outer loop
      vertex -11.2 7.5 14.3
      vertex -12.6 7.5 14.3
      vertex -8.5 6.8 15
    endloop
  endfacet
  facet normal 0 0.707107 0.707107
    outer loop
      vertex -12.6 9.8 12
      vertex -13.2 9.8 12
      vertex -12.6 7.5 14.3
    endloop
  endfacet
  facet normal 0 0.707107 0.707107
    outer loop
      vertex -13.2 9.8 12
      vertex -13.2 7.5 14.3
      vertex -12.6 7.5 14.3
    endloop
  endfacet
  facet normal 0 0.707107 0.707107
    outer loop
      vertex -16.6 7.5 14.3
      vertex -17.2 7.5 14.3
      vertex -8.5 6.8 15
    endloop
  endfacet
  facet normal 0 0.707107 0.707107
    outer loop
      vertex -13.2 7.5 14.3
      vertex -14.6 7.5 14.3
      vertex -8.5 6.8 15
    endloop
  endfacet
  facet normal 0 0.707107 0.707107
    outer loop
      vertex -14.6 9.8 12
      vertex -15.2 9.8 12
      vertex -14.6 7.5 14.3
    endloop
  endfacet
  facet normal 0 0.707107 0.707107
    outer loop
      vertex -15.2 9.8 12
      vertex -15.2 7.5 14.3
      vertex -14.6 7.5 14.3
    endloop
  endfacet
  facet normal 0 0.707107 0.707107
    outer loop
      vertex -18.6 7.5 14.3
      vertex -19.2 7.5 14.3
      vertex -8.5 6.8 15
    endloop
  endfacet
  facet normal 0 0.707107 0.707107
    outer loop
      vertex -15.2 7.5 14.3
      vertex -16.6 7.5 14.3
      vertex -8.5 6.8 15
    endloop
  endfacet
  facet normal 0 0.707107 0.707107
    outer loop
      vertex -16.6 9.8 12
      vertex -17.2 9.8 12
      vertex -16.6 7.5 14.3
    endloop
  endfacet
  facet normal 0 0.707107 0.707107
    outer loop
      vertex -17.2 9.8 12
      vertex -17.2 7.5 14.3
      vertex -16.6 7.5 14.3
    endloop
  endfacet
  facet normal 0 0.707107 0.707107
    outer loop
      vertex -20.6 7.5 14.3
      vertex -21.2 7.5 14.3
      vertex -8.5 6.8 15
    endloop
  endfacet
  facet normal 0 0.707107 0.707107
    outer loop
      vertex -17.2 7.5 14.3
      vertex -18.6 7.5 14.3
      vertex -8.5 6.8 15
    endloop
  endfacet
  facet normal 0 0.707107 0.707107
    outer loop
      vertex -18.6 9.8 12
      vertex -19.2 9.8 12
      vertex -18.6 7.5 14.3
    endloop
  endfacet
  facet normal 0 0.707107 0.707107
    outer loop
      vertex -19.2 9.8 12
      vertex -19.2 7.5 14.3
      vertex -18.6 7.5 14.3
    endloop
  endfacet
  facet normal 0 0.707107 0.707107
    outer loop
      vertex -22.6 7.5 14.3
      vertex -23 6.8 15
      vertex -8.5 6.8 15
    endloop
  endfacet
  facet normal 0 0.707107 0.707107
    outer loop
      vertex -19.2 7.5 14.3
      vertex -20.6 7.5 14.3
      vertex -8.5 6.8 15
    endloop
  endfacet
  facet normal 0 0.707107 0.707107
    outer loop
      vertex -20.6 9.8 12
      vertex -21.2 9.8 12
      vertex -20.6 7.5 14.3
    endloop
  endfacet
  facet normal 0 0.707107 0.707107
    outer loop
      vertex -21.2 9.8 12
      vertex -21.2 7.5 14.3
      vertex -20.6 7.5 14.3
    endloop
  endfacet
  facet normal 0 0.707107 0.707107
    outer loop
      vertex -21.2 7.5 14.3
      vertex -22.6 7.5 14.3
      vertex -8.5 6.8 15
    endloop
  endfacet
  facet normal 0 0.707107 0.707107
    outer loop
      vertex -22.6 9.8 12
      vertex -23 9.8 12
      vertex -22.6 7.5 14.3
    endloop
  endfacet
  facet normal 0 0.707107 0.707107
    outer loop
      vertex -23 9.8 12
      vertex -23 6.8 15
      vertex -22.6 7.5 14.3
    endloop
  endfacet
  facet normal 0 1 0
    outer loop
      vertex -8.5 7.5 14.3
      vertex -8.5 7.5 3
      vertex -8.6 7.5 14.3
    endloop
  endfacet
  facet normal 0 1 0
    outer loop
      vertex -8.6 7.5 14.3
      vertex -8.5 7.5 3
      vertex -8.6 7.5 3
    endloop
  endfacet
  facet normal -1 0 0
    outer loop
      vertex -41.2 9.8 12
      vertex -41.2 9.8 3
      vertex -41.2 7.5 14.3
    endloop
  endfacet
  facet normal -1 0 0
    outer loop
      vertex -41.2 7.5 14.3
      vertex -41.2 9.8 3
      vertex -41.2 7.5 3
    endloop
  endfacet
  facet normal 1 0 0
    outer loop
      vertex -8.6 9.8 3
      vertex -8.6 9.8 12
      vertex -8.6 7.5 14.3
    endloop
  endfacet
  facet normal 1 0 0
    outer loop
      vertex -8.6 7.5 3
      vertex -8.6 9.8 3
      vertex -8.6 7.5 14.3
    endloop
  endfacet
  facet normal 0 1 0
    outer loop
      vertex -8.6 9.8 12
      vertex -8.6 9.8 3
      vertex -9.2 9.8 12
    endloop
  endfacet
  facet normal 0 1 0
    outer loop
      vertex -9.2 9.8 12
      vertex -8.6 9.8 3
      vertex -9.2 9.8 3
    endloop
  endfacet
  facet normal -1 0 0
    outer loop
      vertex -9.2 9.8 12
      vertex -9.2 9.8 3
      vertex -9.2 7.5 14.3
    endloop
  endfacet
  facet normal -1 0 0
    outer loop
      vertex -9.2 7.5 14.3
      vertex -9.2 9.8 3
      vertex -9.2 7.5 3
    endloop
  endfacet
  facet normal 0 1 0
    outer loop
      vertex -9.2 7.5 14.3
      vertex -9.2 7.5 3
      vertex -10.6 7.5 14.3
    endloop
  endfacet
  facet normal 0 1 0
    outer loop
      vertex -10.6 7.5 14.3
      vertex -9.2 7.5 3
      vertex -10.6 7.5 3
    endloop
  endfacet
  facet normal 1 0 0
    outer loop
      vertex -10.6 9.8 3
      vertex -10.6 9.8 12
      vertex -10.6 7.5 14.3
    endloop
  endfacet
  facet normal 1 0 0
    outer loop
      vertex -10.6 7.5 3
      vertex -10.6 9.8 3
      vertex -10.6 7.5 14.3
    endloop
  endfacet
  facet normal 0 1 0
    outer loop
      vertex -10.6 9.8 12
      vertex -10.6 9.8 3
      vertex -11.2 9.8 12
    endloop
  endfacet
  facet normal 0 1 0
    outer loop
      vertex -11.2 9.8 12
      vertex -10.6 9.8 3
      vertex -11.2 9.8 3
    endloop
  endfacet
  facet normal -1 0 0
    outer loop
      vertex -11.2 9.8 12
      vertex -11.2 9.8 3
      vertex -11.2 7.5 14.3
    endloop
  endfacet
  facet normal -1 0 0
    outer loop
      vertex -11.2 7.5 14.3
      vertex -11.2 9.8 3
      vertex -11.2 7.5 3
    endloop
  endfacet
  facet normal 0 1 0
    outer loop
      vertex -11.2 7.5 14.3
      vertex -11.2 7.5 3
      vertex -12.6 7.5 14.3
    endloop
  endfacet
  facet normal 0 1 0
    outer loop
      vertex -12.6 7.5 14.3
      vertex -11.2 7.5 3
      vertex -12.6 7.5 3
    endloop
  endfacet
  facet normal 1 0 0
    outer loop
      vertex -12.6 9.8 3
      vertex -12.6 9.8 12
      vertex -12.6 7.5 14.3
    endloop
  endfacet
  facet normal 1 0 0
    outer loop
      vertex -12.6 7.5 3
      vertex -12.6 9.8 3
      vertex -12.6 7.5 14.3
    endloop
  endfacet
  facet normal 0 1 0
    outer loop
      vertex -12.6 9.8 12
      vertex -12.6 9.8 3
      vertex -13.2 9.8 12
    endloop
  endfacet
  facet normal 0 1 0
    outer loop
      vertex -13.2 9.8 12
      vertex -12.6 9.8 3
      vertex -13.2 9.8 3
    endloop
  endfacet
  facet normal -1 0 0
    outer loop
      vertex -13.2 9.8 12
      vertex -13.2 9.8 3
      vertex -13.2 7.5 14.3
    endloop
  endfacet
  facet normal -1 0 0
    outer loop
      vertex -13.2 7.5 14.3
      vertex -13.2 9.8 3
      vertex -13.2 7.5 3
    endloop
  endfacet
  facet normal 0 1 0
    outer loop
      vertex -13.2 7.5 14.3
      vertex -13.2 7.5 3
      vertex -14.6 7.5 14.3
    endloop
  endfacet
  facet normal 0 1 0
    outer loop
      vertex -14.6 7.5 14.3
      vertex -13.2 7.5 3
      vertex -14.6 7.5 3
    endloop
  endfacet
  facet normal 1 0 0
    outer loop
      vertex -14.6 9.8 3
      vertex -14.6 9.8 12
      vertex -14.6 7.5 14.3
    endloop
  endfacet
  facet normal 1 0 0
    outer loop
      vertex -14.6 7.5 3
      vertex -14.6 9.8 3
      vertex -14.6 7.5 14.3
    endloop
  endfacet
  facet normal 0 1 0
    outer loop
      vertex -14.6 9.8 12
      vertex -14.6 9.8 3
      vertex -15.2 9.8 12
    endloop
  endfacet
  facet normal 0 1 0
    outer loop
      vertex -15.2 9.8 12
      vertex -14.6 9.8 3
      vertex -15.2 9.8 3
    endloop
  endfacet
  facet normal -1 0 0
    outer loop
      vertex -15.2 9.8 12
      vertex -15.2 9.8 3
      vertex -15.2 7.5 14.3
    endloop
  endfacet
  facet normal -1 0 0
    outer loop
      vertex -15.2 7.5 14.3
      vertex -15.2 9.8 3
      vertex -15.2 7.5 3
    endloop
  endfacet
  facet normal 0 1 0
    outer loop
      vertex -15.2 7.5 14.3
      vertex -15.2 7.5 3
      vertex -16.6 7.5 14.3
    endloop
  endfacet
  facet normal 0 1 0
    outer loop
      vertex -16.6 7.5 14.3
      vertex -15.2 7.5 3
      vertex -16.6 7.5 3
    endloop
  endfacet
  facet normal 1 0 0
    outer loop
      vertex -16.6 9.8 3
      vertex -16.6 9.8 12
      vertex -16.6 7.5 14.3
    endloop
  endfacet
  facet normal 1 0 0
    outer loop
      vertex -16.6 7.5 3
      vertex -16.6 9.8 3
      vertex -16.6 7.5 14.3
    endloop
  endfacet
  facet normal 0 1 0
    outer loop
      vertex -16.6 9.8 12
      vertex -16.6 9.8 3
      vertex -17.2 9.8 12
    endloop
  endfacet
  facet normal 0 1 0
    outer loop
      vertex -17.2 9.8 12
      vertex -16.6 9.8 3
      vertex -17.2 9.8 3
    endloop
  endfacet
  facet normal -1 0 0
    outer loop
      vertex -17.2 9.8 12
      vertex -17.2 9.8 3
      vertex -17.2 7.5 14.3
    endloop
  endfacet
  facet normal -1 0 0
    outer loop
      vertex -17.2 7.5 14.3
      vertex -17.2 9.8 3
      vertex -17.2 7.5 3
    endloop
  endfacet
  facet normal 0 1 0
    outer loop
      vertex -17.2 7.5 14.3
      vertex -17.2 7.5 3
      vertex -18.6 7.5 14.3
    endloop
  endfacet
  facet normal 0 1 0
    outer loop
      vertex -18.6 7.5 14.3
      vertex -17.2 7.5 3
      vertex -18.6 7.5 3
    endloop
  endfacet
  facet normal 1 0 0
    outer loop
      vertex -18.6 9.8 3
      vertex -18.6 9.8 12
      vertex -18.6 7.5 14.3
    endloop
  endfacet
  facet normal 1 0 0
    outer loop
      vertex -18.6 7.5 3
      vertex -18.6 9.8 3
      vertex -18.6 7.5 14.3
    endloop
  endfacet
  facet normal 0 1 0
    outer loop
      vertex -18.6 9.8 12
      vertex -18.6 9.8 3
      vertex -19.2 9.8 12
    endloop
  endfacet
  facet normal 0 1 0
    outer loop
      vertex -19.2 9.8 12
      vertex -18.6 9.8 3
      vertex -19.2 9.8 3
    endloop
  endfacet
  facet normal -1 0 0
    outer loop
      vertex -19.2 9.8 12
      vertex -19.2 9.8 3
      vertex -19.2 7.5 14.3
    endloop
  endfacet
  facet normal -1 0 0
    outer loop
      vertex -19.2 7.5 14.3
      vertex -19.2 9.8 3
      vertex -19.2 7.5 3
    endloop
  endfacet
  facet normal 0 1 0
    outer loop
      vertex -19.2 7.5 14.3
      vertex -19.2 7.5 3
      vertex -20.6 7.5 14.3
    endloop
  endfacet
  facet normal 0 1 0
    outer loop
      vertex -20.6 7.5 14.3
      vertex -19.2 7.5 3
      vertex -20.6 7.5 3
    endloop
  endfacet
  facet normal 1 0 0
    outer loop
      vertex -20.6 9.8 3
      vertex -20.6 9.8 12
      vertex -20.6 7.5 14.3
    endloop
  endfacet
  facet normal 1 0 0
    outer loop
      vertex -20.6 7.5 3
      vertex -20.6 9.8 3
      vertex -20.6 7.5 14.3
    endloop
  endfacet
  facet normal 0 1 0
    outer loop
      vertex -20.6 9.8 12
      vertex -20.6 9.8 3
      vertex -21.2 9.8 12
    endloop
  endfacet
  facet normal 0 1 0
    outer loop
      vertex -21.2 9.8 12
      vertex -20.6 9.8 3
      vertex -21.2 9.8 3
    endloop
  endfacet
  facet normal -1 0 0
    outer loop
      vertex -21.2 9.8 12
      vertex -21.2 9.8 3
      vertex -21.2 7.5 14.3
    endloop
  endfacet
  facet normal -1 0 0
    outer loop
      vertex -21.2 7.5 14.3
      vertex -21.2 9.8 3
      vertex -21.2 7.5 3
    endloop
  endfacet
  facet normal 0 1 0
    outer loop
      vertex -21.2 7.5 14.3
      vertex -21.2 7.5 3
      vertex -22.6 7.5 14.3
    endloop
  endfacet
  facet normal 0 1 0
    outer loop
      vertex -22.6 7.5 14.3
      vertex -21.2 7.5 3
      vertex -22.6 7.5 3
    endloop
  endfacet
  facet normal 1 0 0
    outer loop
      vertex -22.6 9.8 3
      vertex -22.6 9.8 12
      vertex -22.6 7.5 14.3
    endloop
  endfacet
  facet normal 1 0 0
    outer loop
      vertex -22.6 7.5 3
      vertex -22.6 9.8 3
      vertex -22.6 7.5 14.3
    endloop
  endfacet
  facet normal 0 1 0
    outer loop
      vertex -22.6 9.8 12
      vertex -22.6 9.8 3
      vertex -23 9.8 12
    endloop
  endfacet
  facet normal 0 1 0
    outer loop
      vertex -23 9.8 12
      vertex -22.6 9.8 3
      vertex -23 9.8 3
    endloop
  endfacet
  facet normal 0 1 0
    outer loop
      vertex -27 9.8 12
      vertex -27 9.8 3
      vertex -27.2 9.8 12
    endloop
  endfacet
  facet normal 0 1 0
    outer loop
      vertex -27.2 9.8 12
      vertex -27 9.8 3
      vertex -27.2 9.8 3
    endloop
  endfacet
  facet normal -1 0 0
    outer loop
      vertex -27.2 9.8 12
      vertex -27.2 9.8 3
      vertex -27.2 7.5 14.3
    endloop
  endfacet
  facet normal -1 0 0
    outer loop
      vertex -27.2 7.5 14.3
      vertex -27.2 9.8 3
      vertex -27.2 7.5 3
    endloop
  endfacet
  facet normal 0 1 0
    outer loop
      vertex -27.2 7.5 14.3
      vertex -27.2 7.5 3
      vertex -28.6 7.5 14.3
    endloop
  endfacet
  facet normal 0 1 0
    outer loop
      vertex -28.6 7.5 14.3
      vertex -27.2 7.5 3
      vertex -28.6 7.5 3
    endloop
  endfacet
  facet normal 1 0 0
    outer loop
      vertex -28.6 9.8 3
      vertex -28.6 9.8 12
      vertex -28.6 7.5 14.3
    endloop
  endfacet
  facet normal 1 0 0
    outer loop
      vertex -28.6 7.5 3
      vertex -28.6 9.8 3
      vertex -28.6 7.5 14.3
    endloop
  endfacet
  facet normal 0 1 0
    outer loop
      vertex -28.6 9.8 12
      vertex -28.6 9.8 3
      vertex -29.2 9.8 12
    endloop
  endfacet
  facet normal 0 1 0
    outer loop
      vertex -29.2 9.8 12
      vertex -28.6 9.8 3
      vertex -29.2 9.8 3
    endloop
  endfacet
  facet normal -1 0 0
    outer loop
      vertex -29.2 9.8 12
      vertex -29.2 9.8 3
      vertex -29.2 7.5 14.3
    endloop
  endfacet
  facet normal -1 0 0
    outer loop
      vertex -29.2 7.5 14.3
      vertex -29.2 9.8 3
      vertex -29.2 7.5 3
    endloop
  endfacet
  facet normal 0 1 0
    outer loop
      vertex -29.2 7.5 14.3
      vertex -29.2 7.5 3
      vertex -30.6 7.5 14.3
    endloop
  endfacet
  facet normal 0 1 0
    outer loop
      vertex -30.6 7.5 14.3
      vertex -29.2 7.5 3
      vertex -30.6 7.5 3
    endloop
  endfacet
  facet normal 1 0 0
    outer loop
      vertex -30.6 9.8 3
      vertex -30.6 9.8 12
      vertex -30.6 7.5 14.3
    endloop
  endfacet
  facet normal 1 0 0
    outer loop
      vertex -30.6 7.5 3
      vertex -30.6 9.8 3
      vertex -30.6 7.5 14.3
    endloop
  endfacet
  facet normal 0 1 0
    outer loop
      vertex -30.6 9.8 12
      vertex -30.6 9.8 3
      vertex -31.2 9.8 12
    endloop
  endfacet
  facet normal 0 1 0
    outer loop
      vertex -31.2 9.8 12
      vertex -30.6 9.8 3
      vertex -31.2 9.8 3
    endloop
  endfacet
  facet normal -1 0 0
    outer loop
      vertex -31.2 9.8 12
      vertex -31.2 9.8 3
      vertex -31.2 7.5 14.3
    endloop
  endfacet
  facet normal -1 0 0
    outer loop
      vertex -31.2 7.5 14.3
      vertex -31.2 9.8 3
      vertex -31.2 7.5 3
    endloop
  endfacet
  facet normal 0 1 0
    outer loop
      vertex -31.2 7.5 14.3
      vertex -31.2 7.5 3
      vertex -32.6 7.5 14.3
    endloop
  endfacet
  facet normal 0 1 0
    outer loop
      vertex -32.6 7.5 14.3
      vertex -31.2 7.5 3
      vertex -32.6 7.5 3
    endloop
  endfacet
  facet normal 1 0 0
    outer loop
      vertex -32.6 9.8 3
      vertex -32.6 9.8 12
      vertex -32.6 7.5 14.3
    endloop
  endfacet
  facet normal 1 0 0
    outer loop
      vertex -32.6 7.5 3
      vertex -32.6 9.8 3
      vertex -32.6 7.5 14.3
    endloop
  endfacet
  facet normal 0 1 0
    outer loop
      vertex -32.6 9.8 12
      vertex -32.6 9.8 3
      vertex -33.2 9.8 12
    endloop
  endfacet
  facet normal 0 1 0
    outer loop
      vertex -33.2 9.8 12
      vertex -32.6 9.8 3
      vertex -33.2 9.8 3
    endloop
  endfacet
  facet normal -1 0 0
    outer loop
      vertex -33.2 9.8 12
      vertex -33.2 9.8 3
      vertex -33.2 7.5 14.3
    endloop
  endfacet
  facet normal -1 0 0
    outer loop
      vertex -33.2 7.5 14.3
      vertex -33.2 9.8 3
      vertex -33.2 7.5 3
    endloop
  endfacet
  facet normal 0 1 0
    outer loop
      vertex -33.2 7.5 14.3
      vertex -33.2 7.5 3
      vertex -34.6 7.5 14.3
    endloop
  endfacet
  facet normal 0 1 0
    outer loop
      vertex -34.6 7.5 14.3
      vertex -33.2 7.5 3
      vertex -34.6 7.5 3
    endloop
  endfacet
  facet normal 1 0 0
    outer loop
      vertex -34.6 9.8 3
      vertex -34.6 9.8 12
      vertex -34.6 7.5 14.3
    endloop
  endfacet
  facet normal 1 0 0
    outer loop
      vertex -34.6 7.5 3
      vertex -34.6 9.8 3
      vertex -34.6 7.5 14.3
    endloop
  endfacet
  facet normal 0 1 0
    outer loop
      vertex -34.6 9.8 12
      vertex -34.6 9.8 3
      vertex -35.2 9.8 12
    endloop
  endfacet
  facet normal 0 1 0
    outer loop
      vertex -35.2 9.8 12
      vertex -34.6 9.8 3
      vertex -35.2 9.8 3
    endloop
  endfacet
  facet normal -1 0 0
    outer loop
      vertex -35.2 9.8 12
      vertex -35.2 9.8 3
      vertex -35.2 7.5 14.3
    endloop
  endfacet
  facet normal -1 0 0
    outer loop
      vertex -35.2 7.5 14.3
      vertex -35.2 9.8 3
      vertex -35.2 7.5 3
    endloop
  endfacet
  facet normal 0 1 0
    outer loop
      vertex -35.2 7.5 14.3
      vertex -35.2 7.5 3
      vertex -36.6 7.5 14.3
    endloop
  endfacet
  facet normal 0 1 0
    outer loop
      vertex -36.6 7.5 14.3
      vertex -35.2 7.5 3
      vertex -36.6 7.5 3
    endloop
  endfacet
  facet normal 1 0 0
    outer loop
      vertex -36.6 9.8 3
      vertex -36.6 9.8 12
      vertex -36.6 7.5 14.3
    endloop
  endfacet
  facet normal 1 0 0
    outer loop
      vertex -36.6 7.5 3
      vertex -36.6 9.8 3
      vertex -36.6 7.5 14.3
    endloop
  endfacet
  facet normal 0 1 0
    outer loop
      vertex -36.6 9.8 12
      vertex -36.6 9.8 3
      vertex -37.2 9.8 12
    endloop
  endfacet
  facet normal 0 1 0
    outer loop
      vertex -37.2 9.8 12
      vertex -36.6 9.8 3
      vertex -37.2 9.8 3
    endloop
  endfacet
  facet normal -1 0 0
    outer loop
      vertex -37.2 9.8 12
      vertex -37.2 9.8 3
      vertex -37.2 7.5 14.3
    endloop
  endfacet
  facet normal -1 0 0
    outer loop
      vertex -37.2 7.5 14.3
      vertex -37.2 9.8 3
      vertex -37.2 7.5 3
    endloop
  endfacet
  facet normal 0 1 0
    outer loop
      vertex -37.2 7.5 14.3
      vertex -37.2 7.5 3
      vertex -38.6 7.5 14.3
    endloop
  endfacet
  facet normal 0 1 0
    outer loop
      vertex -38.6 7.5 14.3
      vertex -37.2 7.5 3
      vertex -38.6 7.5 3
    endloop
  endfacet
  facet normal 1 0 0
    outer loop
      vertex -38.6 9.8 3
      vertex -38.6 9.8 12
      vertex -38.6 7.5 14.3
    endloop
  endfacet
  facet normal 1 0 0
    outer loop
      vertex -38.6 7.5 3
      vertex -38.6 9.8 3
      vertex -38.6 7.5 14.3
    endloop
  endfacet
  facet normal 0 1 0
    outer loop
      vertex -38.6 9.8 12
      vertex -38.6 9.8 3
      vertex -39.2 9.8 12
    endloop
  endfacet
  facet normal 0 1 0
    outer loop
      vertex -39.2 9.8 12
      vertex -38.6 9.8 3
      vertex -39.2 9.8 3
    endloop
  endfacet
  facet normal -1 0 0
    outer loop
      vertex -39.2 9.8 12
      vertex -39.2 9.8 3
      vertex -39.2 7.5 14.3
    endloop
  endfacet
  facet normal -1 0 0
    outer loop
      vertex -39.2 7.5 14.3
      vertex -39.2 9.8 3
      vertex -39.2 7.5 3
    endloop
  endfacet
  facet normal 0 1 0
    outer loop
      vertex -39.2 7.5 14.3
      vertex -39.2 7.5 3
      vertex -40.6 7.5 14.3
    endloop
  endfacet
  facet normal 0 1 0
    outer loop
      vertex -40.6 7.5 14.3
      vertex -39.2 7.5 3
      vertex -40.6 7.5 3
    endloop
  endfacet
  facet normal 1 0 0
    outer loop
      vertex -40.6 9.8 3
      vertex -40.6 9.8 12
      vertex -40.6 7.5 14.3
    endloop
  endfacet
  facet normal 1 0 0
    outer loop
      vertex -40.6 7.5 3
      vertex -40.6 9.8 3
      vertex -40.6 7.5 14.3
    endloop
  endfacet
  facet normal 0 1 0
    outer loop
      vertex -40.6 9.8 12
      vertex -40.6 9.8 3
      vertex -41.2 9.8 12
    endloop
  endfacet
  facet normal 0 1 0
    outer loop
      vertex -41.2 9.8 12
      vertex -40.6 9.8 3
      vertex -41.2 9.8 3
    endloop
  endfacet
endsolid OpenSCAD_Model
