solid OpenSCAD_Model
  facet normal -1 0 0
    outer loop
      vertex -9 41 13
      vertex -9 45 19
      vertex -9 45 9.99201e-015
    endloop
  endfacet
  facet normal -1 0 0
    outer loop
      vertex -9 -1.77636e-015 19
      vertex -9 45 19
      vertex -9 10.4599 15.3759
    endloop
  endfacet
  facet normal -1 0 0
    outer loop
      vertex -9 -1.77636e-015 19
      vertex -9 10.4599 15.3759
      vertex -9 9.54007 15.3759
    endloop
  endfacet
  facet normal -1 0 0
    outer loop
      vertex -9 -1.77636e-015 19
      vertex -9 9.54007 15.3759
      vertex -9 8.64032 15.1846
    endloop
  endfacet
  facet normal -1 0 0
    outer loop
      vertex -9 -1.77636e-015 19
      vertex -9 8.64032 15.1846
      vertex -9 7.8 14.8105
    endloop
  endfacet
  facet normal -1 0 0
    outer loop
      vertex -9 -1.77636e-015 19
      vertex -9 7.8 14.8105
      vertex -9 7.05582 14.2698
    endloop
  endfacet
  facet normal -1 0 0
    outer loop
      vertex -9 -1.77636e-015 19
      vertex -9 7.05582 14.2698
      vertex -9 6.44032 13.5863
    endloop
  endfacet
  facet normal -1 0 0
    outer loop
      vertex -9 -1.77636e-015 19
      vertex -9 6.44032 13.5863
      vertex -9 5.9804 12.7896
    endloop
  endfacet
  facet normal -1 0 0
    outer loop
      vertex -9 -1.77636e-015 19
      vertex -9 5.9804 12.7896
      vertex -9 2.44249e-015 0
    endloop
  endfacet
  facet normal -1 0 0
    outer loop
      vertex -9 5.6 11
      vertex -9 2.44249e-015 0
      vertex -9 5.69615 11.9148
    endloop
  endfacet
  facet normal -1 0 0
    outer loop
      vertex -9 5.69615 10.0852
      vertex -9 2.44249e-015 0
      vertex -9 5.6 11
    endloop
  endfacet
  facet normal -1 0 0
    outer loop
      vertex -9 5.9804 9.21036
      vertex -9 2.44249e-015 0
      vertex -9 5.69615 10.0852
    endloop
  endfacet
  facet normal -1 0 0
    outer loop
      vertex -9 6.44033 8.41375
      vertex -9 2.44249e-015 0
      vertex -9 5.9804 9.21036
    endloop
  endfacet
  facet normal -1 0 0
    outer loop
      vertex -9 26.4403 13.5863
      vertex -9 14.3038 10.0852
      vertex -9 14.4 11
    endloop
  endfacet
  facet normal -1 0 0
    outer loop
      vertex -9 25.6962 11.9148
      vertex -9 13.5597 8.41375
      vertex -9 25.9804 12.7896
    endloop
  endfacet
  facet normal -1 0 0
    outer loop
      vertex -9 6.44033 8.41375
      vertex -9 7.05583 7.73016
      vertex -9 2.44249e-015 0
    endloop
  endfacet
  facet normal -1 0 0
    outer loop
      vertex -9 25.6962 11.9148
      vertex -9 12.2 7.18949
      vertex -9 12.9442 7.73016
    endloop
  endfacet
  facet normal -1 0 0
    outer loop
      vertex -9 7.05583 7.73016
      vertex -9 7.8 7.18949
      vertex -9 2.44249e-015 0
    endloop
  endfacet
  facet normal -1 0 0
    outer loop
      vertex -9 31.3597 15.1846
      vertex -9 45 19
      vertex -9 32.2 14.8105
    endloop
  endfacet
  facet normal -1 0 0
    outer loop
      vertex -9 7.8 7.18949
      vertex -9 8.64033 6.81535
      vertex -9 2.44249e-015 0
    endloop
  endfacet
  facet normal -1 0 0
    outer loop
      vertex -9 25.6962 11.9148
      vertex -9 11.3597 6.81535
      vertex -9 12.2 7.18949
    endloop
  endfacet
  facet normal -1 0 0
    outer loop
      vertex -9 8.64033 6.81535
      vertex -9 9.54007 6.6241
      vertex -9 2.44249e-015 0
    endloop
  endfacet
  facet normal -1 0 0
    outer loop
      vertex -9 9.54007 6.6241
      vertex -9 10.4599 6.6241
      vertex -9 2.44249e-015 0
    endloop
  endfacet
  facet normal -1 0 0
    outer loop
      vertex -9 10.4599 6.6241
      vertex -9 11.3597 6.81535
      vertex -9 2.44249e-015 0
    endloop
  endfacet
  facet normal -1 0 0
    outer loop
      vertex -9 25.6962 11.9148
      vertex -9 12.9442 7.73016
      vertex -9 13.5597 8.41375
    endloop
  endfacet
  facet normal -1 0 0
    outer loop
      vertex -9 27.8 14.8105
      vertex -9 14.3038 11.9148
      vertex -9 28.6403 15.1846
    endloop
  endfacet
  facet normal -1 0 0
    outer loop
      vertex -9 14.0196 12.7896
      vertex -9 45 19
      vertex -9 14.3038 11.9148
    endloop
  endfacet
  facet normal -1 0 0
    outer loop
      vertex -9 13.5597 13.5863
      vertex -9 45 19
      vertex -9 14.0196 12.7896
    endloop
  endfacet
  facet normal -1 0 0
    outer loop
      vertex -9 12.9442 14.2698
      vertex -9 45 19
      vertex -9 13.5597 13.5863
    endloop
  endfacet
  facet normal -1 0 0
    outer loop
      vertex -9 12.2 14.8105
      vertex -9 45 19
      vertex -9 12.9442 14.2698
    endloop
  endfacet
  facet normal -1 0 0
    outer loop
      vertex -9 11.3597 15.1846
      vertex -9 45 19
      vertex -9 12.2 14.8105
    endloop
  endfacet
  facet normal -1 0 0
    outer loop
      vertex -9 10.4599 15.3759
      vertex -9 45 19
      vertex -9 11.3597 15.1846
    endloop
  endfacet
  facet normal -1 0 0
    outer loop
      vertex -9 29.5401 15.3759
      vertex -9 45 19
      vertex -9 30.4599 15.3759
    endloop
  endfacet
  facet normal -1 0 0
    outer loop
      vertex -9 26.4403 13.5863
      vertex -9 14.4 11
      vertex -9 27.0558 14.2698
    endloop
  endfacet
  facet normal -1 0 0
    outer loop
      vertex -9 28.6403 15.1846
      vertex -9 45 19
      vertex -9 29.5401 15.3759
    endloop
  endfacet
  facet normal -1 0 0
    outer loop
      vertex -9 14.3038 11.9148
      vertex -9 45 19
      vertex -9 28.6403 15.1846
    endloop
  endfacet
  facet normal -1 0 0
    outer loop
      vertex -9 27.0558 14.2698
      vertex -9 14.3038 11.9148
      vertex -9 27.8 14.8105
    endloop
  endfacet
  facet normal -1 0 0
    outer loop
      vertex -9 27.0558 14.2698
      vertex -9 14.4 11
      vertex -9 14.3038 11.9148
    endloop
  endfacet
  facet normal -1 0 0
    outer loop
      vertex -9 39 9.5
      vertex -9 32.9442 7.73016
      vertex -9 39 13
    endloop
  endfacet
  facet normal -1 0 0
    outer loop
      vertex -9 30.4599 15.3759
      vertex -9 45 19
      vertex -9 31.3597 15.1846
    endloop
  endfacet
  facet normal -1 0 0
    outer loop
      vertex -9 25.9804 12.7896
      vertex -9 14.0196 9.21036
      vertex -9 26.4403 13.5863
    endloop
  endfacet
  facet normal -1 0 0
    outer loop
      vertex -9 14.3038 10.0852
      vertex -9 26.4403 13.5863
      vertex -9 14.0196 9.21036
    endloop
  endfacet
  facet normal -1 0 0
    outer loop
      vertex -9 25.6962 10.0852
      vertex -9 2.44249e-015 0
      vertex -9 25.6 11
    endloop
  endfacet
  facet normal -1 0 0
    outer loop
      vertex -9 11.3597 6.81535
      vertex -9 25.6962 11.9148
      vertex -9 2.44249e-015 0
    endloop
  endfacet
  facet normal -1 0 0
    outer loop
      vertex -9 32.2 14.8105
      vertex -9 45 19
      vertex -9 32.9442 14.2698
    endloop
  endfacet
  facet normal -1 0 0
    outer loop
      vertex -9 25.6962 11.9148
      vertex -9 25.6 11
      vertex -9 2.44249e-015 0
    endloop
  endfacet
  facet normal -1 0 0
    outer loop
      vertex -9 29.5401 6.6241
      vertex -9 45 9.99201e-015
      vertex -9 28.6403 6.81535
    endloop
  endfacet
  facet normal -1 0 0
    outer loop
      vertex -9 2.44249e-015 0
      vertex -9 25.6962 10.0852
      vertex -9 25.9804 9.21036
    endloop
  endfacet
  facet normal -1 0 0
    outer loop
      vertex -9 2.44249e-015 0
      vertex -9 25.9804 9.21036
      vertex -9 26.4403 8.41375
    endloop
  endfacet
  facet normal -1 0 0
    outer loop
      vertex -9 2.44249e-015 0
      vertex -9 26.4403 8.41375
      vertex -9 27.0558 7.73016
    endloop
  endfacet
  facet normal -1 0 0
    outer loop
      vertex -9 2.44249e-015 0
      vertex -9 27.0558 7.73016
      vertex -9 27.8 7.18949
    endloop
  endfacet
  facet normal -1 0 0
    outer loop
      vertex -9 2.44249e-015 0
      vertex -9 27.8 7.18949
      vertex -9 28.6403 6.81535
    endloop
  endfacet
  facet normal -1 0 0
    outer loop
      vertex -9 2.44249e-015 0
      vertex -9 28.6403 6.81535
      vertex -9 45 9.99201e-015
    endloop
  endfacet
  facet normal -1 0 0
    outer loop
      vertex -9 30.4599 6.6241
      vertex -9 45 9.99201e-015
      vertex -9 29.5401 6.6241
    endloop
  endfacet
  facet normal -1 0 0
    outer loop
      vertex -9 31.3597 6.81535
      vertex -9 45 9.99201e-015
      vertex -9 30.4599 6.6241
    endloop
  endfacet
  facet normal -1 0 0
    outer loop
      vertex -9 32.2 7.18949
      vertex -9 45 9.99201e-015
      vertex -9 31.3597 6.81535
    endloop
  endfacet
  facet normal -1 0 0
    outer loop
      vertex -9 32.9442 14.2698
      vertex -9 45 19
      vertex -9 33.5597 13.5863
    endloop
  endfacet
  facet normal -1 0 0
    outer loop
      vertex -9 34.0196 9.21036
      vertex -9 45 19
      vertex -9 33.5597 8.41375
    endloop
  endfacet
  facet normal -1 0 0
    outer loop
      vertex -9 33.5597 8.41375
      vertex -9 45 19
      vertex -9 32.9442 7.73016
    endloop
  endfacet
  facet normal -1 0 0
    outer loop
      vertex -9 32.2 7.18949
      vertex -9 32.9442 7.73016
      vertex -9 45 9.99201e-015
    endloop
  endfacet
  facet normal -1 0 0
    outer loop
      vertex -9 34.3038 10.0852
      vertex -9 45 19
      vertex -9 34.0196 9.21036
    endloop
  endfacet
  facet normal -1 0 0
    outer loop
      vertex -9 34.4 11
      vertex -9 45 19
      vertex -9 34.3038 10.0852
    endloop
  endfacet
  facet normal -1 0 0
    outer loop
      vertex -9 34.3038 11.9148
      vertex -9 45 19
      vertex -9 34.4 11
    endloop
  endfacet
  facet normal -1 0 0
    outer loop
      vertex -9 34.0196 12.7896
      vertex -9 45 19
      vertex -9 34.3038 11.9148
    endloop
  endfacet
  facet normal -1 0 0
    outer loop
      vertex -9 33.5597 13.5863
      vertex -9 45 19
      vertex -9 34.0196 12.7896
    endloop
  endfacet
  facet normal -1 0 0
    outer loop
      vertex -9 39 13
      vertex -9 45 19
      vertex -9 41 13
    endloop
  endfacet
  facet normal -1 0 0
    outer loop
      vertex -9 41 9.5
      vertex -9 41 13
      vertex -9 45 9.99201e-015
    endloop
  endfacet
  facet normal -1 0 0
    outer loop
      vertex -9 32.9442 7.73016
      vertex -9 45 19
      vertex -9 39 13
    endloop
  endfacet
  facet normal -1 0 0
    outer loop
      vertex -9 32.9442 7.73016
      vertex -9 39 9.5
      vertex -9 45 9.99201e-015
    endloop
  endfacet
  facet normal -1 0 0
    outer loop
      vertex -9 39 9.5
      vertex -9 41 9.5
      vertex -9 45 9.99201e-015
    endloop
  endfacet
  facet normal -1 0 0
    outer loop
      vertex -9 5.69615 11.9148
      vertex -9 2.44249e-015 0
      vertex -9 5.9804 12.7896
    endloop
  endfacet
  facet normal -1 0 0
    outer loop
      vertex -9 14.0196 9.21036
      vertex -9 25.9804 12.7896
      vertex -9 13.5597 8.41375
    endloop
  endfacet
  facet normal -0.707107 -1.57009e-016 0.707107
    outer loop
      vertex -6 45 22
      vertex -7.5 46.5 20.5
      vertex -6 -2.44249e-015 22
    endloop
  endfacet
  facet normal -0.707107 -1.57009e-016 0.707107
    outer loop
      vertex -6 -2.44249e-015 22
      vertex -7.5 46.5 20.5
      vertex -9 45 19
    endloop
  endfacet
  facet normal -0.707107 -1.57009e-016 0.707107
    outer loop
      vertex -6 -2.44249e-015 22
      vertex -9 45 19
      vertex -9 -1.77636e-015 19
    endloop
  endfacet
  facet normal 0 -1 -2.22045e-016
    outer loop
      vertex -6 -2.44249e-015 22
      vertex -9 -1.77636e-015 19
      vertex -9 2.44249e-015 0
    endloop
  endfacet
  facet normal 0 -1 -2.22045e-016
    outer loop
      vertex 9 -1.77636e-015 19
      vertex -6 -2.44249e-015 22
      vertex 9 2.44249e-015 0
    endloop
  endfacet
  facet normal 0 -1 -2.22045e-016
    outer loop
      vertex 9 2.44249e-015 0
      vertex -6 -2.44249e-015 22
      vertex -9 2.44249e-015 0
    endloop
  endfacet
  facet normal 0 -1 -2.22045e-016
    outer loop
      vertex 6 -2.44249e-015 22
      vertex -6 -2.44249e-015 22
      vertex 9 -1.77636e-015 19
    endloop
  endfacet
  facet normal 0 2.22045e-016 -1
    outer loop
      vertex 3.90107e-015 24.4 5.41789e-015
      vertex -9 45 9.99201e-015
      vertex -7 47 1.04361e-014
    endloop
  endfacet
  facet normal 0 2.22045e-016 -1
    outer loop
      vertex -4.08954 46.3288 1.02871e-014
      vertex -7 47 1.04361e-014
      vertex -3.79069 47 1.04361e-014
    endloop
  endfacet
  facet normal 0 2.22045e-016 -1
    outer loop
      vertex -4.27644 45.4495 1.00918e-014
      vertex -7 47 1.04361e-014
      vertex -4.08954 46.3288 1.02871e-014
    endloop
  endfacet
  facet normal 0 2.22045e-016 -1
    outer loop
      vertex -4.27644 44.5505 9.8922e-015
      vertex -7 47 1.04361e-014
      vertex -4.27644 45.4495 1.00918e-014
    endloop
  endfacet
  facet normal 0 2.22045e-016 -1
    outer loop
      vertex -4.08954 43.6712 9.69696e-015
      vertex -7 47 1.04361e-014
      vertex -4.27644 44.5505 9.8922e-015
    endloop
  endfacet
  facet normal 0 2.22045e-016 -1
    outer loop
      vertex 0.914811 24.3038 5.39654e-015
      vertex -7 47 1.04361e-014
      vertex -4.08954 43.6712 9.69696e-015
    endloop
  endfacet
  facet normal 0 2.22045e-016 -1
    outer loop
      vertex 4.18465 18.6403 4.13898e-015
      vertex 9 2.44249e-015 0
      vertex 3.81051 17.8 3.95239e-015
    endloop
  endfacet
  facet normal 0 2.22045e-016 -1
    outer loop
      vertex -1.74897 41.0718 9.11976e-015
      vertex 2.58626 23.5597 5.2313e-015
      vertex -2.52748 41.5212 9.21956e-015
    endloop
  endfacet
  facet normal 0 2.22045e-016 -1
    outer loop
      vertex 2.58626 23.5597 5.2313e-015
      vertex -1.74897 41.0718 9.11976e-015
      vertex -0.89402 40.794 9.05808e-015
    endloop
  endfacet
  facet normal 0 2.22045e-016 -1
    outer loop
      vertex -2.58625 16.4403 3.65049e-015
      vertex 9 2.44249e-015 0
      vertex -3.26984 17.0558 3.78715e-015
    endloop
  endfacet
  facet normal 0 2.22045e-016 -1
    outer loop
      vertex 1.78964 24.0196 5.33342e-015
      vertex -3.19552 42.1227 9.35313e-015
      vertex -2.52748 41.5212 9.21956e-015
    endloop
  endfacet
  facet normal 0 2.22045e-016 -1
    outer loop
      vertex 4.18465 21.3597 4.7428e-015
      vertex 4.44089e-015 40.7 9.03722e-015
      vertex 9 2.44249e-015 0
    endloop
  endfacet
  facet normal 0 2.22045e-016 -1
    outer loop
      vertex 4.44089e-015 40.7 9.03722e-015
      vertex 0.89402 40.794 9.05808e-015
      vertex 9 2.44249e-015 0
    endloop
  endfacet
  facet normal 0 2.22045e-016 -1
    outer loop
      vertex 0.89402 40.794 9.05808e-015
      vertex 1.74897 41.0718 9.11976e-015
      vertex 9 2.44249e-015 0
    endloop
  endfacet
  facet normal 0 2.22045e-016 -1
    outer loop
      vertex 1.74897 41.0718 9.11976e-015
      vertex 2.52748 41.5212 9.21956e-015
      vertex 9 2.44249e-015 0
    endloop
  endfacet
  facet normal 0 2.22045e-016 -1
    outer loop
      vertex 2.52748 41.5212 9.21956e-015
      vertex 3.19552 42.1227 9.35313e-015
      vertex 9 2.44249e-015 0
    endloop
  endfacet
  facet normal 0 2.22045e-016 -1
    outer loop
      vertex 3.19552 42.1227 9.35313e-015
      vertex 3.72391 42.85 9.51461e-015
      vertex 9 2.44249e-015 0
    endloop
  endfacet
  facet normal 0 2.22045e-016 -1
    outer loop
      vertex 3.72391 42.85 9.51461e-015
      vertex 4.08954 43.6712 9.69696e-015
      vertex 9 2.44249e-015 0
    endloop
  endfacet
  facet normal 0 2.22045e-016 -1
    outer loop
      vertex 4.08954 43.6712 9.69696e-015
      vertex 4.27644 44.5505 9.8922e-015
      vertex 9 2.44249e-015 0
    endloop
  endfacet
  facet normal 0 2.22045e-016 -1
    outer loop
      vertex 4.27644 44.5505 9.8922e-015
      vertex 4.27644 45.4495 1.00918e-014
      vertex 9 2.44249e-015 0
    endloop
  endfacet
  facet normal 0 2.22045e-016 -1
    outer loop
      vertex 4.27644 45.4495 1.00918e-014
      vertex 7 47 1.04361e-014
      vertex 9 2.44249e-015 0
    endloop
  endfacet
  facet normal 0 2.22045e-016 -1
    outer loop
      vertex 4.08954 46.3288 1.02871e-014
      vertex 3.79069 47 1.04361e-014
      vertex 7 47 1.04361e-014
    endloop
  endfacet
  facet normal 0 2.22045e-016 -1
    outer loop
      vertex 4.08954 46.3288 1.02871e-014
      vertex 7 47 1.04361e-014
      vertex 4.27644 45.4495 1.00918e-014
    endloop
  endfacet
  facet normal 0 2.22045e-016 -1
    outer loop
      vertex 9 2.44249e-015 0
      vertex 7 47 1.04361e-014
      vertex 9 45 9.99201e-015
    endloop
  endfacet
  facet normal 0 2.22045e-016 -1
    outer loop
      vertex -9 2.44249e-015 0
      vertex -9 45 9.99201e-015
      vertex -4.3759 20.4599 4.54302e-015
    endloop
  endfacet
  facet normal 0 2.22045e-016 -1
    outer loop
      vertex -1.78964 24.0196 5.33342e-015
      vertex -9 45 9.99201e-015
      vertex -0.914811 24.3038 5.39654e-015
    endloop
  endfacet
  facet normal 0 2.22045e-016 -1
    outer loop
      vertex -9 2.44249e-015 0
      vertex -4.3759 20.4599 4.54302e-015
      vertex -4.3759 19.5401 4.33877e-015
    endloop
  endfacet
  facet normal 0 2.22045e-016 -1
    outer loop
      vertex -9 2.44249e-015 0
      vertex -4.3759 19.5401 4.33877e-015
      vertex -4.18465 18.6403 4.13898e-015
    endloop
  endfacet
  facet normal 0 2.22045e-016 -1
    outer loop
      vertex -9 2.44249e-015 0
      vertex -4.18465 18.6403 4.13898e-015
      vertex -3.81051 17.8 3.95239e-015
    endloop
  endfacet
  facet normal 0 2.22045e-016 -1
    outer loop
      vertex -9 2.44249e-015 0
      vertex -3.81051 17.8 3.95239e-015
      vertex 9 2.44249e-015 0
    endloop
  endfacet
  facet normal 0 2.22045e-016 -1
    outer loop
      vertex -3.81051 17.8 3.95239e-015
      vertex -3.26984 17.0558 3.78715e-015
      vertex 9 2.44249e-015 0
    endloop
  endfacet
  facet normal 0 2.22045e-016 -1
    outer loop
      vertex -1.78964 15.9804 3.54836e-015
      vertex 9 2.44249e-015 0
      vertex -2.58625 16.4403 3.65049e-015
    endloop
  endfacet
  facet normal 0 2.22045e-016 -1
    outer loop
      vertex -0.914811 15.6962 3.48525e-015
      vertex 9 2.44249e-015 0
      vertex -1.78964 15.9804 3.54836e-015
    endloop
  endfacet
  facet normal 0 2.22045e-016 -1
    outer loop
      vertex 2.58626 16.4403 3.65049e-015
      vertex 9 2.44249e-015 0
      vertex 1.78964 15.9804 3.54836e-015
    endloop
  endfacet
  facet normal 0 2.22045e-016 -1
    outer loop
      vertex -3.26984 22.9442 5.09463e-015
      vertex -9 45 9.99201e-015
      vertex -2.58625 23.5597 5.2313e-015
    endloop
  endfacet
  facet normal 0 2.22045e-016 -1
    outer loop
      vertex -0.914811 15.6962 3.48525e-015
      vertex 3.90107e-015 15.6 3.4639e-015
      vertex 9 2.44249e-015 0
    endloop
  endfacet
  facet normal 0 2.22045e-016 -1
    outer loop
      vertex 3.90107e-015 15.6 3.4639e-015
      vertex 0.914811 15.6962 3.48525e-015
      vertex 9 2.44249e-015 0
    endloop
  endfacet
  facet normal 0 2.22045e-016 -1
    outer loop
      vertex -2.58625 23.5597 5.2313e-015
      vertex -9 45 9.99201e-015
      vertex -1.78964 24.0196 5.33342e-015
    endloop
  endfacet
  facet normal 0 2.22045e-016 -1
    outer loop
      vertex 0.914811 15.6962 3.48525e-015
      vertex 1.78964 15.9804 3.54836e-015
      vertex 9 2.44249e-015 0
    endloop
  endfacet
  facet normal 0 2.22045e-016 -1
    outer loop
      vertex 3.26984 17.0558 3.78715e-015
      vertex 9 2.44249e-015 0
      vertex 2.58626 16.4403 3.65049e-015
    endloop
  endfacet
  facet normal 0 2.22045e-016 -1
    outer loop
      vertex 1.78964 24.0196 5.33342e-015
      vertex -4.08954 43.6712 9.69696e-015
      vertex -3.72391 42.85 9.51461e-015
    endloop
  endfacet
  facet normal 0 2.22045e-016 -1
    outer loop
      vertex 3.81051 17.8 3.95239e-015
      vertex 9 2.44249e-015 0
      vertex 3.26984 17.0558 3.78715e-015
    endloop
  endfacet
  facet normal 0 2.22045e-016 -1
    outer loop
      vertex 4.3759 19.5401 4.33877e-015
      vertex 9 2.44249e-015 0
      vertex 4.18465 18.6403 4.13898e-015
    endloop
  endfacet
  facet normal 0 2.22045e-016 -1
    outer loop
      vertex 1.78964 24.0196 5.33342e-015
      vertex -2.52748 41.5212 9.21956e-015
      vertex 2.58626 23.5597 5.2313e-015
    endloop
  endfacet
  facet normal 0 2.22045e-016 -1
    outer loop
      vertex 3.26984 22.9442 5.09463e-015
      vertex -0.89402 40.794 9.05808e-015
      vertex 3.81051 22.2 4.92939e-015
    endloop
  endfacet
  facet normal 0 2.22045e-016 -1
    outer loop
      vertex 3.81051 22.2 4.92939e-015
      vertex 4.44089e-015 40.7 9.03722e-015
      vertex 4.18465 21.3597 4.7428e-015
    endloop
  endfacet
  facet normal 0 2.22045e-016 -1
    outer loop
      vertex 4.3759 19.5401 4.33877e-015
      vertex 4.3759 20.4599 4.54302e-015
      vertex 9 2.44249e-015 0
    endloop
  endfacet
  facet normal 0 2.22045e-016 -1
    outer loop
      vertex 4.3759 20.4599 4.54302e-015
      vertex 4.18465 21.3597 4.7428e-015
      vertex 9 2.44249e-015 0
    endloop
  endfacet
  facet normal 0 2.22045e-016 -1
    outer loop
      vertex -0.89402 40.794 9.05808e-015
      vertex 4.44089e-015 40.7 9.03722e-015
      vertex 3.81051 22.2 4.92939e-015
    endloop
  endfacet
  facet normal 0 2.22045e-016 -1
    outer loop
      vertex 2.58626 23.5597 5.2313e-015
      vertex -0.89402 40.794 9.05808e-015
      vertex 3.26984 22.9442 5.09463e-015
    endloop
  endfacet
  facet normal 0 2.22045e-016 -1
    outer loop
      vertex 1.78964 24.0196 5.33342e-015
      vertex -3.72391 42.85 9.51461e-015
      vertex -3.19552 42.1227 9.35313e-015
    endloop
  endfacet
  facet normal 0 2.22045e-016 -1
    outer loop
      vertex 3.90107e-015 24.4 5.41789e-015
      vertex -7 47 1.04361e-014
      vertex 0.914811 24.3038 5.39654e-015
    endloop
  endfacet
  facet normal 0 2.22045e-016 -1
    outer loop
      vertex -0.914811 24.3038 5.39654e-015
      vertex -9 45 9.99201e-015
      vertex 3.90107e-015 24.4 5.41789e-015
    endloop
  endfacet
  facet normal 0 2.22045e-016 -1
    outer loop
      vertex 0.914811 24.3038 5.39654e-015
      vertex -4.08954 43.6712 9.69696e-015
      vertex 1.78964 24.0196 5.33342e-015
    endloop
  endfacet
  facet normal 0 2.22045e-016 -1
    outer loop
      vertex -3.81051 22.2 4.92939e-015
      vertex -9 45 9.99201e-015
      vertex -3.26984 22.9442 5.09463e-015
    endloop
  endfacet
  facet normal 0 2.22045e-016 -1
    outer loop
      vertex -4.18465 21.3597 4.7428e-015
      vertex -9 45 9.99201e-015
      vertex -3.81051 22.2 4.92939e-015
    endloop
  endfacet
  facet normal 0 2.22045e-016 -1
    outer loop
      vertex -4.3759 20.4599 4.54302e-015
      vertex -9 45 9.99201e-015
      vertex -4.18465 21.3597 4.7428e-015
    endloop
  endfacet
  facet normal -0.707107 0.707107 1.57009e-016
    outer loop
      vertex -7 47 20
      vertex -7 47 1.04361e-014
      vertex -7.5 46.5 20.5
    endloop
  endfacet
  facet normal -0.707107 0.707107 1.57009e-016
    outer loop
      vertex -7.5 46.5 20.5
      vertex -7 47 1.04361e-014
      vertex -9 45 9.99201e-015
    endloop
  endfacet
  facet normal -0.707107 0.707107 1.57009e-016
    outer loop
      vertex -7.5 46.5 20.5
      vertex -9 45 9.99201e-015
      vertex -9 45 19
    endloop
  endfacet
  facet normal 4.61655e-017 -0.207911 -0.978148
    outer loop
      vertex 9 11.3597 15.1846
      vertex 9 10.4599 15.3759
      vertex -9 11.3597 15.1846
    endloop
  endfacet
  facet normal 4.61655e-017 -0.207911 -0.978148
    outer loop
      vertex -9 11.3597 15.1846
      vertex 9 10.4599 15.3759
      vertex -9 10.4599 15.3759
    endloop
  endfacet
  facet normal 0 2.22045e-016 -1
    outer loop
      vertex 9 10.4599 15.3759
      vertex 9 9.54008 15.3759
      vertex -9 10.4599 15.3759
    endloop
  endfacet
  facet normal 0 2.22045e-016 -1
    outer loop
      vertex -9 10.4599 15.3759
      vertex 9 9.54008 15.3759
      vertex -9 9.54007 15.3759
    endloop
  endfacet
  facet normal 9.03137e-017 -0.406737 -0.913545
    outer loop
      vertex 9 12.2 14.8105
      vertex 9 11.3597 15.1846
      vertex -9 12.2 14.8105
    endloop
  endfacet
  facet normal 9.03137e-017 -0.406737 -0.913545
    outer loop
      vertex -9 12.2 14.8105
      vertex 9 11.3597 15.1846
      vertex -9 11.3597 15.1846
    endloop
  endfacet
  facet normal 1.30515e-016 -0.587785 -0.809017
    outer loop
      vertex 9 12.9442 14.2698
      vertex 9 12.2 14.8105
      vertex -9 12.9442 14.2698
    endloop
  endfacet
  facet normal 1.30515e-016 -0.587785 -0.809017
    outer loop
      vertex -9 12.9442 14.2698
      vertex 9 12.2 14.8105
      vertex -9 12.2 14.8105
    endloop
  endfacet
  facet normal 1.65011e-016 -0.743145 -0.669131
    outer loop
      vertex -9 13.5597 13.5863
      vertex 9 13.5597 13.5863
      vertex 9 12.9442 14.2698
    endloop
  endfacet
  facet normal 1.65011e-016 -0.743145 -0.669131
    outer loop
      vertex -9 12.9442 14.2698
      vertex -9 13.5597 13.5863
      vertex 9 12.9442 14.2698
    endloop
  endfacet
  facet normal 1.92296e-016 -0.866026 -0.5
    outer loop
      vertex -9 14.0196 12.7896
      vertex 9 14.0196 12.7896
      vertex 9 13.5597 13.5863
    endloop
  endfacet
  facet normal 1.92296e-016 -0.866026 -0.5
    outer loop
      vertex -9 13.5597 13.5863
      vertex -9 14.0196 12.7896
      vertex 9 13.5597 13.5863
    endloop
  endfacet
  facet normal 2.11177e-016 -0.951057 -0.309017
    outer loop
      vertex -9 14.3038 11.9148
      vertex 9 14.3038 11.9148
      vertex 9 14.0196 12.7896
    endloop
  endfacet
  facet normal 2.11177e-016 -0.951057 -0.309017
    outer loop
      vertex -9 14.0196 12.7896
      vertex -9 14.3038 11.9148
      vertex 9 14.0196 12.7896
    endloop
  endfacet
  facet normal 2.20828e-016 -0.994522 -0.104529
    outer loop
      vertex -9 14.4 11
      vertex 9 14.4 11
      vertex 9 14.3038 11.9148
    endloop
  endfacet
  facet normal 2.20828e-016 -0.994522 -0.104529
    outer loop
      vertex -9 14.3038 11.9148
      vertex -9 14.4 11
      vertex 9 14.3038 11.9148
    endloop
  endfacet
  facet normal 2.20828e-016 -0.994522 0.104529
    outer loop
      vertex -9 14.3038 10.0852
      vertex 9 14.3038 10.0852
      vertex 9 14.4 11
    endloop
  endfacet
  facet normal 2.20828e-016 -0.994522 0.104529
    outer loop
      vertex -9 14.4 11
      vertex -9 14.3038 10.0852
      vertex 9 14.4 11
    endloop
  endfacet
  facet normal 2.11177e-016 -0.951057 0.309017
    outer loop
      vertex -9 14.0196 9.21036
      vertex 9 14.0196 9.21036
      vertex 9 14.3038 10.0852
    endloop
  endfacet
  facet normal 2.11177e-016 -0.951057 0.309017
    outer loop
      vertex -9 14.3038 10.0852
      vertex -9 14.0196 9.21036
      vertex 9 14.3038 10.0852
    endloop
  endfacet
  facet normal 1.92296e-016 -0.866026 0.5
    outer loop
      vertex -9 13.5597 8.41375
      vertex 9 13.5597 8.41375
      vertex 9 14.0196 9.21036
    endloop
  endfacet
  facet normal 1.92296e-016 -0.866026 0.5
    outer loop
      vertex -9 14.0196 9.21036
      vertex -9 13.5597 8.41375
      vertex 9 14.0196 9.21036
    endloop
  endfacet
  facet normal 1.65011e-016 -0.743145 0.669131
    outer loop
      vertex -9 12.9442 7.73016
      vertex 9 12.9442 7.73016
      vertex 9 13.5597 8.41375
    endloop
  endfacet
  facet normal 1.65011e-016 -0.743145 0.669131
    outer loop
      vertex -9 13.5597 8.41375
      vertex -9 12.9442 7.73016
      vertex 9 13.5597 8.41375
    endloop
  endfacet
  facet normal 1.30515e-016 -0.587785 0.809017
    outer loop
      vertex -9 12.2 7.18949
      vertex 9 12.2 7.18949
      vertex 9 12.9442 7.73016
    endloop
  endfacet
  facet normal 1.30515e-016 -0.587785 0.809017
    outer loop
      vertex -9 12.9442 7.73016
      vertex -9 12.2 7.18949
      vertex 9 12.9442 7.73016
    endloop
  endfacet
  facet normal 9.03137e-017 -0.406737 0.913545
    outer loop
      vertex -9 11.3597 6.81535
      vertex 9 11.3597 6.81535
      vertex 9 12.2 7.18949
    endloop
  endfacet
  facet normal 9.03137e-017 -0.406737 0.913545
    outer loop
      vertex -9 12.2 7.18949
      vertex -9 11.3597 6.81535
      vertex 9 12.2 7.18949
    endloop
  endfacet
  facet normal 4.61655e-017 -0.207911 0.978148
    outer loop
      vertex -9 10.4599 6.6241
      vertex 9 10.4599 6.6241
      vertex 9 11.3597 6.81535
    endloop
  endfacet
  facet normal 4.61655e-017 -0.207911 0.978148
    outer loop
      vertex -9 11.3597 6.81535
      vertex -9 10.4599 6.6241
      vertex 9 11.3597 6.81535
    endloop
  endfacet
  facet normal 0 -2.22045e-016 1
    outer loop
      vertex 9 9.54008 6.6241
      vertex 9 10.4599 6.6241
      vertex -9 10.4599 6.6241
    endloop
  endfacet
  facet normal 0 -2.22045e-016 1
    outer loop
      vertex -9 9.54007 6.6241
      vertex 9 9.54008 6.6241
      vertex -9 10.4599 6.6241
    endloop
  endfacet
  facet normal -4.61655e-017 0.207911 0.978148
    outer loop
      vertex 9 8.64033 6.81535
      vertex 9 9.54008 6.6241
      vertex -9 9.54007 6.6241
    endloop
  endfacet
  facet normal -4.61655e-017 0.207911 0.978148
    outer loop
      vertex -9 8.64033 6.81535
      vertex 9 8.64033 6.81535
      vertex -9 9.54007 6.6241
    endloop
  endfacet
  facet normal -9.03137e-017 0.406737 0.913545
    outer loop
      vertex 9 7.8 7.18949
      vertex 9 8.64033 6.81535
      vertex -9 8.64033 6.81535
    endloop
  endfacet
  facet normal -9.03137e-017 0.406737 0.913545
    outer loop
      vertex -9 7.8 7.18949
      vertex 9 7.8 7.18949
      vertex -9 8.64033 6.81535
    endloop
  endfacet
  facet normal -1.30515e-016 0.587785 0.809017
    outer loop
      vertex 9 7.05583 7.73016
      vertex 9 7.8 7.18949
      vertex -9 7.8 7.18949
    endloop
  endfacet
  facet normal -1.30515e-016 0.587785 0.809017
    outer loop
      vertex -9 7.05583 7.73016
      vertex 9 7.05583 7.73016
      vertex -9 7.8 7.18949
    endloop
  endfacet
  facet normal -1.65011e-016 0.743145 0.669131
    outer loop
      vertex 9 7.05583 7.73016
      vertex -9 7.05583 7.73016
      vertex 9 6.44033 8.41375
    endloop
  endfacet
  facet normal -1.65011e-016 0.743145 0.669131
    outer loop
      vertex 9 6.44033 8.41375
      vertex -9 7.05583 7.73016
      vertex -9 6.44033 8.41375
    endloop
  endfacet
  facet normal -1.92296e-016 0.866026 0.5
    outer loop
      vertex 9 6.44033 8.41375
      vertex -9 6.44033 8.41375
      vertex 9 5.9804 9.21036
    endloop
  endfacet
  facet normal -1.92296e-016 0.866026 0.5
    outer loop
      vertex 9 5.9804 9.21036
      vertex -9 6.44033 8.41375
      vertex -9 5.9804 9.21036
    endloop
  endfacet
  facet normal -2.11177e-016 0.951057 0.309017
    outer loop
      vertex 9 5.9804 9.21036
      vertex -9 5.9804 9.21036
      vertex 9 5.69615 10.0852
    endloop
  endfacet
  facet normal -2.11177e-016 0.951057 0.309017
    outer loop
      vertex 9 5.69615 10.0852
      vertex -9 5.9804 9.21036
      vertex -9 5.69615 10.0852
    endloop
  endfacet
  facet normal -2.20828e-016 0.994522 0.104529
    outer loop
      vertex 9 5.69615 10.0852
      vertex -9 5.69615 10.0852
      vertex 9 5.6 11
    endloop
  endfacet
  facet normal -2.20828e-016 0.994522 0.104529
    outer loop
      vertex 9 5.6 11
      vertex -9 5.69615 10.0852
      vertex -9 5.6 11
    endloop
  endfacet
  facet normal -2.20828e-016 0.994522 -0.104529
    outer loop
      vertex 9 5.6 11
      vertex -9 5.6 11
      vertex 9 5.69615 11.9148
    endloop
  endfacet
  facet normal -2.20828e-016 0.994522 -0.104529
    outer loop
      vertex 9 5.69615 11.9148
      vertex -9 5.6 11
      vertex -9 5.69615 11.9148
    endloop
  endfacet
  facet normal -2.11177e-016 0.951057 -0.309017
    outer loop
      vertex 9 5.69615 11.9148
      vertex -9 5.69615 11.9148
      vertex 9 5.9804 12.7896
    endloop
  endfacet
  facet normal -2.11177e-016 0.951057 -0.309017
    outer loop
      vertex 9 5.9804 12.7896
      vertex -9 5.69615 11.9148
      vertex -9 5.9804 12.7896
    endloop
  endfacet
  facet normal -1.92296e-016 0.866026 -0.5
    outer loop
      vertex 9 5.9804 12.7896
      vertex -9 5.9804 12.7896
      vertex 9 6.44033 13.5863
    endloop
  endfacet
  facet normal -1.92296e-016 0.866026 -0.5
    outer loop
      vertex 9 6.44033 13.5863
      vertex -9 5.9804 12.7896
      vertex -9 6.44032 13.5863
    endloop
  endfacet
  facet normal -1.65011e-016 0.743145 -0.669131
    outer loop
      vertex 9 6.44033 13.5863
      vertex -9 6.44032 13.5863
      vertex 9 7.05583 14.2698
    endloop
  endfacet
  facet normal -1.65011e-016 0.743145 -0.669131
    outer loop
      vertex 9 7.05583 14.2698
      vertex -9 6.44032 13.5863
      vertex -9 7.05582 14.2698
    endloop
  endfacet
  facet normal -1.30515e-016 0.587785 -0.809017
    outer loop
      vertex 9 7.05583 14.2698
      vertex -9 7.05582 14.2698
      vertex 9 7.8 14.8105
    endloop
  endfacet
  facet normal -1.30515e-016 0.587785 -0.809017
    outer loop
      vertex 9 7.8 14.8105
      vertex -9 7.05582 14.2698
      vertex -9 7.8 14.8105
    endloop
  endfacet
  facet normal -9.03137e-017 0.406737 -0.913545
    outer loop
      vertex 9 7.8 14.8105
      vertex -9 7.8 14.8105
      vertex 9 8.64033 15.1846
    endloop
  endfacet
  facet normal -9.03137e-017 0.406737 -0.913545
    outer loop
      vertex 9 8.64033 15.1846
      vertex -9 7.8 14.8105
      vertex -9 8.64032 15.1846
    endloop
  endfacet
  facet normal -4.61655e-017 0.207911 -0.978148
    outer loop
      vertex 9 8.64033 15.1846
      vertex -9 8.64032 15.1846
      vertex 9 9.54008 15.3759
    endloop
  endfacet
  facet normal -4.61655e-017 0.207911 -0.978148
    outer loop
      vertex 9 9.54008 15.3759
      vertex -9 8.64032 15.1846
      vertex -9 9.54007 15.3759
    endloop
  endfacet
  facet normal 4.61655e-017 -0.207911 -0.978148
    outer loop
      vertex 9 31.3597 15.1846
      vertex 9 30.4599 15.3759
      vertex -9 31.3597 15.1846
    endloop
  endfacet
  facet normal 4.61655e-017 -0.207911 -0.978148
    outer loop
      vertex -9 31.3597 15.1846
      vertex 9 30.4599 15.3759
      vertex -9 30.4599 15.3759
    endloop
  endfacet
  facet normal 0 2.22045e-016 -1
    outer loop
      vertex 9 30.4599 15.3759
      vertex 9 29.5401 15.3759
      vertex -9 30.4599 15.3759
    endloop
  endfacet
  facet normal 0 2.22045e-016 -1
    outer loop
      vertex -9 30.4599 15.3759
      vertex 9 29.5401 15.3759
      vertex -9 29.5401 15.3759
    endloop
  endfacet
  facet normal 9.03137e-017 -0.406737 -0.913545
    outer loop
      vertex 9 32.2 14.8105
      vertex 9 31.3597 15.1846
      vertex -9 32.2 14.8105
    endloop
  endfacet
  facet normal 9.03137e-017 -0.406737 -0.913545
    outer loop
      vertex -9 32.2 14.8105
      vertex 9 31.3597 15.1846
      vertex -9 31.3597 15.1846
    endloop
  endfacet
  facet normal 1.30515e-016 -0.587785 -0.809017
    outer loop
      vertex 9 32.9442 14.2698
      vertex 9 32.2 14.8105
      vertex -9 32.9442 14.2698
    endloop
  endfacet
  facet normal 1.30515e-016 -0.587785 -0.809017
    outer loop
      vertex -9 32.9442 14.2698
      vertex 9 32.2 14.8105
      vertex -9 32.2 14.8105
    endloop
  endfacet
  facet normal 1.65011e-016 -0.743145 -0.669131
    outer loop
      vertex -9 33.5597 13.5863
      vertex 9 33.5597 13.5863
      vertex 9 32.9442 14.2698
    endloop
  endfacet
  facet normal 1.65011e-016 -0.743145 -0.669131
    outer loop
      vertex -9 32.9442 14.2698
      vertex -9 33.5597 13.5863
      vertex 9 32.9442 14.2698
    endloop
  endfacet
  facet normal 1.92296e-016 -0.866026 -0.5
    outer loop
      vertex -9 34.0196 12.7896
      vertex 9 34.0196 12.7896
      vertex 9 33.5597 13.5863
    endloop
  endfacet
  facet normal 1.92296e-016 -0.866026 -0.5
    outer loop
      vertex -9 33.5597 13.5863
      vertex -9 34.0196 12.7896
      vertex 9 33.5597 13.5863
    endloop
  endfacet
  facet normal 2.11177e-016 -0.951057 -0.309017
    outer loop
      vertex -9 34.3038 11.9148
      vertex 9 34.3038 11.9148
      vertex 9 34.0196 12.7896
    endloop
  endfacet
  facet normal 2.11177e-016 -0.951057 -0.309017
    outer loop
      vertex -9 34.0196 12.7896
      vertex -9 34.3038 11.9148
      vertex 9 34.0196 12.7896
    endloop
  endfacet
  facet normal 2.20828e-016 -0.994522 -0.104529
    outer loop
      vertex -9 34.4 11
      vertex 9 34.4 11
      vertex 9 34.3038 11.9148
    endloop
  endfacet
  facet normal 2.20828e-016 -0.994522 -0.104529
    outer loop
      vertex -9 34.3038 11.9148
      vertex -9 34.4 11
      vertex 9 34.3038 11.9148
    endloop
  endfacet
  facet normal 2.20828e-016 -0.994522 0.104529
    outer loop
      vertex -9 34.3038 10.0852
      vertex 9 34.3038 10.0852
      vertex 9 34.4 11
    endloop
  endfacet
  facet normal 2.20828e-016 -0.994522 0.104529
    outer loop
      vertex -9 34.4 11
      vertex -9 34.3038 10.0852
      vertex 9 34.4 11
    endloop
  endfacet
  facet normal 2.11177e-016 -0.951057 0.309017
    outer loop
      vertex -9 34.0196 9.21036
      vertex 9 34.0196 9.21036
      vertex 9 34.3038 10.0852
    endloop
  endfacet
  facet normal 2.11177e-016 -0.951057 0.309017
    outer loop
      vertex -9 34.3038 10.0852
      vertex -9 34.0196 9.21036
      vertex 9 34.3038 10.0852
    endloop
  endfacet
  facet normal 1.92296e-016 -0.866026 0.5
    outer loop
      vertex -9 33.5597 8.41375
      vertex 9 33.5597 8.41375
      vertex 9 34.0196 9.21036
    endloop
  endfacet
  facet normal 1.92296e-016 -0.866026 0.5
    outer loop
      vertex -9 34.0196 9.21036
      vertex -9 33.5597 8.41375
      vertex 9 34.0196 9.21036
    endloop
  endfacet
  facet normal 1.65011e-016 -0.743145 0.669131
    outer loop
      vertex -9 32.9442 7.73016
      vertex 9 32.9442 7.73016
      vertex 9 33.5597 8.41375
    endloop
  endfacet
  facet normal 1.65011e-016 -0.743145 0.669131
    outer loop
      vertex -9 33.5597 8.41375
      vertex -9 32.9442 7.73016
      vertex 9 33.5597 8.41375
    endloop
  endfacet
  facet normal 1.30515e-016 -0.587785 0.809017
    outer loop
      vertex -9 32.2 7.18949
      vertex 9 32.2 7.18949
      vertex 9 32.9442 7.73016
    endloop
  endfacet
  facet normal 1.30515e-016 -0.587785 0.809017
    outer loop
      vertex -9 32.9442 7.73016
      vertex -9 32.2 7.18949
      vertex 9 32.9442 7.73016
    endloop
  endfacet
  facet normal 9.03137e-017 -0.406737 0.913545
    outer loop
      vertex -9 31.3597 6.81535
      vertex 9 31.3597 6.81535
      vertex 9 32.2 7.18949
    endloop
  endfacet
  facet normal 9.03137e-017 -0.406737 0.913545
    outer loop
      vertex -9 32.2 7.18949
      vertex -9 31.3597 6.81535
      vertex 9 32.2 7.18949
    endloop
  endfacet
  facet normal 4.61655e-017 -0.207911 0.978148
    outer loop
      vertex -9 30.4599 6.6241
      vertex 9 30.4599 6.6241
      vertex 9 31.3597 6.81535
    endloop
  endfacet
  facet normal 4.61655e-017 -0.207911 0.978148
    outer loop
      vertex -9 31.3597 6.81535
      vertex -9 30.4599 6.6241
      vertex 9 31.3597 6.81535
    endloop
  endfacet
  facet normal 0 -2.22045e-016 1
    outer loop
      vertex 9 29.5401 6.6241
      vertex 9 30.4599 6.6241
      vertex -9 30.4599 6.6241
    endloop
  endfacet
  facet normal 0 -2.22045e-016 1
    outer loop
      vertex -9 29.5401 6.6241
      vertex 9 29.5401 6.6241
      vertex -9 30.4599 6.6241
    endloop
  endfacet
  facet normal -4.61655e-017 0.207911 0.978148
    outer loop
      vertex 9 28.6403 6.81535
      vertex 9 29.5401 6.6241
      vertex -9 29.5401 6.6241
    endloop
  endfacet
  facet normal -4.61655e-017 0.207911 0.978148
    outer loop
      vertex -9 28.6403 6.81535
      vertex 9 28.6403 6.81535
      vertex -9 29.5401 6.6241
    endloop
  endfacet
  facet normal -9.03137e-017 0.406737 0.913545
    outer loop
      vertex 9 27.8 7.18949
      vertex 9 28.6403 6.81535
      vertex -9 28.6403 6.81535
    endloop
  endfacet
  facet normal -9.03137e-017 0.406737 0.913545
    outer loop
      vertex -9 27.8 7.18949
      vertex 9 27.8 7.18949
      vertex -9 28.6403 6.81535
    endloop
  endfacet
  facet normal -1.30515e-016 0.587785 0.809017
    outer loop
      vertex 9 27.0558 7.73016
      vertex 9 27.8 7.18949
      vertex -9 27.8 7.18949
    endloop
  endfacet
  facet normal -1.30515e-016 0.587785 0.809017
    outer loop
      vertex -9 27.0558 7.73016
      vertex 9 27.0558 7.73016
      vertex -9 27.8 7.18949
    endloop
  endfacet
  facet normal -1.65011e-016 0.743145 0.669131
    outer loop
      vertex 9 27.0558 7.73016
      vertex -9 27.0558 7.73016
      vertex 9 26.4403 8.41375
    endloop
  endfacet
  facet normal -1.65011e-016 0.743145 0.669131
    outer loop
      vertex 9 26.4403 8.41375
      vertex -9 27.0558 7.73016
      vertex -9 26.4403 8.41375
    endloop
  endfacet
  facet normal -1.92296e-016 0.866026 0.5
    outer loop
      vertex 9 26.4403 8.41375
      vertex -9 26.4403 8.41375
      vertex 9 25.9804 9.21036
    endloop
  endfacet
  facet normal -1.92296e-016 0.866026 0.5
    outer loop
      vertex 9 25.9804 9.21036
      vertex -9 26.4403 8.41375
      vertex -9 25.9804 9.21036
    endloop
  endfacet
  facet normal -2.11177e-016 0.951057 0.309017
    outer loop
      vertex 9 25.9804 9.21036
      vertex -9 25.9804 9.21036
      vertex 9 25.6962 10.0852
    endloop
  endfacet
  facet normal -2.11177e-016 0.951057 0.309017
    outer loop
      vertex 9 25.6962 10.0852
      vertex -9 25.9804 9.21036
      vertex -9 25.6962 10.0852
    endloop
  endfacet
  facet normal -2.20828e-016 0.994522 0.104529
    outer loop
      vertex 9 25.6962 10.0852
      vertex -9 25.6962 10.0852
      vertex 9 25.6 11
    endloop
  endfacet
  facet normal -2.20828e-016 0.994522 0.104529
    outer loop
      vertex 9 25.6 11
      vertex -9 25.6962 10.0852
      vertex -9 25.6 11
    endloop
  endfacet
  facet normal -2.20828e-016 0.994522 -0.104529
    outer loop
      vertex 9 25.6 11
      vertex -9 25.6 11
      vertex 9 25.6962 11.9148
    endloop
  endfacet
  facet normal -2.20828e-016 0.994522 -0.104529
    outer loop
      vertex 9 25.6962 11.9148
      vertex -9 25.6 11
      vertex -9 25.6962 11.9148
    endloop
  endfacet
  facet normal -2.11177e-016 0.951057 -0.309017
    outer loop
      vertex 9 25.6962 11.9148
      vertex -9 25.6962 11.9148
      vertex 9 25.9804 12.7896
    endloop
  endfacet
  facet normal -2.11177e-016 0.951057 -0.309017
    outer loop
      vertex 9 25.9804 12.7896
      vertex -9 25.6962 11.9148
      vertex -9 25.9804 12.7896
    endloop
  endfacet
  facet normal -1.92296e-016 0.866026 -0.5
    outer loop
      vertex 9 25.9804 12.7896
      vertex -9 25.9804 12.7896
      vertex 9 26.4403 13.5863
    endloop
  endfacet
  facet normal -1.92296e-016 0.866026 -0.5
    outer loop
      vertex 9 26.4403 13.5863
      vertex -9 25.9804 12.7896
      vertex -9 26.4403 13.5863
    endloop
  endfacet
  facet normal -1.65011e-016 0.743145 -0.669131
    outer loop
      vertex 9 26.4403 13.5863
      vertex -9 26.4403 13.5863
      vertex 9 27.0558 14.2698
    endloop
  endfacet
  facet normal -1.65011e-016 0.743145 -0.669131
    outer loop
      vertex 9 27.0558 14.2698
      vertex -9 26.4403 13.5863
      vertex -9 27.0558 14.2698
    endloop
  endfacet
  facet normal -1.30515e-016 0.587785 -0.809017
    outer loop
      vertex 9 27.0558 14.2698
      vertex -9 27.0558 14.2698
      vertex 9 27.8 14.8105
    endloop
  endfacet
  facet normal -1.30515e-016 0.587785 -0.809017
    outer loop
      vertex 9 27.8 14.8105
      vertex -9 27.0558 14.2698
      vertex -9 27.8 14.8105
    endloop
  endfacet
  facet normal -9.03137e-017 0.406737 -0.913545
    outer loop
      vertex 9 27.8 14.8105
      vertex -9 27.8 14.8105
      vertex 9 28.6403 15.1846
    endloop
  endfacet
  facet normal -9.03137e-017 0.406737 -0.913545
    outer loop
      vertex 9 28.6403 15.1846
      vertex -9 27.8 14.8105
      vertex -9 28.6403 15.1846
    endloop
  endfacet
  facet normal -4.61655e-017 0.207911 -0.978148
    outer loop
      vertex 9 28.6403 15.1846
      vertex -9 28.6403 15.1846
      vertex 9 29.5401 15.3759
    endloop
  endfacet
  facet normal -4.61655e-017 0.207911 -0.978148
    outer loop
      vertex 9 29.5401 15.3759
      vertex -9 28.6403 15.1846
      vertex -9 29.5401 15.3759
    endloop
  endfacet
  facet normal 0 2.22045e-016 -1
    outer loop
      vertex -1.52813 41 13
      vertex -0.89402 40.794 13
      vertex -9 41 13
    endloop
  endfacet
  facet normal 0 2.22045e-016 -1
    outer loop
      vertex -9 41 13
      vertex -0.89402 40.794 13
      vertex 1.55431e-015 40.7 13
    endloop
  endfacet
  facet normal 0 2.22045e-016 -1
    outer loop
      vertex 0.89402 40.794 13
      vertex 1.52813 41 13
      vertex 9 41 13
    endloop
  endfacet
  facet normal 0 2.22045e-016 -1
    outer loop
      vertex 0.89402 40.794 13
      vertex 9 41 13
      vertex 1.55431e-015 40.7 13
    endloop
  endfacet
  facet normal 0 2.22045e-016 -1
    outer loop
      vertex 1.55431e-015 40.7 13
      vertex 9 41 13
      vertex 9 39 13
    endloop
  endfacet
  facet normal 0 2.22045e-016 -1
    outer loop
      vertex 1.55431e-015 40.7 13
      vertex 9 39 13
      vertex -9 41 13
    endloop
  endfacet
  facet normal 0 2.22045e-016 -1
    outer loop
      vertex -9 41 13
      vertex 9 39 13
      vertex -9 39 13
    endloop
  endfacet
  facet normal 0 -1 -2.22045e-016
    outer loop
      vertex -9 41 9.5
      vertex -1.52813 41 9.5
      vertex -1.52813 41 13
    endloop
  endfacet
  facet normal 0 -1 -2.22045e-016
    outer loop
      vertex -9 41 13
      vertex -9 41 9.5
      vertex -1.52813 41 13
    endloop
  endfacet
  facet normal 0 -2.22045e-016 1
    outer loop
      vertex 9 39 9.5
      vertex 9 41 9.5
      vertex 1.52813 41 9.5
    endloop
  endfacet
  facet normal 0 -2.22045e-016 1
    outer loop
      vertex 2.33147e-015 40.7 9.5
      vertex 9 39 9.5
      vertex 0.89402 40.794 9.5
    endloop
  endfacet
  facet normal 0 -2.22045e-016 1
    outer loop
      vertex 0.89402 40.794 9.5
      vertex 9 39 9.5
      vertex 1.52813 41 9.5
    endloop
  endfacet
  facet normal 0 -2.22045e-016 1
    outer loop
      vertex -0.89402 40.794 9.5
      vertex 9 39 9.5
      vertex 2.33147e-015 40.7 9.5
    endloop
  endfacet
  facet normal 0 -2.22045e-016 1
    outer loop
      vertex -9 41 9.5
      vertex 9 39 9.5
      vertex -0.89402 40.794 9.5
    endloop
  endfacet
  facet normal 0 -2.22045e-016 1
    outer loop
      vertex -9 41 9.5
      vertex -0.89402 40.794 9.5
      vertex -1.52813 41 9.5
    endloop
  endfacet
  facet normal 0 -2.22045e-016 1
    outer loop
      vertex -9 39 9.5
      vertex 9 39 9.5
      vertex -9 41 9.5
    endloop
  endfacet
  facet normal 0 1 2.22045e-016
    outer loop
      vertex 9 39 9.5
      vertex -9 39 9.5
      vertex 9 39 13
    endloop
  endfacet
  facet normal 0 1 2.22045e-016
    outer loop
      vertex 9 39 13
      vertex -9 39 9.5
      vertex -9 39 13
    endloop
  endfacet
  facet normal 0 -2.22045e-016 1
    outer loop
      vertex -3.26984 17.0558 22
      vertex -6 -2.44249e-015 22
      vertex 6 -2.44249e-015 22
    endloop
  endfacet
  facet normal 0 -2.22045e-016 1
    outer loop
      vertex 4.3759 19.5401 22
      vertex 4.18465 18.6403 22
      vertex 6 -2.44249e-015 22
    endloop
  endfacet
  facet normal 0 -2.22045e-016 1
    outer loop
      vertex -6 45 22
      vertex -6 -2.44249e-015 22
      vertex -4.3759 19.5401 22
    endloop
  endfacet
  facet normal 0 -2.22045e-016 1
    outer loop
      vertex -2.58625 16.4403 22
      vertex -3.26984 17.0558 22
      vertex 6 -2.44249e-015 22
    endloop
  endfacet
  facet normal 0 -2.22045e-016 1
    outer loop
      vertex -6 45 22
      vertex -4.3759 19.5401 22
      vertex -4.3759 20.4599 22
    endloop
  endfacet
  facet normal 0 -2.22045e-016 1
    outer loop
      vertex -1.78964 15.9804 22
      vertex -2.58625 16.4403 22
      vertex 6 -2.44249e-015 22
    endloop
  endfacet
  facet normal 0 -2.22045e-016 1
    outer loop
      vertex -6 45 22
      vertex -4.3759 20.4599 22
      vertex -4.18465 21.3597 22
    endloop
  endfacet
  facet normal 0 -2.22045e-016 1
    outer loop
      vertex -6 45 22
      vertex -4.18465 21.3597 22
      vertex -3.81051 22.2 22
    endloop
  endfacet
  facet normal 0 -2.22045e-016 1
    outer loop
      vertex -6 45 22
      vertex -3.81051 22.2 22
      vertex -3.26984 22.9442 22
    endloop
  endfacet
  facet normal 0 -2.22045e-016 1
    outer loop
      vertex 0 15.6 22
      vertex -0.914811 15.6962 22
      vertex 6 -2.44249e-015 22
    endloop
  endfacet
  facet normal 0 -2.22045e-016 1
    outer loop
      vertex -6 45 22
      vertex -3.26984 22.9442 22
      vertex -2.58625 23.5597 22
    endloop
  endfacet
  facet normal 0 -2.22045e-016 1
    outer loop
      vertex -0.914811 15.6962 22
      vertex -1.78964 15.9804 22
      vertex 6 -2.44249e-015 22
    endloop
  endfacet
  facet normal 0 -2.22045e-016 1
    outer loop
      vertex -6 45 22
      vertex -2.58625 23.5597 22
      vertex -1.78964 24.0196 22
    endloop
  endfacet
  facet normal 0 -2.22045e-016 1
    outer loop
      vertex 4.18465 18.6403 22
      vertex 3.81051 17.8 22
      vertex 6 -2.44249e-015 22
    endloop
  endfacet
  facet normal 0 -2.22045e-016 1
    outer loop
      vertex -6 45 22
      vertex -1.78964 24.0196 22
      vertex -0.914811 24.3038 22
    endloop
  endfacet
  facet normal 0 -2.22045e-016 1
    outer loop
      vertex 1.78964 15.9804 22
      vertex 0.914811 15.6962 22
      vertex 6 -2.44249e-015 22
    endloop
  endfacet
  facet normal 0 -2.22045e-016 1
    outer loop
      vertex 6 45 22
      vertex -6 45 22
      vertex 0 24.4 22
    endloop
  endfacet
  facet normal 0 -2.22045e-016 1
    outer loop
      vertex 0.914811 15.6962 22
      vertex 0 15.6 22
      vertex 6 -2.44249e-015 22
    endloop
  endfacet
  facet normal 0 -2.22045e-016 1
    outer loop
      vertex 6 45 22
      vertex 0 24.4 22
      vertex 0.914811 24.3038 22
    endloop
  endfacet
  facet normal 0 -2.22045e-016 1
    outer loop
      vertex 6 45 22
      vertex 0.914811 24.3038 22
      vertex 1.78964 24.0196 22
    endloop
  endfacet
  facet normal 0 -2.22045e-016 1
    outer loop
      vertex 3.26984 17.0558 22
      vertex 2.58625 16.4403 22
      vertex 6 -2.44249e-015 22
    endloop
  endfacet
  facet normal 0 -2.22045e-016 1
    outer loop
      vertex 6 45 22
      vertex 1.78964 24.0196 22
      vertex 2.58625 23.5597 22
    endloop
  endfacet
  facet normal 0 -2.22045e-016 1
    outer loop
      vertex 3.81051 17.8 22
      vertex 3.26984 17.0558 22
      vertex 6 -2.44249e-015 22
    endloop
  endfacet
  facet normal 0 -2.22045e-016 1
    outer loop
      vertex 6 45 22
      vertex 2.58625 23.5597 22
      vertex 3.26984 22.9442 22
    endloop
  endfacet
  facet normal 0 -2.22045e-016 1
    outer loop
      vertex 2.58625 16.4403 22
      vertex 1.78964 15.9804 22
      vertex 6 -2.44249e-015 22
    endloop
  endfacet
  facet normal 0 -2.22045e-016 1
    outer loop
      vertex 6 45 22
      vertex 3.26984 22.9442 22
      vertex 3.81051 22.2 22
    endloop
  endfacet
  facet normal 0 -2.22045e-016 1
    outer loop
      vertex 6 45 22
      vertex 3.81051 22.2 22
      vertex 4.18465 21.3597 22
    endloop
  endfacet
  facet normal 0 -2.22045e-016 1
    outer loop
      vertex 6 45 22
      vertex 4.3759 20.4599 22
      vertex 6 -2.44249e-015 22
    endloop
  endfacet
  facet normal 0 -2.22045e-016 1
    outer loop
      vertex 6 45 22
      vertex 4.18465 21.3597 22
      vertex 4.3759 20.4599 22
    endloop
  endfacet
  facet normal 0 -2.22045e-016 1
    outer loop
      vertex 4.3759 20.4599 22
      vertex 4.3759 19.5401 22
      vertex 6 -2.44249e-015 22
    endloop
  endfacet
  facet normal 0 -2.22045e-016 1
    outer loop
      vertex -3.81051 17.8 22
      vertex -6 -2.44249e-015 22
      vertex -3.26984 17.0558 22
    endloop
  endfacet
  facet normal 0 -2.22045e-016 1
    outer loop
      vertex -4.18465 18.6403 22
      vertex -6 -2.44249e-015 22
      vertex -3.81051 17.8 22
    endloop
  endfacet
  facet normal 0 -2.22045e-016 1
    outer loop
      vertex -4.3759 19.5401 22
      vertex -6 -2.44249e-015 22
      vertex -4.18465 18.6403 22
    endloop
  endfacet
  facet normal 0 -2.22045e-016 1
    outer loop
      vertex -0.914811 24.3038 22
      vertex 0 24.4 22
      vertex -6 45 22
    endloop
  endfacet
  facet normal -1.25385e-016 0.707107 0.707107
    outer loop
      vertex -6 45 22
      vertex 6 45 22
      vertex 7.5 46.5 20.5
    endloop
  endfacet
  facet normal -1.25385e-016 0.707107 0.707107
    outer loop
      vertex 3.79069 47 20
      vertex -6 45 22
      vertex 7 47 20
    endloop
  endfacet
  facet normal -1.25385e-016 0.707107 0.707107
    outer loop
      vertex 7 47 20
      vertex -6 45 22
      vertex 7.5 46.5 20.5
    endloop
  endfacet
  facet normal -1.25385e-016 0.707107 0.707107
    outer loop
      vertex -7 47 20
      vertex -6 45 22
      vertex -3.79069 47 20
    endloop
  endfacet
  facet normal -1.25385e-016 0.707107 0.707107
    outer loop
      vertex -7.5 46.5 20.5
      vertex -6 45 22
      vertex -7 47 20
    endloop
  endfacet
  facet normal -1.25385e-016 0.707107 0.707107
    outer loop
      vertex 3.79069 47 20
      vertex -3.79069 47 20
      vertex -6 45 22
    endloop
  endfacet
  facet normal 0.707107 -1.57009e-016 0.707107
    outer loop
      vertex 9 -1.77636e-015 19
      vertex 9 45 19
      vertex 7.5 46.5 20.5
    endloop
  endfacet
  facet normal 0.707107 -1.57009e-016 0.707107
    outer loop
      vertex 6 -2.44249e-015 22
      vertex 9 -1.77636e-015 19
      vertex 6 45 22
    endloop
  endfacet
  facet normal 0.707107 -1.57009e-016 0.707107
    outer loop
      vertex 6 45 22
      vertex 9 -1.77636e-015 19
      vertex 7.5 46.5 20.5
    endloop
  endfacet
  facet normal 1 0 0
    outer loop
      vertex 9 5.69615 10.0852
      vertex 9 -1.77636e-015 19
      vertex 9 2.44249e-015 0
    endloop
  endfacet
  facet normal 1 0 0
    outer loop
      vertex 9 45 19
      vertex 9 -1.77636e-015 19
      vertex 9 9.54008 15.3759
    endloop
  endfacet
  facet normal 1 0 0
    outer loop
      vertex 9 5.9804 9.21036
      vertex 9 5.69615 10.0852
      vertex 9 2.44249e-015 0
    endloop
  endfacet
  facet normal 1 0 0
    outer loop
      vertex 9 45 19
      vertex 9 9.54008 15.3759
      vertex 9 10.4599 15.3759
    endloop
  endfacet
  facet normal 1 0 0
    outer loop
      vertex 9 30.4599 15.3759
      vertex 9 31.3597 15.1846
      vertex 9 45 19
    endloop
  endfacet
  facet normal 1 0 0
    outer loop
      vertex 9 45 19
      vertex 9 10.4599 15.3759
      vertex 9 11.3597 15.1846
    endloop
  endfacet
  facet normal 1 0 0
    outer loop
      vertex 9 45 19
      vertex 9 11.3597 15.1846
      vertex 9 12.2 14.8105
    endloop
  endfacet
  facet normal 1 0 0
    outer loop
      vertex 9 6.44033 8.41375
      vertex 9 5.9804 9.21036
      vertex 9 2.44249e-015 0
    endloop
  endfacet
  facet normal 1 0 0
    outer loop
      vertex 9 45 19
      vertex 9 12.2 14.8105
      vertex 9 12.9442 14.2698
    endloop
  endfacet
  facet normal 1 0 0
    outer loop
      vertex 9 45 19
      vertex 9 12.9442 14.2698
      vertex 9 13.5597 13.5863
    endloop
  endfacet
  facet normal 1 0 0
    outer loop
      vertex 9 7.8 7.18949
      vertex 9 7.05583 7.73016
      vertex 9 2.44249e-015 0
    endloop
  endfacet
  facet normal 1 0 0
    outer loop
      vertex 9 45 19
      vertex 9 13.5597 13.5863
      vertex 9 14.0196 12.7896
    endloop
  endfacet
  facet normal 1 0 0
    outer loop
      vertex 9 7.05583 7.73016
      vertex 9 6.44033 8.41375
      vertex 9 2.44249e-015 0
    endloop
  endfacet
  facet normal 1 0 0
    outer loop
      vertex 9 45 19
      vertex 9 14.0196 12.7896
      vertex 9 14.3038 11.9148
    endloop
  endfacet
  facet normal 1 0 0
    outer loop
      vertex 9 41 9.5
      vertex 9 39 9.5
      vertex 9 45 9.99201e-015
    endloop
  endfacet
  facet normal 1 0 0
    outer loop
      vertex 9 8.64033 6.81535
      vertex 9 7.8 7.18949
      vertex 9 2.44249e-015 0
    endloop
  endfacet
  facet normal 1 0 0
    outer loop
      vertex 9 27.0558 14.2698
      vertex 9 27.8 14.8105
      vertex 9 14.4 11
    endloop
  endfacet
  facet normal 1 0 0
    outer loop
      vertex 9 26.4403 13.5863
      vertex 9 14.3038 10.0852
      vertex 9 14.0196 9.21036
    endloop
  endfacet
  facet normal 1 0 0
    outer loop
      vertex 9 10.4599 6.6241
      vertex 9 9.54008 6.6241
      vertex 9 2.44249e-015 0
    endloop
  endfacet
  facet normal 1 0 0
    outer loop
      vertex 9 25.9804 12.7896
      vertex 9 14.0196 9.21036
      vertex 9 13.5597 8.41375
    endloop
  endfacet
  facet normal 1 0 0
    outer loop
      vertex 9 11.3597 6.81535
      vertex 9 10.4599 6.6241
      vertex 9 2.44249e-015 0
    endloop
  endfacet
  facet normal 1 0 0
    outer loop
      vertex 9 32.9442 14.2698
      vertex 9 33.5597 13.5863
      vertex 9 45 19
    endloop
  endfacet
  facet normal 1 0 0
    outer loop
      vertex 9 27.8 14.8105
      vertex 9 14.3038 11.9148
      vertex 9 14.4 11
    endloop
  endfacet
  facet normal 1 0 0
    outer loop
      vertex 9 5.6 11
      vertex 9 -1.77636e-015 19
      vertex 9 5.69615 10.0852
    endloop
  endfacet
  facet normal 1 0 0
    outer loop
      vertex 9 5.69615 11.9148
      vertex 9 -1.77636e-015 19
      vertex 9 5.6 11
    endloop
  endfacet
  facet normal 1 0 0
    outer loop
      vertex 9 5.9804 12.7896
      vertex 9 -1.77636e-015 19
      vertex 9 5.69615 11.9148
    endloop
  endfacet
  facet normal 1 0 0
    outer loop
      vertex 9 6.44033 13.5863
      vertex 9 -1.77636e-015 19
      vertex 9 5.9804 12.7896
    endloop
  endfacet
  facet normal 1 0 0
    outer loop
      vertex 9 7.05583 14.2698
      vertex 9 -1.77636e-015 19
      vertex 9 6.44033 13.5863
    endloop
  endfacet
  facet normal 1 0 0
    outer loop
      vertex 9 7.8 14.8105
      vertex 9 -1.77636e-015 19
      vertex 9 7.05583 14.2698
    endloop
  endfacet
  facet normal 1 0 0
    outer loop
      vertex 9 8.64033 15.1846
      vertex 9 -1.77636e-015 19
      vertex 9 7.8 14.8105
    endloop
  endfacet
  facet normal 1 0 0
    outer loop
      vertex 9 9.54008 15.3759
      vertex 9 -1.77636e-015 19
      vertex 9 8.64033 15.1846
    endloop
  endfacet
  facet normal 1 0 0
    outer loop
      vertex 9 45 19
      vertex 9 29.5401 15.3759
      vertex 9 30.4599 15.3759
    endloop
  endfacet
  facet normal 1 0 0
    outer loop
      vertex 9 25.9804 12.7896
      vertex 9 26.4403 13.5863
      vertex 9 14.0196 9.21036
    endloop
  endfacet
  facet normal 1 0 0
    outer loop
      vertex 9 25.6962 11.9148
      vertex 9 12.9442 7.73016
      vertex 9 12.2 7.18949
    endloop
  endfacet
  facet normal 1 0 0
    outer loop
      vertex 9 25.6962 11.9148
      vertex 9 25.9804 12.7896
      vertex 9 13.5597 8.41375
    endloop
  endfacet
  facet normal 1 0 0
    outer loop
      vertex 9 25.6 11
      vertex 9 12.2 7.18949
      vertex 9 2.44249e-015 0
    endloop
  endfacet
  facet normal 1 0 0
    outer loop
      vertex 9 39 13
      vertex 9 45 19
      vertex 9 33.5597 13.5863
    endloop
  endfacet
  facet normal 1 0 0
    outer loop
      vertex 9 25.6962 10.0852
      vertex 9 25.6 11
      vertex 9 2.44249e-015 0
    endloop
  endfacet
  facet normal 1 0 0
    outer loop
      vertex 9 45 9.99201e-015
      vertex 9 33.5597 13.5863
      vertex 9 34.0196 12.7896
    endloop
  endfacet
  facet normal 1 0 0
    outer loop
      vertex 9 25.9804 9.21036
      vertex 9 25.6962 10.0852
      vertex 9 2.44249e-015 0
    endloop
  endfacet
  facet normal 1 0 0
    outer loop
      vertex 9 45 9.99201e-015
      vertex 9 34.0196 12.7896
      vertex 9 34.3038 11.9148
    endloop
  endfacet
  facet normal 1 0 0
    outer loop
      vertex 9 25.6 11
      vertex 9 25.6962 11.9148
      vertex 9 12.2 7.18949
    endloop
  endfacet
  facet normal 1 0 0
    outer loop
      vertex 9 45 9.99201e-015
      vertex 9 34.3038 11.9148
      vertex 9 34.4 11
    endloop
  endfacet
  facet normal 1 0 0
    outer loop
      vertex 9 45 9.99201e-015
      vertex 9 34.4 11
      vertex 9 34.3038 10.0852
    endloop
  endfacet
  facet normal 1 0 0
    outer loop
      vertex 9 27.0558 7.73016
      vertex 9 26.4403 8.41375
      vertex 9 2.44249e-015 0
    endloop
  endfacet
  facet normal 1 0 0
    outer loop
      vertex 9 45 9.99201e-015
      vertex 9 34.3038 10.0852
      vertex 9 34.0196 9.21036
    endloop
  endfacet
  facet normal 1 0 0
    outer loop
      vertex 9 27.8 7.18949
      vertex 9 27.0558 7.73016
      vertex 9 2.44249e-015 0
    endloop
  endfacet
  facet normal 1 0 0
    outer loop
      vertex 9 45 9.99201e-015
      vertex 9 34.0196 9.21036
      vertex 9 33.5597 8.41375
    endloop
  endfacet
  facet normal 1 0 0
    outer loop
      vertex 9 28.6403 6.81535
      vertex 9 27.8 7.18949
      vertex 9 2.44249e-015 0
    endloop
  endfacet
  facet normal 1 0 0
    outer loop
      vertex 9 45 9.99201e-015
      vertex 9 33.5597 8.41375
      vertex 9 32.9442 7.73016
    endloop
  endfacet
  facet normal 1 0 0
    outer loop
      vertex 9 29.5401 6.6241
      vertex 9 28.6403 6.81535
      vertex 9 2.44249e-015 0
    endloop
  endfacet
  facet normal 1 0 0
    outer loop
      vertex 9 45 9.99201e-015
      vertex 9 32.9442 7.73016
      vertex 9 32.2 7.18949
    endloop
  endfacet
  facet normal 1 0 0
    outer loop
      vertex 9 45 9.99201e-015
      vertex 9 31.3597 6.81535
      vertex 9 2.44249e-015 0
    endloop
  endfacet
  facet normal 1 0 0
    outer loop
      vertex 9 45 9.99201e-015
      vertex 9 32.2 7.18949
      vertex 9 31.3597 6.81535
    endloop
  endfacet
  facet normal 1 0 0
    outer loop
      vertex 9 31.3597 6.81535
      vertex 9 30.4599 6.6241
      vertex 9 2.44249e-015 0
    endloop
  endfacet
  facet normal 1 0 0
    outer loop
      vertex 9 30.4599 6.6241
      vertex 9 29.5401 6.6241
      vertex 9 2.44249e-015 0
    endloop
  endfacet
  facet normal 1 0 0
    outer loop
      vertex 9 26.4403 8.41375
      vertex 9 25.9804 9.21036
      vertex 9 2.44249e-015 0
    endloop
  endfacet
  facet normal 1 0 0
    outer loop
      vertex 9 26.4403 13.5863
      vertex 9 14.4 11
      vertex 9 14.3038 10.0852
    endloop
  endfacet
  facet normal 1 0 0
    outer loop
      vertex 9 25.6962 11.9148
      vertex 9 13.5597 8.41375
      vertex 9 12.9442 7.73016
    endloop
  endfacet
  facet normal 1 0 0
    outer loop
      vertex 9 26.4403 13.5863
      vertex 9 27.0558 14.2698
      vertex 9 14.4 11
    endloop
  endfacet
  facet normal 1 0 0
    outer loop
      vertex 9 27.8 14.8105
      vertex 9 28.6403 15.1846
      vertex 9 14.3038 11.9148
    endloop
  endfacet
  facet normal 1 0 0
    outer loop
      vertex 9 45 19
      vertex 9 28.6403 15.1846
      vertex 9 29.5401 15.3759
    endloop
  endfacet
  facet normal 1 0 0
    outer loop
      vertex 9 45 19
      vertex 9 14.3038 11.9148
      vertex 9 28.6403 15.1846
    endloop
  endfacet
  facet normal 1 0 0
    outer loop
      vertex 9 39 9.5
      vertex 9 39 13
      vertex 9 33.5597 13.5863
    endloop
  endfacet
  facet normal 1 0 0
    outer loop
      vertex 9 41 13
      vertex 9 45 19
      vertex 9 39 13
    endloop
  endfacet
  facet normal 1 0 0
    outer loop
      vertex 9 45 9.99201e-015
      vertex 9 45 19
      vertex 9 41 13
    endloop
  endfacet
  facet normal 1 0 0
    outer loop
      vertex 9 45 9.99201e-015
      vertex 9 41 13
      vertex 9 41 9.5
    endloop
  endfacet
  facet normal 1 0 0
    outer loop
      vertex 9 45 9.99201e-015
      vertex 9 39 9.5
      vertex 9 33.5597 13.5863
    endloop
  endfacet
  facet normal 1 0 0
    outer loop
      vertex 9 12.2 7.18949
      vertex 9 11.3597 6.81535
      vertex 9 2.44249e-015 0
    endloop
  endfacet
  facet normal 1 0 0
    outer loop
      vertex 9 9.54008 6.6241
      vertex 9 8.64033 6.81535
      vertex 9 2.44249e-015 0
    endloop
  endfacet
  facet normal 1 0 0
    outer loop
      vertex 9 31.3597 15.1846
      vertex 9 32.2 14.8105
      vertex 9 45 19
    endloop
  endfacet
  facet normal 1 0 0
    outer loop
      vertex 9 32.2 14.8105
      vertex 9 32.9442 14.2698
      vertex 9 45 19
    endloop
  endfacet
  facet normal 0.707107 0.707107 1.57009e-016
    outer loop
      vertex 7.5 46.5 20.5
      vertex 9 45 19
      vertex 9 45 9.99201e-015
    endloop
  endfacet
  facet normal 0.707107 0.707107 1.57009e-016
    outer loop
      vertex 7 47 20
      vertex 7.5 46.5 20.5
      vertex 7 47 1.04361e-014
    endloop
  endfacet
  facet normal 0.707107 0.707107 1.57009e-016
    outer loop
      vertex 7 47 1.04361e-014
      vertex 7.5 46.5 20.5
      vertex 9 45 9.99201e-015
    endloop
  endfacet
  facet normal 0 1 2.22045e-016
    outer loop
      vertex 3.79069 47 20
      vertex 7 47 20
      vertex 3.79069 47 1.04361e-014
    endloop
  endfacet
  facet normal 0 1 2.22045e-016
    outer loop
      vertex 3.79069 47 1.04361e-014
      vertex 7 47 20
      vertex 7 47 1.04361e-014
    endloop
  endfacet
  facet normal -0.913545 -0.406737 -3.83475e-016
    outer loop
      vertex 4.08954 46.3288 1.02871e-014
      vertex 4.08954 46.3288 20
      vertex 3.79069 47 1.04361e-014
    endloop
  endfacet
  facet normal -0.913545 -0.406737 -3.83475e-016
    outer loop
      vertex 3.79069 47 1.04361e-014
      vertex 4.08954 46.3288 20
      vertex 3.79069 47 20
    endloop
  endfacet
  facet normal -0.978148 -0.207911 -3.09524e-016
    outer loop
      vertex 4.27644 45.4495 1.00918e-014
      vertex 4.27644 45.4495 20
      vertex 4.08954 46.3288 1.02871e-014
    endloop
  endfacet
  facet normal -0.978148 -0.207911 -3.09524e-016
    outer loop
      vertex 4.08954 46.3288 1.02871e-014
      vertex 4.27644 45.4495 20
      vertex 4.08954 46.3288 20
    endloop
  endfacet
  facet normal -1 9.86076e-032 -2.22045e-016
    outer loop
      vertex 4.27644 44.5505 9.8922e-015
      vertex 4.27644 44.5505 20
      vertex 4.27644 45.4495 1.00918e-014
    endloop
  endfacet
  facet normal -1 9.86076e-032 -2.22045e-016
    outer loop
      vertex 4.27644 45.4495 1.00918e-014
      vertex 4.27644 44.5505 20
      vertex 4.27644 45.4495 20
    endloop
  endfacet
  facet normal -0.978148 0.207911 -1.24861e-016
    outer loop
      vertex 4.27644 44.5505 9.8922e-015
      vertex 4.08954 43.6712 9.69696e-015
      vertex 4.27644 44.5505 20
    endloop
  endfacet
  facet normal -0.978148 0.207911 -1.24861e-016
    outer loop
      vertex 4.27644 44.5505 20
      vertex 4.08954 43.6712 9.69696e-015
      vertex 4.08954 43.6712 20
    endloop
  endfacet
  facet normal -0.913545 0.406737 -2.22204e-017
    outer loop
      vertex 4.08954 43.6712 9.69696e-015
      vertex 3.72391 42.85 9.51461e-015
      vertex 4.08954 43.6712 20
    endloop
  endfacet
  facet normal -0.913545 0.406737 -2.22204e-017
    outer loop
      vertex 4.08954 43.6712 20
      vertex 3.72391 42.85 9.51461e-015
      vertex 3.72391 42.85 20
    endloop
  endfacet
  facet normal -0.809017 0.587785 8.13909e-017
    outer loop
      vertex 3.72391 42.85 9.51461e-015
      vertex 3.19552 42.1227 9.35313e-015
      vertex 3.72391 42.85 20
    endloop
  endfacet
  facet normal -0.809017 0.587785 8.13909e-017
    outer loop
      vertex 3.72391 42.85 20
      vertex 3.19552 42.1227 9.35313e-015
      vertex 3.19552 42.1227 20
    endloop
  endfacet
  facet normal -0.66913 0.743145 1.81446e-016
    outer loop
      vertex 3.19552 42.1227 9.35313e-015
      vertex 2.52748 41.5212 9.21956e-015
      vertex 3.19552 42.1227 20
    endloop
  endfacet
  facet normal -0.66913 0.743145 1.81446e-016
    outer loop
      vertex 3.19552 42.1227 20
      vertex 2.52748 41.5212 9.21956e-015
      vertex 2.52748 41.5212 20
    endloop
  endfacet
  facet normal -0.5 0.866026 2.7357e-016
    outer loop
      vertex 2.52748 41.5212 9.21956e-015
      vertex 1.74897 41.0718 9.11976e-015
      vertex 2.52748 41.5212 20
    endloop
  endfacet
  facet normal -0.5 0.866026 2.7357e-016
    outer loop
      vertex 2.52748 41.5212 20
      vertex 1.74897 41.0718 9.11976e-015
      vertex 1.74897 41.0718 20
    endloop
  endfacet
  facet normal -0.309018 0.951056 3.53738e-016
    outer loop
      vertex 1.74897 41.0718 9.11976e-015
      vertex 0.89402 40.794 9.05808e-015
      vertex 1.52813 41 9.5
    endloop
  endfacet
  facet normal -0.309018 0.951056 3.53738e-016
    outer loop
      vertex 1.74897 41.0718 9.11976e-015
      vertex 1.52813 41 9.5
      vertex 1.74897 41.0718 20
    endloop
  endfacet
  facet normal -0.309018 0.951056 3.53738e-016
    outer loop
      vertex 0.89402 40.794 13
      vertex 1.74897 41.0718 20
      vertex 1.52813 41 13
    endloop
  endfacet
  facet normal -0.309018 0.951056 3.53738e-016
    outer loop
      vertex 1.52813 41 9.5
      vertex 1.52813 41 13
      vertex 1.74897 41.0718 20
    endloop
  endfacet
  facet normal -0.309018 0.951056 3.53738e-016
    outer loop
      vertex 1.74897 41.0718 20
      vertex 0.89402 40.794 13
      vertex 0.89402 40.794 20
    endloop
  endfacet
  facet normal -0.309018 0.951056 3.53738e-016
    outer loop
      vertex 1.52813 41 9.5
      vertex 0.89402 40.794 9.05808e-015
      vertex 0.89402 40.794 9.5
    endloop
  endfacet
  facet normal -0.104528 0.994522 4.18447e-016
    outer loop
      vertex 0.89402 40.794 9.05808e-015
      vertex 4.44089e-015 40.7 9.03722e-015
      vertex 0.89402 40.794 9.5
    endloop
  endfacet
  facet normal -0.104528 0.994522 4.18447e-016
    outer loop
      vertex 0.89402 40.794 9.5
      vertex 4.44089e-015 40.7 9.03722e-015
      vertex 2.33147e-015 40.7 9.5
    endloop
  endfacet
  facet normal 0.104528 0.994522 4.64866e-016
    outer loop
      vertex 4.44089e-015 40.7 9.03722e-015
      vertex -0.89402 40.794 9.05808e-015
      vertex 2.33147e-015 40.7 9.5
    endloop
  endfacet
  facet normal 0.104528 0.994522 4.64866e-016
    outer loop
      vertex 2.33147e-015 40.7 9.5
      vertex -0.89402 40.794 9.05808e-015
      vertex -0.89402 40.794 9.5
    endloop
  endfacet
  facet normal 0.309018 0.951056 4.9097e-016
    outer loop
      vertex -0.89402 40.794 13
      vertex -1.52813 41 13
      vertex -0.89402 40.794 20
    endloop
  endfacet
  facet normal 0.309018 0.951056 4.9097e-016
    outer loop
      vertex -1.74897 41.0718 20
      vertex -1.52813 41 13
      vertex -1.74897 41.0718 9.11976e-015
    endloop
  endfacet
  facet normal 0.309018 0.951056 4.9097e-016
    outer loop
      vertex -0.89402 40.794 9.05808e-015
      vertex -1.52813 41 9.5
      vertex -0.89402 40.794 9.5
    endloop
  endfacet
  facet normal 0.309018 0.951056 4.9097e-016
    outer loop
      vertex -1.74897 41.0718 9.11976e-015
      vertex -1.52813 41 9.5
      vertex -0.89402 40.794 9.05808e-015
    endloop
  endfacet
  facet normal 0.309018 0.951056 4.9097e-016
    outer loop
      vertex -1.52813 41 13
      vertex -1.52813 41 9.5
      vertex -1.74897 41.0718 9.11976e-015
    endloop
  endfacet
  facet normal 0.309018 0.951056 4.9097e-016
    outer loop
      vertex -0.89402 40.794 20
      vertex -1.52813 41 13
      vertex -1.74897 41.0718 20
    endloop
  endfacet
  facet normal 0.5 0.866026 4.95615e-016
    outer loop
      vertex -1.74897 41.0718 9.11976e-015
      vertex -2.52748 41.5212 9.21956e-015
      vertex -1.74897 41.0718 20
    endloop
  endfacet
  facet normal 0.5 0.866026 4.95615e-016
    outer loop
      vertex -1.74897 41.0718 20
      vertex -2.52748 41.5212 9.21956e-015
      vertex -2.52748 41.5212 20
    endloop
  endfacet
  facet normal 0.66913 0.743145 4.78599e-016
    outer loop
      vertex -2.52748 41.5212 9.21956e-015
      vertex -3.19552 42.1227 9.35313e-015
      vertex -2.52748 41.5212 20
    endloop
  endfacet
  facet normal 0.66913 0.743145 4.78599e-016
    outer loop
      vertex -2.52748 41.5212 20
      vertex -3.19552 42.1227 9.35313e-015
      vertex -3.19552 42.1227 20
    endloop
  endfacet
  facet normal 0.809017 0.587785 4.40667e-016
    outer loop
      vertex -3.19552 42.1227 20
      vertex -3.19552 42.1227 9.35313e-015
      vertex -3.72391 42.85 9.51461e-015
    endloop
  endfacet
  facet normal 0.809017 0.587785 4.40667e-016
    outer loop
      vertex -3.72391 42.85 20
      vertex -3.19552 42.1227 20
      vertex -3.72391 42.85 9.51461e-015
    endloop
  endfacet
  facet normal 0.913545 0.406737 3.83475e-016
    outer loop
      vertex -3.72391 42.85 20
      vertex -3.72391 42.85 9.51461e-015
      vertex -4.08954 43.6712 9.69696e-015
    endloop
  endfacet
  facet normal 0.913545 0.406737 3.83475e-016
    outer loop
      vertex -4.08954 43.6712 20
      vertex -3.72391 42.85 20
      vertex -4.08954 43.6712 9.69696e-015
    endloop
  endfacet
  facet normal 0.978148 0.207911 3.09524e-016
    outer loop
      vertex -4.08954 43.6712 20
      vertex -4.08954 43.6712 9.69696e-015
      vertex -4.27644 44.5505 9.8922e-015
    endloop
  endfacet
  facet normal 0.978148 0.207911 3.09524e-016
    outer loop
      vertex -4.27644 44.5505 20
      vertex -4.08954 43.6712 20
      vertex -4.27644 44.5505 9.8922e-015
    endloop
  endfacet
  facet normal 1 -9.86076e-032 2.22045e-016
    outer loop
      vertex -4.27644 44.5505 20
      vertex -4.27644 44.5505 9.8922e-015
      vertex -4.27644 45.4495 1.00918e-014
    endloop
  endfacet
  facet normal 1 -9.86076e-032 2.22045e-016
    outer loop
      vertex -4.27644 45.4495 20
      vertex -4.27644 44.5505 20
      vertex -4.27644 45.4495 1.00918e-014
    endloop
  endfacet
  facet normal 0.978148 -0.207911 1.24861e-016
    outer loop
      vertex -4.27644 45.4495 1.00918e-014
      vertex -4.08954 46.3288 1.02871e-014
      vertex -4.08954 46.3288 20
    endloop
  endfacet
  facet normal 0.978148 -0.207911 1.24861e-016
    outer loop
      vertex -4.27644 45.4495 20
      vertex -4.27644 45.4495 1.00918e-014
      vertex -4.08954 46.3288 20
    endloop
  endfacet
  facet normal 0.913545 -0.406737 2.22204e-017
    outer loop
      vertex -4.08954 46.3288 1.02871e-014
      vertex -3.79069 47 1.04361e-014
      vertex -3.79069 47 20
    endloop
  endfacet
  facet normal 0.913545 -0.406737 2.22204e-017
    outer loop
      vertex -4.08954 46.3288 20
      vertex -4.08954 46.3288 1.02871e-014
      vertex -3.79069 47 20
    endloop
  endfacet
  facet normal 0 1 2.22045e-016
    outer loop
      vertex -7 47 20
      vertex -3.79069 47 20
      vertex -7 47 1.04361e-014
    endloop
  endfacet
  facet normal 0 1 2.22045e-016
    outer loop
      vertex -7 47 1.04361e-014
      vertex -3.79069 47 20
      vertex -3.79069 47 1.04361e-014
    endloop
  endfacet
  facet normal 1 -3.93732e-032 1.77321e-016
    outer loop
      vertex -4.3759 19.5401 4.33877e-015
      vertex -4.3759 20.4599 4.54302e-015
      vertex -4.3759 20.4599 22
    endloop
  endfacet
  facet normal 1 -3.93732e-032 1.77321e-016
    outer loop
      vertex -4.3759 19.5401 22
      vertex -4.3759 19.5401 4.33877e-015
      vertex -4.3759 20.4599 22
    endloop
  endfacet
  facet normal 0.978148 -0.207911 8.11154e-017
    outer loop
      vertex -4.3759 20.4599 4.54302e-015
      vertex -4.18465 21.3597 4.7428e-015
      vertex -4.18465 21.3597 22
    endloop
  endfacet
  facet normal 0.978148 -0.207911 8.11154e-017
    outer loop
      vertex -4.3759 20.4599 22
      vertex -4.3759 20.4599 4.54302e-015
      vertex -4.18465 21.3597 22
    endloop
  endfacet
  facet normal 0.913545 -0.406737 -1.86364e-017
    outer loop
      vertex -4.18465 21.3597 4.7428e-015
      vertex -3.81051 22.2 4.92939e-015
      vertex -3.81051 22.2 22
    endloop
  endfacet
  facet normal 0.913545 -0.406737 -1.86364e-017
    outer loop
      vertex -4.18465 21.3597 22
      vertex -4.18465 21.3597 4.7428e-015
      vertex -3.81051 22.2 22
    endloop
  endfacet
  facet normal 0.809017 -0.587785 -1.17573e-016
    outer loop
      vertex -3.81051 22.2 4.92939e-015
      vertex -3.26984 22.9442 5.09463e-015
      vertex -3.26984 22.9442 22
    endloop
  endfacet
  facet normal 0.809017 -0.587785 -1.17573e-016
    outer loop
      vertex -3.81051 22.2 22
      vertex -3.81051 22.2 4.92939e-015
      vertex -3.26984 22.9442 22
    endloop
  endfacet
  facet normal 0.669131 -0.743145 -2.11372e-016
    outer loop
      vertex -3.26984 22.9442 5.09463e-015
      vertex -2.58625 23.5597 5.2313e-015
      vertex -2.58625 23.5597 22
    endloop
  endfacet
  facet normal 0.669131 -0.743145 -2.11372e-016
    outer loop
      vertex -3.26984 22.9442 22
      vertex -3.26984 22.9442 5.09463e-015
      vertex -2.58625 23.5597 22
    endloop
  endfacet
  facet normal 0.5 -0.866026 -2.95932e-016
    outer loop
      vertex -2.58625 23.5597 5.2313e-015
      vertex -1.78964 24.0196 5.33342e-015
      vertex -1.78964 24.0196 22
    endloop
  endfacet
  facet normal 0.5 -0.866026 -2.95932e-016
    outer loop
      vertex -2.58625 23.5597 22
      vertex -2.58625 23.5597 5.2313e-015
      vertex -1.78964 24.0196 22
    endloop
  endfacet
  facet normal 0.309017 -0.951057 -3.67559e-016
    outer loop
      vertex -1.78964 24.0196 5.33342e-015
      vertex -0.914811 24.3038 5.39654e-015
      vertex -0.914811 24.3038 22
    endloop
  endfacet
  facet normal 0.309017 -0.951057 -3.67559e-016
    outer loop
      vertex -1.78964 24.0196 22
      vertex -1.78964 24.0196 5.33342e-015
      vertex -0.914811 24.3038 22
    endloop
  endfacet
  facet normal 0.104529 -0.994522 -4.23121e-016
    outer loop
      vertex -0.914811 24.3038 5.39654e-015
      vertex 3.90107e-015 24.4 5.41789e-015
      vertex 0 24.4 22
    endloop
  endfacet
  facet normal 0.104529 -0.994522 -4.23121e-016
    outer loop
      vertex -0.914811 24.3038 22
      vertex -0.914811 24.3038 5.39654e-015
      vertex 0 24.4 22
    endloop
  endfacet
  facet normal -0.104529 -0.994522 -4.60192e-016
    outer loop
      vertex 3.90107e-015 24.4 5.41789e-015
      vertex 0.914811 24.3038 5.39654e-015
      vertex 0.914811 24.3038 22
    endloop
  endfacet
  facet normal -0.104529 -0.994522 -4.60192e-016
    outer loop
      vertex 0 24.4 22
      vertex 3.90107e-015 24.4 5.41789e-015
      vertex 0.914811 24.3038 22
    endloop
  endfacet
  facet normal -0.309017 -0.951057 -4.77149e-016
    outer loop
      vertex 0.914811 24.3038 5.39654e-015
      vertex 1.78964 24.0196 5.33342e-015
      vertex 1.78964 24.0196 22
    endloop
  endfacet
  facet normal -0.309017 -0.951057 -4.77149e-016
    outer loop
      vertex 0.914811 24.3038 22
      vertex 0.914811 24.3038 5.39654e-015
      vertex 1.78964 24.0196 22
    endloop
  endfacet
  facet normal -0.5 -0.866026 -4.73253e-016
    outer loop
      vertex 1.78964 24.0196 5.33342e-015
      vertex 2.58626 23.5597 5.2313e-015
      vertex 2.58625 23.5597 22
    endloop
  endfacet
  facet normal -0.5 -0.866026 -4.73253e-016
    outer loop
      vertex 1.78964 24.0196 22
      vertex 1.78964 24.0196 5.33342e-015
      vertex 2.58625 23.5597 22
    endloop
  endfacet
  facet normal -0.669131 -0.743145 -4.48674e-016
    outer loop
      vertex 2.58626 23.5597 5.2313e-015
      vertex 3.26984 22.9442 5.09463e-015
      vertex 3.26984 22.9442 22
    endloop
  endfacet
  facet normal -0.669131 -0.743145 -4.48674e-016
    outer loop
      vertex 2.58625 23.5597 22
      vertex 2.58626 23.5597 5.2313e-015
      vertex 3.26984 22.9442 22
    endloop
  endfacet
  facet normal -0.809017 -0.587785 -4.04485e-016
    outer loop
      vertex 3.81051 22.2 4.92939e-015
      vertex 3.81051 22.2 22
      vertex 3.26984 22.9442 5.09463e-015
    endloop
  endfacet
  facet normal -0.809017 -0.587785 -4.04485e-016
    outer loop
      vertex 3.26984 22.9442 5.09463e-015
      vertex 3.81051 22.2 22
      vertex 3.26984 22.9442 22
    endloop
  endfacet
  facet normal -0.913545 -0.406737 -3.42618e-016
    outer loop
      vertex 4.18465 21.3597 4.7428e-015
      vertex 4.18465 21.3597 22
      vertex 3.81051 22.2 4.92939e-015
    endloop
  endfacet
  facet normal -0.913545 -0.406737 -3.42618e-016
    outer loop
      vertex 3.81051 22.2 4.92939e-015
      vertex 4.18465 21.3597 22
      vertex 3.81051 22.2 22
    endloop
  endfacet
  facet normal -0.978148 -0.207911 -2.65777e-016
    outer loop
      vertex 4.3759 20.4599 4.54302e-015
      vertex 4.3759 20.4599 22
      vertex 4.18465 21.3597 4.7428e-015
    endloop
  endfacet
  facet normal -0.978148 -0.207911 -2.65777e-016
    outer loop
      vertex 4.18465 21.3597 4.7428e-015
      vertex 4.3759 20.4599 22
      vertex 4.18465 21.3597 22
    endloop
  endfacet
  facet normal -1 3.93732e-032 -1.77321e-016
    outer loop
      vertex 4.3759 20.4599 4.54302e-015
      vertex 4.3759 19.5401 4.33877e-015
      vertex 4.3759 20.4599 22
    endloop
  endfacet
  facet normal -1 3.93732e-032 -1.77321e-016
    outer loop
      vertex 4.3759 20.4599 22
      vertex 4.3759 19.5401 4.33877e-015
      vertex 4.3759 19.5401 22
    endloop
  endfacet
  facet normal -0.978148 0.207911 -8.11154e-017
    outer loop
      vertex 4.3759 19.5401 4.33877e-015
      vertex 4.18465 18.6403 4.13898e-015
      vertex 4.3759 19.5401 22
    endloop
  endfacet
  facet normal -0.978148 0.207911 -8.11154e-017
    outer loop
      vertex 4.3759 19.5401 22
      vertex 4.18465 18.6403 4.13898e-015
      vertex 4.18465 18.6403 22
    endloop
  endfacet
  facet normal -0.913545 0.406737 1.86364e-017
    outer loop
      vertex 4.18465 18.6403 4.13898e-015
      vertex 3.81051 17.8 3.95239e-015
      vertex 4.18465 18.6403 22
    endloop
  endfacet
  facet normal -0.913545 0.406737 1.86364e-017
    outer loop
      vertex 4.18465 18.6403 22
      vertex 3.81051 17.8 3.95239e-015
      vertex 3.81051 17.8 22
    endloop
  endfacet
  facet normal -0.809017 0.587785 1.17573e-016
    outer loop
      vertex 3.81051 17.8 3.95239e-015
      vertex 3.26984 17.0558 3.78715e-015
      vertex 3.81051 17.8 22
    endloop
  endfacet
  facet normal -0.809017 0.587785 1.17573e-016
    outer loop
      vertex 3.81051 17.8 22
      vertex 3.26984 17.0558 3.78715e-015
      vertex 3.26984 17.0558 22
    endloop
  endfacet
  facet normal -0.669131 0.743145 2.11372e-016
    outer loop
      vertex 3.26984 17.0558 3.78715e-015
      vertex 2.58626 16.4403 3.65049e-015
      vertex 3.26984 17.0558 22
    endloop
  endfacet
  facet normal -0.669131 0.743145 2.11372e-016
    outer loop
      vertex 3.26984 17.0558 22
      vertex 2.58626 16.4403 3.65049e-015
      vertex 2.58625 16.4403 22
    endloop
  endfacet
  facet normal -0.5 0.866026 2.95932e-016
    outer loop
      vertex 2.58626 16.4403 3.65049e-015
      vertex 1.78964 15.9804 3.54836e-015
      vertex 2.58625 16.4403 22
    endloop
  endfacet
  facet normal -0.5 0.866026 2.95932e-016
    outer loop
      vertex 2.58625 16.4403 22
      vertex 1.78964 15.9804 3.54836e-015
      vertex 1.78964 15.9804 22
    endloop
  endfacet
  facet normal -0.309017 0.951057 3.67559e-016
    outer loop
      vertex 1.78964 15.9804 3.54836e-015
      vertex 0.914811 15.6962 3.48525e-015
      vertex 1.78964 15.9804 22
    endloop
  endfacet
  facet normal -0.309017 0.951057 3.67559e-016
    outer loop
      vertex 1.78964 15.9804 22
      vertex 0.914811 15.6962 3.48525e-015
      vertex 0.914811 15.6962 22
    endloop
  endfacet
  facet normal -0.104529 0.994522 4.23121e-016
    outer loop
      vertex 0.914811 15.6962 3.48525e-015
      vertex 3.90107e-015 15.6 3.4639e-015
      vertex 0.914811 15.6962 22
    endloop
  endfacet
  facet normal -0.104529 0.994522 4.23121e-016
    outer loop
      vertex 0.914811 15.6962 22
      vertex 3.90107e-015 15.6 3.4639e-015
      vertex 0 15.6 22
    endloop
  endfacet
  facet normal 0.104529 0.994522 4.60192e-016
    outer loop
      vertex 3.90107e-015 15.6 3.4639e-015
      vertex -0.914811 15.6962 3.48525e-015
      vertex 0 15.6 22
    endloop
  endfacet
  facet normal 0.104529 0.994522 4.60192e-016
    outer loop
      vertex 0 15.6 22
      vertex -0.914811 15.6962 3.48525e-015
      vertex -0.914811 15.6962 22
    endloop
  endfacet
  facet normal 0.309017 0.951057 4.77149e-016
    outer loop
      vertex -0.914811 15.6962 3.48525e-015
      vertex -1.78964 15.9804 3.54836e-015
      vertex -0.914811 15.6962 22
    endloop
  endfacet
  facet normal 0.309017 0.951057 4.77149e-016
    outer loop
      vertex -0.914811 15.6962 22
      vertex -1.78964 15.9804 3.54836e-015
      vertex -1.78964 15.9804 22
    endloop
  endfacet
  facet normal 0.5 0.866026 4.73253e-016
    outer loop
      vertex -1.78964 15.9804 3.54836e-015
      vertex -2.58625 16.4403 3.65049e-015
      vertex -1.78964 15.9804 22
    endloop
  endfacet
  facet normal 0.5 0.866026 4.73253e-016
    outer loop
      vertex -1.78964 15.9804 22
      vertex -2.58625 16.4403 3.65049e-015
      vertex -2.58625 16.4403 22
    endloop
  endfacet
  facet normal 0.669131 0.743145 4.48674e-016
    outer loop
      vertex -2.58625 16.4403 3.65049e-015
      vertex -3.26984 17.0558 3.78715e-015
      vertex -2.58625 16.4403 22
    endloop
  endfacet
  facet normal 0.669131 0.743145 4.48674e-016
    outer loop
      vertex -2.58625 16.4403 22
      vertex -3.26984 17.0558 3.78715e-015
      vertex -3.26984 17.0558 22
    endloop
  endfacet
  facet normal 0.809017 0.587785 4.04485e-016
    outer loop
      vertex -3.26984 17.0558 22
      vertex -3.26984 17.0558 3.78715e-015
      vertex -3.81051 17.8 3.95239e-015
    endloop
  endfacet
  facet normal 0.809017 0.587785 4.04485e-016
    outer loop
      vertex -3.81051 17.8 22
      vertex -3.26984 17.0558 22
      vertex -3.81051 17.8 3.95239e-015
    endloop
  endfacet
  facet normal 0.913545 0.406737 3.42618e-016
    outer loop
      vertex -3.81051 17.8 22
      vertex -3.81051 17.8 3.95239e-015
      vertex -4.18465 18.6403 4.13898e-015
    endloop
  endfacet
  facet normal 0.913545 0.406737 3.42618e-016
    outer loop
      vertex -4.18465 18.6403 22
      vertex -3.81051 17.8 22
      vertex -4.18465 18.6403 4.13898e-015
    endloop
  endfacet
  facet normal 0.978148 0.207911 2.65777e-016
    outer loop
      vertex -4.18465 18.6403 22
      vertex -4.18465 18.6403 4.13898e-015
      vertex -4.3759 19.5401 4.33877e-015
    endloop
  endfacet
  facet normal 0.978148 0.207911 2.65777e-016
    outer loop
      vertex -4.3759 19.5401 22
      vertex -4.18465 18.6403 22
      vertex -4.3759 19.5401 4.33877e-015
    endloop
  endfacet
  facet normal 0 -1 -2.22045e-016
    outer loop
      vertex 9 41 9.5
      vertex 9 41 13
      vertex 1.52813 41 13
    endloop
  endfacet
  facet normal 0 -1 -2.22045e-016
    outer loop
      vertex 1.52813 41 9.5
      vertex 9 41 9.5
      vertex 1.52813 41 13
    endloop
  endfacet
  facet normal -0.104528 0.994522 4.18447e-016
    outer loop
      vertex 0.89402 40.794 13
      vertex 1.55431e-015 40.7 13
      vertex 0.89402 40.794 20
    endloop
  endfacet
  facet normal -0.104528 0.994522 4.18447e-016
    outer loop
      vertex 0.89402 40.794 20
      vertex 1.55431e-015 40.7 13
      vertex 0 40.7 20
    endloop
  endfacet
  facet normal 0.104528 0.994522 4.64866e-016
    outer loop
      vertex 1.55431e-015 40.7 13
      vertex -0.89402 40.794 13
      vertex 0 40.7 20
    endloop
  endfacet
  facet normal 0.104528 0.994522 4.64866e-016
    outer loop
      vertex 0 40.7 20
      vertex -0.89402 40.794 13
      vertex -0.89402 40.794 20
    endloop
  endfacet
  facet normal 2.22045e-016 4.44089e-016 -1
    outer loop
      vertex -3.79069 47 20
      vertex 3.79069 47 20
      vertex -4.08954 46.3288 20
    endloop
  endfacet
  facet normal 2.22045e-016 4.44089e-016 -1
    outer loop
      vertex -4.08954 46.3288 20
      vertex 3.79069 47 20
      vertex 4.08954 46.3288 20
    endloop
  endfacet
  facet normal 2.22045e-016 4.44089e-016 -1
    outer loop
      vertex -4.08954 46.3288 20
      vertex 4.08954 46.3288 20
      vertex 4.27644 45.4495 20
    endloop
  endfacet
  facet normal 2.22045e-016 4.44089e-016 -1
    outer loop
      vertex -4.08954 46.3288 20
      vertex 4.27644 45.4495 20
      vertex 4.27644 44.5505 20
    endloop
  endfacet
  facet normal 2.22045e-016 4.44089e-016 -1
    outer loop
      vertex -4.08954 46.3288 20
      vertex 4.27644 44.5505 20
      vertex 4.08954 43.6712 20
    endloop
  endfacet
  facet normal 2.22045e-016 4.44089e-016 -1
    outer loop
      vertex -4.08954 46.3288 20
      vertex 4.08954 43.6712 20
      vertex 3.72391 42.85 20
    endloop
  endfacet
  facet normal 2.22045e-016 4.44089e-016 -1
    outer loop
      vertex -4.08954 46.3288 20
      vertex 3.72391 42.85 20
      vertex 3.19552 42.1227 20
    endloop
  endfacet
  facet normal 2.22045e-016 4.44089e-016 -1
    outer loop
      vertex -4.08954 46.3288 20
      vertex 3.19552 42.1227 20
      vertex 2.52748 41.5212 20
    endloop
  endfacet
  facet normal 2.22045e-016 4.44089e-016 -1
    outer loop
      vertex -4.08954 46.3288 20
      vertex 2.52748 41.5212 20
      vertex 1.74897 41.0718 20
    endloop
  endfacet
  facet normal 2.22045e-016 4.44089e-016 -1
    outer loop
      vertex -4.08954 46.3288 20
      vertex 1.74897 41.0718 20
      vertex 0.89402 40.794 20
    endloop
  endfacet
  facet normal 2.22045e-016 4.44089e-016 -1
    outer loop
      vertex -4.08954 46.3288 20
      vertex 0.89402 40.794 20
      vertex 0 40.7 20
    endloop
  endfacet
  facet normal 2.22045e-016 4.44089e-016 -1
    outer loop
      vertex -4.08954 46.3288 20
      vertex 0 40.7 20
      vertex -0.89402 40.794 20
    endloop
  endfacet
  facet normal 2.22045e-016 4.44089e-016 -1
    outer loop
      vertex -4.08954 46.3288 20
      vertex -0.89402 40.794 20
      vertex -1.74897 41.0718 20
    endloop
  endfacet
  facet normal 2.22045e-016 4.44089e-016 -1
    outer loop
      vertex -4.08954 46.3288 20
      vertex -1.74897 41.0718 20
      vertex -2.52748 41.5212 20
    endloop
  endfacet
  facet normal 2.22045e-016 4.44089e-016 -1
    outer loop
      vertex -4.08954 46.3288 20
      vertex -2.52748 41.5212 20
      vertex -3.19552 42.1227 20
    endloop
  endfacet
  facet normal 2.22045e-016 4.44089e-016 -1
    outer loop
      vertex -4.08954 46.3288 20
      vertex -3.19552 42.1227 20
      vertex -3.72391 42.85 20
    endloop
  endfacet
  facet normal 2.22045e-016 4.44089e-016 -1
    outer loop
      vertex -4.08954 46.3288 20
      vertex -3.72391 42.85 20
      vertex -4.08954 43.6712 20
    endloop
  endfacet
  facet normal 2.22045e-016 4.44089e-016 -1
    outer loop
      vertex -4.08954 46.3288 20
      vertex -4.08954 43.6712 20
      vertex -4.27644 44.5505 20
    endloop
  endfacet
  facet normal 2.22045e-016 4.44089e-016 -1
    outer loop
      vertex -4.08954 46.3288 20
      vertex -4.27644 44.5505 20
      vertex -4.27644 45.4495 20
    endloop
  endfacet
endsolid OpenSCAD_Model
